<svg viewBox="0 0 330 200" xmlns="http://www.w3.org/2000/svg"><g><g><g><g><g><line x1="50" y1="177" x2="45" y2="177" style="visibility: inherit;" fill="rgb(0, 0, 0)" stroke="rgb(204, 204, 204)" stroke-width="1px"></line><line x1="50" y1="153.4" x2="45" y2="153.4" style="visibility: inherit;" fill="rgb(0, 0, 0)" stroke="rgb(204, 204, 204)" stroke-width="1px"></line><line x1="50" y1="129.8" x2="45" y2="129.8" style="visibility: inherit;" fill="rgb(0, 0, 0)" stroke="rgb(204, 204, 204)" stroke-width="1px"></line><line x1="50" y1="106.2" x2="45" y2="106.2" style="visibility: inherit;" fill="rgb(0, 0, 0)" stroke="rgb(204, 204, 204)" stroke-width="1px"></line><line x1="50" y1="82.6" x2="45" y2="82.6" style="visibility: inherit;" fill="rgb(0, 0, 0)" stroke="rgb(204, 204, 204)" stroke-width="1px"></line><line x1="50" y1="58.999999999999986" x2="45" y2="58.999999999999986" style="visibility: inherit;" fill="rgb(0, 0, 0)" stroke="rgb(204, 204, 204)" stroke-width="1px"></line><line x1="50" y1="35.39999999999999" x2="45" y2="35.39999999999999" style="visibility: inherit;" fill="rgb(0, 0, 0)" stroke="rgb(204, 204, 204)" stroke-width="1px"></line><line x1="50" y1="11.799999999999978" x2="45" y2="11.799999999999978" style="visibility: inherit;" fill="rgb(0, 0, 0)" stroke="rgb(204, 204, 204)" stroke-width="1px"></line></g><g transform="translate(40, 0)"><text x="0" y="177" dx="0em" dy="0.3em" style="text-anchor: end; visibility: hidden; font-family: Roboto, sans-serif; font-size: 12px; font-weight: 200;" fill="rgb(255, 255, 255)" stroke="none" stroke-width="1px">0</text><text x="0" y="153.4" dx="0em" dy="0.3em" style="text-anchor: end; visibility: inherit; font-family: Roboto, sans-serif; font-size: 12px; font-weight: 200;" fill="rgb(255, 255, 255)" stroke="none" stroke-width="1px">0.02</text><text x="0" y="129.8" dx="0em" dy="0.3em" style="text-anchor: end; visibility: inherit; font-family: Roboto, sans-serif; font-size: 12px; font-weight: 200;" fill="rgb(255, 255, 255)" stroke="none" stroke-width="1px">0.04</text><text x="0" y="106.2" dx="0em" dy="0.3em" style="text-anchor: end; visibility: inherit; font-family: Roboto, sans-serif; font-size: 12px; font-weight: 200;" fill="rgb(255, 255, 255)" stroke="none" stroke-width="1px">0.06</text><text x="0" y="82.6" dx="0em" dy="0.3em" style="text-anchor: end; visibility: inherit; font-family: Roboto, sans-serif; font-size: 12px; font-weight: 200;" fill="rgb(255, 255, 255)" stroke="none" stroke-width="1px">0.08</text><text x="0" y="58.999999999999986" dx="0em" dy="0.3em" style="text-anchor: end; visibility: inherit; font-family: Roboto, sans-serif; font-size: 12px; font-weight: 200;" fill="rgb(255, 255, 255)" stroke="none" stroke-width="1px">0.1</text><text x="0" y="35.39999999999999" dx="0em" dy="0.3em" style="text-anchor: end; visibility: inherit; font-family: Roboto, sans-serif; font-size: 12px; font-weight: 200;" fill="rgb(255, 255, 255)" stroke="none" stroke-width="1px">0.12</text><text x="0" y="11.799999999999978" dx="0em" dy="0.3em" style="text-anchor: end; visibility: inherit; font-family: Roboto, sans-serif; font-size: 12px; font-weight: 200;" fill="rgb(255, 255, 255)" stroke="none" stroke-width="1px">0.14</text></g><line x1="50" y1="0" x2="50" y2="177" fill="rgb(0, 0, 0)" stroke="rgb(204, 204, 204)" stroke-width="1px"></line></g></g><g transform="translate(50, 0)" clip-path="url(#clip_0)"><clipPath id="clip_0"><rect width="280" height="177"></rect></clipPath><g><g><g><line x1="0" y1="0" x2="0" y2="177" fill="rgb(0, 0, 0)" stroke="rgb(189, 189, 189)" stroke-width="1px" opacity="0.25"></line><line x1="23.333333333333332" y1="0" x2="23.333333333333332" y2="177" fill="rgb(0, 0, 0)" stroke="rgb(189, 189, 189)" stroke-width="1px" opacity="0.25"></line><line x1="46.666666666666664" y1="0" x2="46.666666666666664" y2="177" fill="rgb(0, 0, 0)" stroke="rgb(189, 189, 189)" stroke-width="1px" opacity="0.25"></line><line x1="70" y1="0" x2="70" y2="177" fill="rgb(0, 0, 0)" stroke="rgb(189, 189, 189)" stroke-width="1px" opacity="0.25"></line><line x1="93.33333333333333" y1="0" x2="93.33333333333333" y2="177" fill="rgb(0, 0, 0)" stroke="rgb(189, 189, 189)" stroke-width="1px" opacity="0.25"></line><line x1="116.66666666666667" y1="0" x2="116.66666666666667" y2="177" fill="rgb(0, 0, 0)" stroke="rgb(189, 189, 189)" stroke-width="1px" opacity="0.25"></line><line x1="140" y1="0" x2="140" y2="177" fill="rgb(0, 0, 0)" stroke="rgb(189, 189, 189)" stroke-width="1px" opacity="0.25"></line><line x1="163.33333333333334" y1="0" x2="163.33333333333334" y2="177" fill="rgb(0, 0, 0)" stroke="rgb(189, 189, 189)" stroke-width="1px" opacity="0.25"></line><line x1="186.66666666666666" y1="0" x2="186.66666666666666" y2="177" fill="rgb(0, 0, 0)" stroke="rgb(189, 189, 189)" stroke-width="1px" opacity="0.25"></line><line x1="210" y1="0" x2="210" y2="177" fill="rgb(0, 0, 0)" stroke="rgb(189, 189, 189)" stroke-width="1px" opacity="0.25"></line><line x1="233.33333333333334" y1="0" x2="233.33333333333334" y2="177" fill="rgb(0, 0, 0)" stroke="rgb(189, 189, 189)" stroke-width="1px" opacity="0.25"></line><line x1="256.66666666666663" y1="0" x2="256.66666666666663" y2="177" fill="rgb(0, 0, 0)" stroke="rgb(189, 189, 189)" stroke-width="1px" opacity="0.25"></line><line x1="280" y1="0" x2="280" y2="177" fill="rgb(0, 0, 0)" stroke="rgb(189, 189, 189)" stroke-width="1px" opacity="0.25"></line></g><g><line x1="0" y1="177" x2="280" y2="177" fill="rgb(0, 0, 0)" stroke="rgb(189, 189, 189)" stroke-width="1px" opacity="0.25"></line><line x1="0" y1="153.4" x2="280" y2="153.4" fill="rgb(0, 0, 0)" stroke="rgb(189, 189, 189)" stroke-width="1px" opacity="0.25"></line><line x1="0" y1="129.8" x2="280" y2="129.8" fill="rgb(0, 0, 0)" stroke="rgb(189, 189, 189)" stroke-width="1px" opacity="0.25"></line><line x1="0" y1="106.2" x2="280" y2="106.2" fill="rgb(0, 0, 0)" stroke="rgb(189, 189, 189)" stroke-width="1px" opacity="0.25"></line><line x1="0" y1="82.6" x2="280" y2="82.6" fill="rgb(0, 0, 0)" stroke="rgb(189, 189, 189)" stroke-width="1px" opacity="0.25"></line><line x1="0" y1="58.999999999999986" x2="280" y2="58.999999999999986" fill="rgb(0, 0, 0)" stroke="rgb(189, 189, 189)" stroke-width="1px" opacity="0.25"></line><line x1="0" y1="35.39999999999999" x2="280" y2="35.39999999999999" fill="rgb(0, 0, 0)" stroke="rgb(189, 189, 189)" stroke-width="1px" opacity="0.25"></line><line x1="0" y1="11.799999999999978" x2="280" y2="11.799999999999978" fill="rgb(0, 0, 0)" stroke="rgb(189, 189, 189)" stroke-width="1px" opacity="0.25"></line></g></g></g><g><g><line x1="0" y1="177" x2="280" y2="177" fill="rgb(0, 0, 0)" stroke="rgb(153, 153, 153)" stroke-width="1.5px"></line></g></g><g><g><line x1="23.333333333333332" y1="0" x2="23.333333333333332" y2="177" fill="rgb(0, 0, 0)" stroke="rgb(153, 153, 153)" stroke-width="1.5px"></line></g></g><g><g><g><g><g><path stroke="rgb(0, 153, 136)" stroke-width="2px" d="M23.333333333333332,-6.638696372509003L28,24.481539100408547L32.666666666666664,49.61917819173968L37.333333333333336,66.40253523452317L42,77.34961327496788L46.666666666666664,86.13352012448212L51.33333333333333,92.45654200065529L56,97.09555177863282L60.66666666666667,100.9281465274556L65.33333333333333,105.17229725547048L70,108.73384157753941L74.66666666666667,110.54970898642335L79.33333333333333,110.3043857256764L84,111.8127829568945L88.66666666666666,113.21155316169958L93.33333333333333,113.87212243392557L98,114.97742973850302L102.66666666666666,115.88259097378283L107.33333333333334,115.47382876585502L112,115.51727291821065L116.66666666666667,116.79612825268543L121.33333333333334,117.65002977000736L126,117.52526371978881L130.66666666666666,115.82785813760303L135.33333333333334,115.16037445291549L140,115.78181860968432L144.66666666666669,117.16944110034731L149.33333333333334,117.52869016916458L154,118.34358117201815L158.66666666666666,117.91741876848046L163.33333333333334,117.78801395993068L168,116.87515038437662L172.66666666666669,116.06594821634373L177.33333333333331,115.62189380340558L182,116.03606771950312L186.66666666666666,116.47685852817992L191.33333333333334,116.39732492023538L196,117.6493059446441L200.66666666666666,117.27480543470554L205.33333333333331,117.25282380468393L210,118.13694410089083L214.66666666666669,118.90717256442076L219.33333333333334,118.7871699712846L224,118.7425017644193L228.66666666666666,117.98293147014982L233.33333333333334,117.85117519811409L238,117.51248187371189L242.66666666666669,117.26028212635008L247.33333333333331,117.66271535592792L252,117.04807264826705" style="fill: none;" fill="none"></path></g><g><path stroke="rgb(238, 51, 119)" stroke-width="2px" d="M32.666666666666664,-15.354936617977806L37.333333333333336,28.185607554610183L42,56.0606337104259L46.666666666666664,74.9341192319829L51.33333333333333,88.70086474099176L56,98.5879808523177L60.66666666666667,106.36782232915975L65.33333333333333,112.34547004822107L70,117.1348929017805L74.66666666666667,121.09080363180097L79.33333333333333,124.33122888566567L84,127.20048149424339L88.66666666666666,129.61651870344323L93.33333333333333,131.94598770955116L98,133.9778728887179L102.66666666666666,135.85807189722587L107.33333333333334,137.42625513959842L112,138.86658748871432L116.66666666666667,140.4620932549302L121.33333333333334,141.7920394089734L126,143.2092352162548L130.66666666666666,144.4119267380793L135.33333333333334,145.70079760213264L140,146.84858353699968L144.66666666666669,147.8072564416081L149.33333333333334,148.8900733035199L154,149.7552296930258L158.66666666666666,150.5342170210464L163.33333333333334,151.3735758828935L168,152.30709841038558L172.66666666666669,153.15334871390738L177.33333333333331,153.9694399798043L182,154.58261614388078L186.66666666666666,155.18748060996862L191.33333333333334,155.81728407615094L196,156.53539469731467L200.66666666666666,157.0946425294975L205.33333333333331,157.78109287688102L210,158.42990559224052L214.66666666666669,159.05273774226933L219.33333333333334,159.41517708139412L224,160.10743871603555L228.66666666666666,160.73136567792315L233.33333333333334,161.10648233577575L238,161.54087795697268L242.66666666666669,162.14239225915003L247.33333333333331,162.5444872476568L252,163.07182831156143" style="fill: none;" fill="none"></path></g></g></g></g><g opacity="0.2"><g><g><g><path stroke="rgb(0, 153, 136)" stroke-width="2px" d="M23.333333333333332,-6.638696372509003L28,43.15368038415908L32.666666666666664,73.75131171941757L37.333333333333336,86.13976311683653L42,91.64211836457253L46.666666666666664,98.28482550382614L51.33333333333333,101.49856445193289L56,103.85927256941795L60.66666666666667,106.58047933876514L65.33333333333333,111.47436645627022L70,114.0438551157713L74.66666666666667,113.26362822949886L79.33333333333333,109.93720185756683L84,114.07242369651793L88.66666666666666,115.3080642670393L93.33333333333333,114.86251045763493L98,116.63492296636105L102.66666666666666,117.24010300636292L107.33333333333334,114.86074772477149L112,115.58243517577647L116.66666666666667,118.71434111893176L121.33333333333334,118.93085394799708L126,117.33811710774897L130.66666666666666,113.28176987171173L135.33333333333334,114.15915367007256L140,116.7139821946621L144.66666666666669,119.25087128579617L149.33333333333334,118.06756322085857L154,119.56591692566872L158.66666666666666,117.27817539870739L163.33333333333334,117.59390679001808L168,115.50585520267485L172.66666666666669,114.85214506089687L177.33333333333331,114.95581221580505L182,116.65732857584953L186.66666666666666,117.13804472982883L191.33333333333334,116.27802450954913L196,119.52727746963501L200.66666666666666,116.71305467188357L205.33333333333331,117.21985135972498L210,119.46312454342842L214.66666666666669,120.06251525878905L219.33333333333334,118.60716608166693L224,118.67549945414066L228.66666666666666,116.84357602894306L233.33333333333334,117.65354079008102L238,117.00444188714027L242.66666666666669,116.8819825053215L247.33333333333331,118.26636520028114L252,116.12610858678818" style="fill: none;" fill="none"></path></g><g><path stroke="rgb(238, 51, 119)" stroke-width="2px" d="M23.333333333333332,-272.88097131252295L28,15.743263483047473L32.666666666666664,58.695515811443315L37.333333333333336,79.38928750157356L42,92.45426785945891L46.666666666666664,101.04294416308403L51.33333333333333,108.38753108680247L56,113.00349105894566L60.66666666666667,117.84157735109328L65.33333333333333,121.22158025205134L70,124.27558746933936L74.66666666666667,127.00314183533192L79.33333333333333,129.18128621578217L84,131.4987392425537L88.66666666666666,133.23773455619812L93.33333333333333,135.43854829669L98,137.0248408317566L102.66666666666666,138.67789302766323L107.33333333333334,139.77829110622406L112,141.02695436030626L116.66666666666667,142.85526440292597L121.33333333333334,143.78691487759352L126,145.3350009471178L130.66666666666666,146.21594977378845L135.33333333333334,147.63409473747015L140,148.57025754451752L144.66666666666669,149.24526334553957L149.33333333333334,150.5142969340086L154,151.05296348035336L158.66666666666666,151.7026975825429L163.33333333333334,152.6326138973236L168,153.70738201588392L172.66666666666669,154.42272406816483L177.33333333333331,155.19357682019472L182,155.50238036364317L186.66666666666666,156.09477729350328L191.33333333333334,156.7619892656803L196,157.61256062239408L200.66666666666666,157.93351427465677L205.33333333333331,158.8107683956623L210,159.40312466397882L214.66666666666669,159.98698596656322L219.33333333333334,159.95883608981967L224,161.1458311676979L228.66666666666666,161.66725612059236L233.33333333333334,161.66915732249618L238,162.19247138872743L242.66666666666669,163.04466371238232L247.33333333333331,163.14762973040342L252,163.86283990740776" style="fill: none;" fill="none"></path></g></g></g></g></g></g><g transform="translate(50, 177)" clip-path="url(#clip_1)"><clipPath id="clip_1"><rect width="280" height="23"></rect></clipPath><g><g><line x1="0" y1="0" x2="0" y2="5" style="visibility: inherit;" fill="rgb(0, 0, 0)" stroke="rgb(204, 204, 204)" stroke-width="1px"></line><line x1="23.333333333333332" y1="0" x2="23.333333333333332" y2="5" style="visibility: inherit;" fill="rgb(0, 0, 0)" stroke="rgb(204, 204, 204)" stroke-width="1px"></line><line x1="46.666666666666664" y1="0" x2="46.666666666666664" y2="5" style="visibility: inherit;" fill="rgb(0, 0, 0)" stroke="rgb(204, 204, 204)" stroke-width="1px"></line><line x1="70" y1="0" x2="70" y2="5" style="visibility: inherit;" fill="rgb(0, 0, 0)" stroke="rgb(204, 204, 204)" stroke-width="1px"></line><line x1="93.33333333333333" y1="0" x2="93.33333333333333" y2="5" style="visibility: inherit;" fill="rgb(0, 0, 0)" stroke="rgb(204, 204, 204)" stroke-width="1px"></line><line x1="116.66666666666667" y1="0" x2="116.66666666666667" y2="5" style="visibility: inherit;" fill="rgb(0, 0, 0)" stroke="rgb(204, 204, 204)" stroke-width="1px"></line><line x1="140" y1="0" x2="140" y2="5" style="visibility: inherit;" fill="rgb(0, 0, 0)" stroke="rgb(204, 204, 204)" stroke-width="1px"></line><line x1="163.33333333333334" y1="0" x2="163.33333333333334" y2="5" style="visibility: inherit;" fill="rgb(0, 0, 0)" stroke="rgb(204, 204, 204)" stroke-width="1px"></line><line x1="186.66666666666666" y1="0" x2="186.66666666666666" y2="5" style="visibility: inherit;" fill="rgb(0, 0, 0)" stroke="rgb(204, 204, 204)" stroke-width="1px"></line><line x1="210" y1="0" x2="210" y2="5" style="visibility: inherit;" fill="rgb(0, 0, 0)" stroke="rgb(204, 204, 204)" stroke-width="1px"></line><line x1="233.33333333333334" y1="0" x2="233.33333333333334" y2="5" style="visibility: inherit;" fill="rgb(0, 0, 0)" stroke="rgb(204, 204, 204)" stroke-width="1px"></line><line x1="256.66666666666663" y1="0" x2="256.66666666666663" y2="5" style="visibility: inherit;" fill="rgb(0, 0, 0)" stroke="rgb(204, 204, 204)" stroke-width="1px"></line><line x1="280" y1="0" x2="280" y2="5" style="visibility: inherit;" fill="rgb(0, 0, 0)" stroke="rgb(204, 204, 204)" stroke-width="1px"></line></g><g transform="translate(0, 8)"><text x="0" y="0" dx="0em" dy="0.95em" style="text-anchor: middle; visibility: hidden; font-family: Roboto, sans-serif; font-size: 12px; font-weight: 200;" fill="rgb(255, 255, 255)" stroke="none" stroke-width="1px">-5</text><text x="23.333333333333332" y="0" dx="0em" dy="0.95em" style="text-anchor: middle; visibility: inherit; font-family: Roboto, sans-serif; font-size: 12px; font-weight: 200;" fill="rgb(255, 255, 255)" stroke="none" stroke-width="1px">0</text><text x="46.666666666666664" y="0" dx="0em" dy="0.95em" style="text-anchor: middle; visibility: inherit; font-family: Roboto, sans-serif; font-size: 12px; font-weight: 200;" fill="rgb(255, 255, 255)" stroke="none" stroke-width="1px">5</text><text x="70" y="0" dx="0em" dy="0.95em" style="text-anchor: middle; visibility: inherit; font-family: Roboto, sans-serif; font-size: 12px; font-weight: 200;" fill="rgb(255, 255, 255)" stroke="none" stroke-width="1px">10</text><text x="93.33333333333333" y="0" dx="0em" dy="0.95em" style="text-anchor: middle; visibility: inherit; font-family: Roboto, sans-serif; font-size: 12px; font-weight: 200;" fill="rgb(255, 255, 255)" stroke="none" stroke-width="1px">15</text><text x="116.66666666666667" y="0" dx="0em" dy="0.95em" style="text-anchor: middle; visibility: inherit; font-family: Roboto, sans-serif; font-size: 12px; font-weight: 200;" fill="rgb(255, 255, 255)" stroke="none" stroke-width="1px">20</text><text x="140" y="0" dx="0em" dy="0.95em" style="text-anchor: middle; visibility: inherit; font-family: Roboto, sans-serif; font-size: 12px; font-weight: 200;" fill="rgb(255, 255, 255)" stroke="none" stroke-width="1px">25</text><text x="163.33333333333334" y="0" dx="0em" dy="0.95em" style="text-anchor: middle; visibility: inherit; font-family: Roboto, sans-serif; font-size: 12px; font-weight: 200;" fill="rgb(255, 255, 255)" stroke="none" stroke-width="1px">30</text><text x="186.66666666666666" y="0" dx="0em" dy="0.95em" style="text-anchor: middle; visibility: inherit; font-family: Roboto, sans-serif; font-size: 12px; font-weight: 200;" fill="rgb(255, 255, 255)" stroke="none" stroke-width="1px">35</text><text x="210" y="0" dx="0em" dy="0.95em" style="text-anchor: middle; visibility: inherit; font-family: Roboto, sans-serif; font-size: 12px; font-weight: 200;" fill="rgb(255, 255, 255)" stroke="none" stroke-width="1px">40</text><text x="233.33333333333334" y="0" dx="0em" dy="0.95em" style="text-anchor: middle; visibility: inherit; font-family: Roboto, sans-serif; font-size: 12px; font-weight: 200;" fill="rgb(255, 255, 255)" stroke="none" stroke-width="1px">45</text><text x="256.66666666666663" y="0" dx="0em" dy="0.95em" style="text-anchor: middle; visibility: inherit; font-family: Roboto, sans-serif; font-size: 12px; font-weight: 200;" fill="rgb(255, 255, 255)" stroke="none" stroke-width="1px">50</text><text x="280" y="0" dx="0em" dy="0.95em" style="text-anchor: middle; visibility: hidden; font-family: Roboto, sans-serif; font-size: 12px; font-weight: 200;" fill="rgb(255, 255, 255)" stroke="none" stroke-width="1px">55</text></g><line x1="0" y1="0" x2="280" y2="0" fill="rgb(0, 0, 0)" stroke="rgb(204, 204, 204)" stroke-width="1px"></line></g></g></g></g></svg>