<svg viewBox="0 0 330 200" xmlns="http://www.w3.org/2000/svg"><g><g><g><g><g><line x1="50" y1="177" x2="45" y2="177" style="visibility: inherit;" fill="rgb(0, 0, 0)" stroke="rgb(204, 204, 204)" stroke-width="1px"></line><line x1="50" y1="157.33333333333331" x2="45" y2="157.33333333333331" style="visibility: inherit;" fill="rgb(0, 0, 0)" stroke="rgb(204, 204, 204)" stroke-width="1px"></line><line x1="50" y1="137.6666666666666" x2="45" y2="137.6666666666666" style="visibility: inherit;" fill="rgb(0, 0, 0)" stroke="rgb(204, 204, 204)" stroke-width="1px"></line><line x1="50" y1="117.99999999999993" x2="45" y2="117.99999999999993" style="visibility: inherit;" fill="rgb(0, 0, 0)" stroke="rgb(204, 204, 204)" stroke-width="1px"></line><line x1="50" y1="98.33333333333346" x2="45" y2="98.33333333333346" style="visibility: inherit;" fill="rgb(0, 0, 0)" stroke="rgb(204, 204, 204)" stroke-width="1px"></line><line x1="50" y1="78.66666666666676" x2="45" y2="78.66666666666676" style="visibility: inherit;" fill="rgb(0, 0, 0)" stroke="rgb(204, 204, 204)" stroke-width="1px"></line><line x1="50" y1="59.000000000000064" x2="45" y2="59.000000000000064" style="visibility: inherit;" fill="rgb(0, 0, 0)" stroke="rgb(204, 204, 204)" stroke-width="1px"></line><line x1="50" y1="39.33333333333339" x2="45" y2="39.33333333333339" style="visibility: inherit;" fill="rgb(0, 0, 0)" stroke="rgb(204, 204, 204)" stroke-width="1px"></line><line x1="50" y1="19.666666666666696" x2="45" y2="19.666666666666696" style="visibility: inherit;" fill="rgb(0, 0, 0)" stroke="rgb(204, 204, 204)" stroke-width="1px"></line><line x1="50" y1="0" x2="45" y2="0" style="visibility: inherit;" fill="rgb(0, 0, 0)" stroke="rgb(204, 204, 204)" stroke-width="1px"></line></g><g transform="translate(40, 0)"><text x="0" y="177" dx="0em" dy="0.3em" style="text-anchor: end; visibility: hidden; font-family: Roboto, sans-serif; font-size: 12px; font-weight: 200;" fill="rgb(255, 255, 255)" stroke="none" stroke-width="1px">0.9</text><text x="0" y="157.33333333333331" dx="0em" dy="0.3em" style="text-anchor: end; visibility: inherit; font-family: Roboto, sans-serif; font-size: 12px; font-weight: 200;" fill="rgb(255, 255, 255)" stroke="none" stroke-width="1px">0.91</text><text x="0" y="137.6666666666666" dx="0em" dy="0.3em" style="text-anchor: end; visibility: hidden; font-family: Roboto, sans-serif; font-size: 12px; font-weight: 200;" fill="rgb(255, 255, 255)" stroke="none" stroke-width="1px">0.92</text><text x="0" y="117.99999999999993" dx="0em" dy="0.3em" style="text-anchor: end; visibility: inherit; font-family: Roboto, sans-serif; font-size: 12px; font-weight: 200;" fill="rgb(255, 255, 255)" stroke="none" stroke-width="1px">0.93</text><text x="0" y="98.33333333333346" dx="0em" dy="0.3em" style="text-anchor: end; visibility: hidden; font-family: Roboto, sans-serif; font-size: 12px; font-weight: 200;" fill="rgb(255, 255, 255)" stroke="none" stroke-width="1px">0.94</text><text x="0" y="78.66666666666676" dx="0em" dy="0.3em" style="text-anchor: end; visibility: inherit; font-family: Roboto, sans-serif; font-size: 12px; font-weight: 200;" fill="rgb(255, 255, 255)" stroke="none" stroke-width="1px">0.95</text><text x="0" y="59.000000000000064" dx="0em" dy="0.3em" style="text-anchor: end; visibility: hidden; font-family: Roboto, sans-serif; font-size: 12px; font-weight: 200;" fill="rgb(255, 255, 255)" stroke="none" stroke-width="1px">0.96</text><text x="0" y="39.33333333333339" dx="0em" dy="0.3em" style="text-anchor: end; visibility: inherit; font-family: Roboto, sans-serif; font-size: 12px; font-weight: 200;" fill="rgb(255, 255, 255)" stroke="none" stroke-width="1px">0.97</text><text x="0" y="19.666666666666696" dx="0em" dy="0.3em" style="text-anchor: end; visibility: hidden; font-family: Roboto, sans-serif; font-size: 12px; font-weight: 200;" fill="rgb(255, 255, 255)" stroke="none" stroke-width="1px">0.98</text><text x="0" y="0" dx="0em" dy="0.3em" style="text-anchor: end; visibility: hidden; font-family: Roboto, sans-serif; font-size: 12px; font-weight: 200;" fill="rgb(255, 255, 255)" stroke="none" stroke-width="1px">0.99</text></g><line x1="50" y1="0" x2="50" y2="177" fill="rgb(0, 0, 0)" stroke="rgb(204, 204, 204)" stroke-width="1px"></line></g></g><g transform="translate(50, 0)" clip-path="url(#clip_0)"><clipPath id="clip_0"><rect width="280" height="177"></rect></clipPath><g><g><g><line x1="0" y1="0" x2="0" y2="177" fill="rgb(0, 0, 0)" stroke="rgb(189, 189, 189)" stroke-width="1px" opacity="0.25"></line><line x1="23.333333333333332" y1="0" x2="23.333333333333332" y2="177" fill="rgb(0, 0, 0)" stroke="rgb(189, 189, 189)" stroke-width="1px" opacity="0.25"></line><line x1="46.666666666666664" y1="0" x2="46.666666666666664" y2="177" fill="rgb(0, 0, 0)" stroke="rgb(189, 189, 189)" stroke-width="1px" opacity="0.25"></line><line x1="70" y1="0" x2="70" y2="177" fill="rgb(0, 0, 0)" stroke="rgb(189, 189, 189)" stroke-width="1px" opacity="0.25"></line><line x1="93.33333333333333" y1="0" x2="93.33333333333333" y2="177" fill="rgb(0, 0, 0)" stroke="rgb(189, 189, 189)" stroke-width="1px" opacity="0.25"></line><line x1="116.66666666666667" y1="0" x2="116.66666666666667" y2="177" fill="rgb(0, 0, 0)" stroke="rgb(189, 189, 189)" stroke-width="1px" opacity="0.25"></line><line x1="140" y1="0" x2="140" y2="177" fill="rgb(0, 0, 0)" stroke="rgb(189, 189, 189)" stroke-width="1px" opacity="0.25"></line><line x1="163.33333333333334" y1="0" x2="163.33333333333334" y2="177" fill="rgb(0, 0, 0)" stroke="rgb(189, 189, 189)" stroke-width="1px" opacity="0.25"></line><line x1="186.66666666666666" y1="0" x2="186.66666666666666" y2="177" fill="rgb(0, 0, 0)" stroke="rgb(189, 189, 189)" stroke-width="1px" opacity="0.25"></line><line x1="210" y1="0" x2="210" y2="177" fill="rgb(0, 0, 0)" stroke="rgb(189, 189, 189)" stroke-width="1px" opacity="0.25"></line><line x1="233.33333333333334" y1="0" x2="233.33333333333334" y2="177" fill="rgb(0, 0, 0)" stroke="rgb(189, 189, 189)" stroke-width="1px" opacity="0.25"></line><line x1="256.66666666666663" y1="0" x2="256.66666666666663" y2="177" fill="rgb(0, 0, 0)" stroke="rgb(189, 189, 189)" stroke-width="1px" opacity="0.25"></line><line x1="280" y1="0" x2="280" y2="177" fill="rgb(0, 0, 0)" stroke="rgb(189, 189, 189)" stroke-width="1px" opacity="0.25"></line></g><g><line x1="0" y1="177" x2="280" y2="177" fill="rgb(0, 0, 0)" stroke="rgb(189, 189, 189)" stroke-width="1px" opacity="0.25"></line><line x1="0" y1="157.33333333333331" x2="280" y2="157.33333333333331" fill="rgb(0, 0, 0)" stroke="rgb(189, 189, 189)" stroke-width="1px" opacity="0.25"></line><line x1="0" y1="137.6666666666666" x2="280" y2="137.6666666666666" fill="rgb(0, 0, 0)" stroke="rgb(189, 189, 189)" stroke-width="1px" opacity="0.25"></line><line x1="0" y1="117.99999999999993" x2="280" y2="117.99999999999993" fill="rgb(0, 0, 0)" stroke="rgb(189, 189, 189)" stroke-width="1px" opacity="0.25"></line><line x1="0" y1="98.33333333333346" x2="280" y2="98.33333333333346" fill="rgb(0, 0, 0)" stroke="rgb(189, 189, 189)" stroke-width="1px" opacity="0.25"></line><line x1="0" y1="78.66666666666676" x2="280" y2="78.66666666666676" fill="rgb(0, 0, 0)" stroke="rgb(189, 189, 189)" stroke-width="1px" opacity="0.25"></line><line x1="0" y1="59.000000000000064" x2="280" y2="59.000000000000064" fill="rgb(0, 0, 0)" stroke="rgb(189, 189, 189)" stroke-width="1px" opacity="0.25"></line><line x1="0" y1="39.33333333333339" x2="280" y2="39.33333333333339" fill="rgb(0, 0, 0)" stroke="rgb(189, 189, 189)" stroke-width="1px" opacity="0.25"></line><line x1="0" y1="19.666666666666696" x2="280" y2="19.666666666666696" fill="rgb(0, 0, 0)" stroke="rgb(189, 189, 189)" stroke-width="1px" opacity="0.25"></line><line x1="0" y1="0" x2="280" y2="0" fill="rgb(0, 0, 0)" stroke="rgb(189, 189, 189)" stroke-width="1px" opacity="0.25"></line></g></g></g><g><g><line x1="0" y1="1947.0000000000007" x2="280" y2="1947.0000000000007" fill="rgb(0, 0, 0)" stroke="rgb(153, 153, 153)" stroke-width="1.5px"></line></g></g><g><g><line x1="23.333333333333332" y1="0" x2="23.333333333333332" y2="177" fill="rgb(0, 0, 0)" stroke="rgb(153, 153, 153)" stroke-width="1.5px"></line></g></g><g><g><g><g><g><path stroke="rgb(255, 112, 67)" stroke-width="2px" d="M23.333333333333332,170.93612861633304L28,157.92743848760904L32.666666666666664,143.242236807233L37.333333333333336,131.86787107060948L42,121.30371547804222L46.666666666666664,112.90365974804068L51.33333333333333,104.61462307299084L56,98.99210083426954L60.66666666666667,93.82539257618542L65.33333333333333,86.80163658768832L70,81.89093133256642L74.66666666666667,78.0361749610868L79.33333333333333,74.0220077482542L84,70.37032953781922L88.66666666666666,66.93500992636494L93.33333333333333,63.36666445256108L98,60.439511829954334L102.66666666666666,59.011324699613986L107.33333333333334,57.82673126298702L112,55.280391104304336L116.66666666666667,54.99823297423638L121.33333333333334,53.911124941274394L126,52.537757849795945L130.66666666666666,52.04154699924631L135.33333333333334,50.760463357947216L140,49.07405579170083L144.66666666666669,47.931111350587045L149.33333333333334,47.37644712337182L154,46.846996320164486L158.66666666666666,46.6604276003507L163.33333333333334,46.1551346288673L168,44.40974730507774L172.66666666666669,44.1491715759157L177.33333333333331,43.66507211630052L182,43.046811534095156L186.66666666666666,43.200308519075975L191.33333333333334,41.653495928492255L196,40.65985757588688L200.66666666666666,40.91592880035477L205.33333333333331,40.41401660342469L210,39.91616998413718L214.66666666666669,39.420809600310484L219.33333333333334,38.46803843960871L224,37.63417252676575L228.66666666666666,39.42827179118886L233.33333333333334,38.734718970920575L238,37.99083325808398L242.66666666666669,38.003404348364555L247.33333333333331,37.5520444845721L252,36.363470419371005" style="fill: none;" fill="none"></path></g><g><path stroke="rgb(187, 187, 187)" stroke-width="2px" d="M32.666666666666664,189.54253758054196L37.333333333333336,163.3489009235422L42,144.07084999932704L46.666666666666664,129.0235385743897L51.33333333333333,116.68054797393471L56,106.56592164617709L60.66666666666667,98.00775293519864L65.33333333333333,90.65293626858022L70,84.22899657317087L74.66666666666667,78.10655684611127L79.33333333333333,72.7185572960829L84,68.26015296505635L88.66666666666666,64.32478360401618L93.33333333333333,60.24343511461286L98,56.94301141997431L102.66666666666666,53.84854413238304L107.33333333333334,51.18894828455461L112,48.249360102112455L116.66666666666667,46.07595102032375L121.33333333333334,43.36248146712419L126,41.17718946828014L130.66666666666666,39.0957293820285L135.33333333333334,37.076612059503404L140,35.75040779239958L144.66666666666669,34.00415215813237L149.33333333333334,32.25165801068524L154,30.675708695651867L158.66666666666666,29.33683456648168L163.33333333333334,27.451828088679576L168,26.632214150953715L172.66666666666669,25.33737810754358L177.33333333333331,23.98688352393303L182,23.01266289637945L186.66666666666666,22.05118995838936L191.33333333333334,21.06459022904929L196,20.144876373445154L200.66666666666666,19.330797956144448L205.33333333333331,18.186795975679072L210,17.303742375806443L214.66666666666669,16.3969696478664L219.33333333333334,15.72180440306758L224,14.988904346577977L228.66666666666666,14.418062704475775L233.33333333333334,13.108613024673117L238,12.4376805685832L242.66666666666669,12.100671899085318L247.33333333333331,11.472339581500002L252,10.456196406107997" style="fill: none;" fill="none"></path></g></g></g></g><g opacity="0.2"><g><g><g><path stroke="rgb(255, 112, 67)" stroke-width="2px" d="M23.333333333333332,170.93612861633304L28,150.122224410375L32.666666666666664,129.14444319407147L37.333333333333336,118.49161696434024L42,107.51115393638614L46.666666666666664,101.28335865338646L51.33333333333333,92.7611680030823L56,90.79440943400066L60.66666666666667,86.20550147692364L65.33333333333333,76.37217752138774L70,74.56941318511963L74.66666666666667,72.27501781781514L79.33333333333333,68.01386388142903L84,64.89996623992921L88.66666666666666,61.786068598429374L93.33333333333333,58.016662915547684L98,56.050021568934135L102.66666666666666,56.86940662066142L107.33333333333334,56.050021568934135L112,51.461113611857094L116.66666666666667,54.575011253356934L121.33333333333334,52.2804986635844L126,50.47773432731629L130.66666666666666,51.29723660151165L135.33333333333334,48.838847001393624L140,46.54445163408914L144.66666666666669,46.21669761339823L149.33333333333334,46.54445163408914L154,46.052820603052766L158.66666666666666,46.3805746237437L163.33333333333334,45.397195339202874L168,41.79166666666666L172.66666666666669,43.75830801328023L177.33333333333331,42.93892296155294L182,42.11942068735759L186.66666666666666,43.43055399258932L191.33333333333334,39.33327706654865L196,39.16940005620321L200.66666666666666,41.30003563563028L205.33333333333331,39.661148309707634L210,39.16940005620321L214.66666666666669,38.67776902516683L219.33333333333334,37.03888169924417L224,36.38337365786235L228.66666666666666,42.11942068735759L233.33333333333334,37.694389740626015L238,36.87500468889873L242.66666666666669,38.02226098378499L247.33333333333331,36.87500468889873L252,34.58060932159424" style="fill: none;" fill="none"></path></g><g><path stroke="rgb(187, 187, 187)" stroke-width="2px" d="M23.333333333333332,324.90971597035735L28,173.27155184745794L32.666666666666664,150.57294480005902L37.333333333333336,132.54518421490988L42,118.90142671267193L46.666666666666664,108.20768984158836L51.33333333333333,99.02987392743431L56,91.8186993598938L60.66666666666667,85.38611642519635L65.33333333333333,79.73189067840576L70,74.65135169029237L74.66666666666667,68.95621530214947L79.33333333333333,64.65415072441102L84,61.58128094673157L88.66666666666666,58.42635544141134L93.33333333333333,54.1242908636729L98,51.993772506713874L102.66666666666666,49.207628885904946L107.33333333333334,47.199959675470986L112,43.84024651845295L116.66666666666667,42.815956592559814L121.33333333333334,39.29236642519632L126,37.89929461479186L130.66666666666666,35.973563909530625L135.33333333333334,34.04795042673746L140,33.76110704739888L144.66666666666669,31.384773174921673L149.33333333333334,29.6229194800059L154,28.31178617477417L158.66666666666666,27.328524112701416L163.33333333333334,24.62431899706521L168,25.40279340744018L172.66666666666669,23.39512419700622L177.33333333333331,21.961141745249424L182,21.551331996917703L186.66666666666666,20.60898057619729L191.33333333333334,19.58469065030415L196,18.765305598576862L200.66666666666666,18.109680334726953L205.33333333333331,16.470793008804307L210,15.979161977767932L214.66666666666669,15.036810557047515L219.33333333333334,14.709056536356604L224,13.889554262161248L228.66666666666666,13.561800241470317L233.33333333333334,11.144438505172722L238,11.431281884511296L242.66666666666669,11.595158894856763L247.33333333333331,10.529841105143218L252,8.93198164304096" style="fill: none;" fill="none"></path></g></g></g></g></g></g><g transform="translate(50, 177)" clip-path="url(#clip_1)"><clipPath id="clip_1"><rect width="280" height="23"></rect></clipPath><g><g><line x1="0" y1="0" x2="0" y2="5" style="visibility: inherit;" fill="rgb(0, 0, 0)" stroke="rgb(204, 204, 204)" stroke-width="1px"></line><line x1="23.333333333333332" y1="0" x2="23.333333333333332" y2="5" style="visibility: inherit;" fill="rgb(0, 0, 0)" stroke="rgb(204, 204, 204)" stroke-width="1px"></line><line x1="46.666666666666664" y1="0" x2="46.666666666666664" y2="5" style="visibility: inherit;" fill="rgb(0, 0, 0)" stroke="rgb(204, 204, 204)" stroke-width="1px"></line><line x1="70" y1="0" x2="70" y2="5" style="visibility: inherit;" fill="rgb(0, 0, 0)" stroke="rgb(204, 204, 204)" stroke-width="1px"></line><line x1="93.33333333333333" y1="0" x2="93.33333333333333" y2="5" style="visibility: inherit;" fill="rgb(0, 0, 0)" stroke="rgb(204, 204, 204)" stroke-width="1px"></line><line x1="116.66666666666667" y1="0" x2="116.66666666666667" y2="5" style="visibility: inherit;" fill="rgb(0, 0, 0)" stroke="rgb(204, 204, 204)" stroke-width="1px"></line><line x1="140" y1="0" x2="140" y2="5" style="visibility: inherit;" fill="rgb(0, 0, 0)" stroke="rgb(204, 204, 204)" stroke-width="1px"></line><line x1="163.33333333333334" y1="0" x2="163.33333333333334" y2="5" style="visibility: inherit;" fill="rgb(0, 0, 0)" stroke="rgb(204, 204, 204)" stroke-width="1px"></line><line x1="186.66666666666666" y1="0" x2="186.66666666666666" y2="5" style="visibility: inherit;" fill="rgb(0, 0, 0)" stroke="rgb(204, 204, 204)" stroke-width="1px"></line><line x1="210" y1="0" x2="210" y2="5" style="visibility: inherit;" fill="rgb(0, 0, 0)" stroke="rgb(204, 204, 204)" stroke-width="1px"></line><line x1="233.33333333333334" y1="0" x2="233.33333333333334" y2="5" style="visibility: inherit;" fill="rgb(0, 0, 0)" stroke="rgb(204, 204, 204)" stroke-width="1px"></line><line x1="256.66666666666663" y1="0" x2="256.66666666666663" y2="5" style="visibility: inherit;" fill="rgb(0, 0, 0)" stroke="rgb(204, 204, 204)" stroke-width="1px"></line><line x1="280" y1="0" x2="280" y2="5" style="visibility: inherit;" fill="rgb(0, 0, 0)" stroke="rgb(204, 204, 204)" stroke-width="1px"></line></g><g transform="translate(0, 8)"><text x="0" y="0" dx="0em" dy="0.95em" style="text-anchor: middle; visibility: hidden; font-family: Roboto, sans-serif; font-size: 12px; font-weight: 200;" fill="rgb(255, 255, 255)" stroke="none" stroke-width="1px">-5</text><text x="23.333333333333332" y="0" dx="0em" dy="0.95em" style="text-anchor: middle; visibility: inherit; font-family: Roboto, sans-serif; font-size: 12px; font-weight: 200;" fill="rgb(255, 255, 255)" stroke="none" stroke-width="1px">0</text><text x="46.666666666666664" y="0" dx="0em" dy="0.95em" style="text-anchor: middle; visibility: inherit; font-family: Roboto, sans-serif; font-size: 12px; font-weight: 200;" fill="rgb(255, 255, 255)" stroke="none" stroke-width="1px">5</text><text x="70" y="0" dx="0em" dy="0.95em" style="text-anchor: middle; visibility: inherit; font-family: Roboto, sans-serif; font-size: 12px; font-weight: 200;" fill="rgb(255, 255, 255)" stroke="none" stroke-width="1px">10</text><text x="93.33333333333333" y="0" dx="0em" dy="0.95em" style="text-anchor: middle; visibility: inherit; font-family: Roboto, sans-serif; font-size: 12px; font-weight: 200;" fill="rgb(255, 255, 255)" stroke="none" stroke-width="1px">15</text><text x="116.66666666666667" y="0" dx="0em" dy="0.95em" style="text-anchor: middle; visibility: inherit; font-family: Roboto, sans-serif; font-size: 12px; font-weight: 200;" fill="rgb(255, 255, 255)" stroke="none" stroke-width="1px">20</text><text x="140" y="0" dx="0em" dy="0.95em" style="text-anchor: middle; visibility: inherit; font-family: Roboto, sans-serif; font-size: 12px; font-weight: 200;" fill="rgb(255, 255, 255)" stroke="none" stroke-width="1px">25</text><text x="163.33333333333334" y="0" dx="0em" dy="0.95em" style="text-anchor: middle; visibility: inherit; font-family: Roboto, sans-serif; font-size: 12px; font-weight: 200;" fill="rgb(255, 255, 255)" stroke="none" stroke-width="1px">30</text><text x="186.66666666666666" y="0" dx="0em" dy="0.95em" style="text-anchor: middle; visibility: inherit; font-family: Roboto, sans-serif; font-size: 12px; font-weight: 200;" fill="rgb(255, 255, 255)" stroke="none" stroke-width="1px">35</text><text x="210" y="0" dx="0em" dy="0.95em" style="text-anchor: middle; visibility: inherit; font-family: Roboto, sans-serif; font-size: 12px; font-weight: 200;" fill="rgb(255, 255, 255)" stroke="none" stroke-width="1px">40</text><text x="233.33333333333334" y="0" dx="0em" dy="0.95em" style="text-anchor: middle; visibility: inherit; font-family: Roboto, sans-serif; font-size: 12px; font-weight: 200;" fill="rgb(255, 255, 255)" stroke="none" stroke-width="1px">45</text><text x="256.66666666666663" y="0" dx="0em" dy="0.95em" style="text-anchor: middle; visibility: inherit; font-family: Roboto, sans-serif; font-size: 12px; font-weight: 200;" fill="rgb(255, 255, 255)" stroke="none" stroke-width="1px">50</text><text x="280" y="0" dx="0em" dy="0.95em" style="text-anchor: middle; visibility: hidden; font-family: Roboto, sans-serif; font-size: 12px; font-weight: 200;" fill="rgb(255, 255, 255)" stroke="none" stroke-width="1px">55</text></g><line x1="0" y1="0" x2="280" y2="0" fill="rgb(0, 0, 0)" stroke="rgb(204, 204, 204)" stroke-width="1px"></line></g></g></g></g></svg>