<svg viewBox="0 0 330 200" xmlns="http://www.w3.org/2000/svg"><g><g><g><g><g><line x1="50" y1="177" x2="45" y2="177" style="visibility: inherit;" fill="rgb(0, 0, 0)" stroke="rgb(204, 204, 204)" stroke-width="1px"></line><line x1="50" y1="154.875" x2="45" y2="154.875" style="visibility: inherit;" fill="rgb(0, 0, 0)" stroke="rgb(204, 204, 204)" stroke-width="1px"></line><line x1="50" y1="132.75" x2="45" y2="132.75" style="visibility: inherit;" fill="rgb(0, 0, 0)" stroke="rgb(204, 204, 204)" stroke-width="1px"></line><line x1="50" y1="110.625" x2="45" y2="110.625" style="visibility: inherit;" fill="rgb(0, 0, 0)" stroke="rgb(204, 204, 204)" stroke-width="1px"></line><line x1="50" y1="88.5" x2="45" y2="88.5" style="visibility: inherit;" fill="rgb(0, 0, 0)" stroke="rgb(204, 204, 204)" stroke-width="1px"></line><line x1="50" y1="66.375" x2="45" y2="66.375" style="visibility: inherit;" fill="rgb(0, 0, 0)" stroke="rgb(204, 204, 204)" stroke-width="1px"></line><line x1="50" y1="44.25000000000002" x2="45" y2="44.25000000000002" style="visibility: inherit;" fill="rgb(0, 0, 0)" stroke="rgb(204, 204, 204)" stroke-width="1px"></line><line x1="50" y1="22.12500000000002" x2="45" y2="22.12500000000002" style="visibility: inherit;" fill="rgb(0, 0, 0)" stroke="rgb(204, 204, 204)" stroke-width="1px"></line><line x1="50" y1="0" x2="45" y2="0" style="visibility: inherit;" fill="rgb(0, 0, 0)" stroke="rgb(204, 204, 204)" stroke-width="1px"></line></g><g transform="translate(40, 0)"><text x="0" y="177" dx="0em" dy="0.3em" style="text-anchor: end; visibility: hidden; font-family: Roboto, sans-serif; font-size: 12px; font-weight: 200;" fill="rgb(255, 255, 255)" stroke="none" stroke-width="1px">0</text><text x="0" y="154.875" dx="0em" dy="0.3em" style="text-anchor: end; visibility: inherit; font-family: Roboto, sans-serif; font-size: 12px; font-weight: 200;" fill="rgb(255, 255, 255)" stroke="none" stroke-width="1px">0.05</text><text x="0" y="132.75" dx="0em" dy="0.3em" style="text-anchor: end; visibility: hidden; font-family: Roboto, sans-serif; font-size: 12px; font-weight: 200;" fill="rgb(255, 255, 255)" stroke="none" stroke-width="1px">0.1</text><text x="0" y="110.625" dx="0em" dy="0.3em" style="text-anchor: end; visibility: inherit; font-family: Roboto, sans-serif; font-size: 12px; font-weight: 200;" fill="rgb(255, 255, 255)" stroke="none" stroke-width="1px">0.15</text><text x="0" y="88.5" dx="0em" dy="0.3em" style="text-anchor: end; visibility: hidden; font-family: Roboto, sans-serif; font-size: 12px; font-weight: 200;" fill="rgb(255, 255, 255)" stroke="none" stroke-width="1px">0.2</text><text x="0" y="66.375" dx="0em" dy="0.3em" style="text-anchor: end; visibility: inherit; font-family: Roboto, sans-serif; font-size: 12px; font-weight: 200;" fill="rgb(255, 255, 255)" stroke="none" stroke-width="1px">0.25</text><text x="0" y="44.25000000000002" dx="0em" dy="0.3em" style="text-anchor: end; visibility: hidden; font-family: Roboto, sans-serif; font-size: 12px; font-weight: 200;" fill="rgb(255, 255, 255)" stroke="none" stroke-width="1px">0.3</text><text x="0" y="22.12500000000002" dx="0em" dy="0.3em" style="text-anchor: end; visibility: inherit; font-family: Roboto, sans-serif; font-size: 12px; font-weight: 200;" fill="rgb(255, 255, 255)" stroke="none" stroke-width="1px">0.35</text><text x="0" y="0" dx="0em" dy="0.3em" style="text-anchor: end; visibility: hidden; font-family: Roboto, sans-serif; font-size: 12px; font-weight: 200;" fill="rgb(255, 255, 255)" stroke="none" stroke-width="1px">0.4</text></g><line x1="50" y1="0" x2="50" y2="177" fill="rgb(0, 0, 0)" stroke="rgb(204, 204, 204)" stroke-width="1px"></line></g></g><g transform="translate(50, 0)" clip-path="url(#clip_0)"><clipPath id="clip_0"><rect width="280" height="177"></rect></clipPath><g><g><g><line x1="0" y1="0" x2="0" y2="177" fill="rgb(0, 0, 0)" stroke="rgb(189, 189, 189)" stroke-width="1px" opacity="0.25"></line><line x1="23.333333333333332" y1="0" x2="23.333333333333332" y2="177" fill="rgb(0, 0, 0)" stroke="rgb(189, 189, 189)" stroke-width="1px" opacity="0.25"></line><line x1="46.666666666666664" y1="0" x2="46.666666666666664" y2="177" fill="rgb(0, 0, 0)" stroke="rgb(189, 189, 189)" stroke-width="1px" opacity="0.25"></line><line x1="70" y1="0" x2="70" y2="177" fill="rgb(0, 0, 0)" stroke="rgb(189, 189, 189)" stroke-width="1px" opacity="0.25"></line><line x1="93.33333333333333" y1="0" x2="93.33333333333333" y2="177" fill="rgb(0, 0, 0)" stroke="rgb(189, 189, 189)" stroke-width="1px" opacity="0.25"></line><line x1="116.66666666666667" y1="0" x2="116.66666666666667" y2="177" fill="rgb(0, 0, 0)" stroke="rgb(189, 189, 189)" stroke-width="1px" opacity="0.25"></line><line x1="140" y1="0" x2="140" y2="177" fill="rgb(0, 0, 0)" stroke="rgb(189, 189, 189)" stroke-width="1px" opacity="0.25"></line><line x1="163.33333333333334" y1="0" x2="163.33333333333334" y2="177" fill="rgb(0, 0, 0)" stroke="rgb(189, 189, 189)" stroke-width="1px" opacity="0.25"></line><line x1="186.66666666666666" y1="0" x2="186.66666666666666" y2="177" fill="rgb(0, 0, 0)" stroke="rgb(189, 189, 189)" stroke-width="1px" opacity="0.25"></line><line x1="210" y1="0" x2="210" y2="177" fill="rgb(0, 0, 0)" stroke="rgb(189, 189, 189)" stroke-width="1px" opacity="0.25"></line><line x1="233.33333333333334" y1="0" x2="233.33333333333334" y2="177" fill="rgb(0, 0, 0)" stroke="rgb(189, 189, 189)" stroke-width="1px" opacity="0.25"></line><line x1="256.66666666666663" y1="0" x2="256.66666666666663" y2="177" fill="rgb(0, 0, 0)" stroke="rgb(189, 189, 189)" stroke-width="1px" opacity="0.25"></line><line x1="280" y1="0" x2="280" y2="177" fill="rgb(0, 0, 0)" stroke="rgb(189, 189, 189)" stroke-width="1px" opacity="0.25"></line></g><g><line x1="0" y1="177" x2="280" y2="177" fill="rgb(0, 0, 0)" stroke="rgb(189, 189, 189)" stroke-width="1px" opacity="0.25"></line><line x1="0" y1="154.875" x2="280" y2="154.875" fill="rgb(0, 0, 0)" stroke="rgb(189, 189, 189)" stroke-width="1px" opacity="0.25"></line><line x1="0" y1="132.75" x2="280" y2="132.75" fill="rgb(0, 0, 0)" stroke="rgb(189, 189, 189)" stroke-width="1px" opacity="0.25"></line><line x1="0" y1="110.625" x2="280" y2="110.625" fill="rgb(0, 0, 0)" stroke="rgb(189, 189, 189)" stroke-width="1px" opacity="0.25"></line><line x1="0" y1="88.5" x2="280" y2="88.5" fill="rgb(0, 0, 0)" stroke="rgb(189, 189, 189)" stroke-width="1px" opacity="0.25"></line><line x1="0" y1="66.375" x2="280" y2="66.375" fill="rgb(0, 0, 0)" stroke="rgb(189, 189, 189)" stroke-width="1px" opacity="0.25"></line><line x1="0" y1="44.25000000000002" x2="280" y2="44.25000000000002" fill="rgb(0, 0, 0)" stroke="rgb(189, 189, 189)" stroke-width="1px" opacity="0.25"></line><line x1="0" y1="22.12500000000002" x2="280" y2="22.12500000000002" fill="rgb(0, 0, 0)" stroke="rgb(189, 189, 189)" stroke-width="1px" opacity="0.25"></line><line x1="0" y1="0" x2="280" y2="0" fill="rgb(0, 0, 0)" stroke="rgb(189, 189, 189)" stroke-width="1px" opacity="0.25"></line></g></g></g><g><g><line x1="0" y1="177" x2="280" y2="177" fill="rgb(0, 0, 0)" stroke="rgb(153, 153, 153)" stroke-width="1.5px"></line></g></g><g><g><line x1="23.333333333333332" y1="0" x2="23.333333333333332" y2="177" fill="rgb(0, 0, 0)" stroke="rgb(153, 153, 153)" stroke-width="1.5px"></line></g></g><g><g><g><g><g><path stroke="rgb(255, 112, 67)" stroke-width="2px" d="M23.333333333333332,16.4845519959927L28,31.662654530256987L32.666666666666664,44.62663509012487L37.333333333333336,55.24119581854628L42,63.53102487997824L46.666666666666664,70.43035466682915L51.33333333333333,76.18334913011365L56,81.53799016710403L60.66666666666667,85.07089816479747L65.33333333333333,90.3417545724998L70,94.19042141554034L74.66666666666667,97.83709452752846L79.33333333333333,101.00959567289947L84,103.56603871249094L88.66666666666666,106.07191279059394L93.33333333333333,108.47938367136696L98,110.56824190180588L102.66666666666666,112.17779923022421L107.33333333333334,113.59635058880937L112,115.1809484618293L116.66666666666667,116.66353212648042L121.33333333333334,117.17496484054641L126,118.65250206108509L130.66666666666666,119.37229941089045L135.33333333333334,120.63189184576783L140,121.78628619334144L144.66666666666669,122.6025718837265L149.33333333333334,123.38296176370847L154,124.20240706969686L158.66666666666666,124.50718697055393L163.33333333333334,124.44995611381887L168,125.48505497004646L172.66666666666669,125.69507479941024L177.33333333333331,126.23261669045131L182,126.6970119214345L186.66666666666666,127.19824397403154L191.33333333333334,127.99261610307059L196,128.42667399417263L200.66666666666666,128.64081259310808L205.33333333333331,129.28152174582632L210,129.6094386808555L214.66666666666669,129.8460718816156L219.33333333333334,130.3024820240048L224,130.55954961791366L228.66666666666666,130.32829500323948L233.33333333333334,130.49815411918277L238,131.03776231292667L242.66666666666669,131.29037787994582L247.33333333333331,131.5323675035321L252,131.8835201283652" style="fill: none;" fill="none"></path></g><g><path stroke="rgb(187, 187, 187)" stroke-width="2px" d="M28,-32.30025204084809L32.666666666666664,6.367758186191957L37.333333333333336,29.531799799762705L42,45.755672261930684L46.666666666666664,58.07221665526575L51.33333333333333,67.9811111305473L56,76.15817170406478L60.66666666666667,83.09864975333709L65.33333333333333,89.03035736321405L70,94.2598475867726L74.66666666666667,98.76297091141826L79.33333333333333,102.84766846978368L84,106.4470566382825L88.66666666666666,109.677589242948L93.33333333333333,112.62032328081683L98,115.32455378097946L102.66666666666666,117.74801750218484L107.33333333333334,120.06618406138921L112,122.16603111033126L116.66666666666667,124.06361874314672L121.33333333333334,125.90089898728627L126,127.59016852895424L130.66666666666666,129.16129962098412L135.33333333333334,130.67048493531144L140,132.04513388076856L144.66666666666669,133.40527921172577L149.33333333333334,134.6431741254945L154,135.85617272173062L158.66666666666666,137.00429643659984L163.33333333333334,138.08334334184133L168,139.0529216196276L172.66666666666669,140.03766225755555L177.33333333333331,140.98820566862514L182,141.92562104274816L186.66666666666666,142.75736089318568L191.33333333333334,143.61912511089042L196,144.37628895503454L200.66666666666666,145.1353892683739L205.33333333333331,145.8951978127238L210,146.63264588564635L214.66666666666669,147.3108932173536L219.33333333333334,147.93509426559862L224,148.57307598137498L228.66666666666666,149.1651649216054L233.33333333333334,149.7626949281909L238,150.37384178380975L242.66666666666669,150.91329640011693L247.33333333333331,151.39621581948873L252,151.88832348923532" style="fill: none;" fill="none"></path></g></g></g></g><g opacity="0.2"><g><g><g><path stroke="rgb(255, 112, 67)" stroke-width="2px" d="M23.333333333333332,16.48455199599266L28,40.76951605081558L32.666666666666664,57.072056427598L37.333333333333336,67.72391923516989L42,74.35422570258379L46.666666666666664,79.97461152076721L51.33333333333333,84.41022326052189L56,89.34510820358992L60.66666666666667,90.2812512293458L65.33333333333333,98.16836205124855L70,99.92851455509663L74.66666666666667,103.28725916147232L79.33333333333333,105.75798862427473L84,107.39569493383169L88.66666666666666,109.82777834683657L93.33333333333333,112.08889205753803L98,113.7006453126669L102.66666666666666,114.59172655642033L107.33333333333334,115.72396152466536L112,117.55770043283701L116.66666666666667,118.88732631504536L121.33333333333334,117.94209708273411L126,120.86877872049809L130.66666666666666,120.45198690891266L135.33333333333334,122.52127154543996L140,123.51787279173732L144.66666666666669,123.82699833065271L149.33333333333334,124.55354538559914L154,125.4315742738545L158.66666666666666,124.96435665339231L163.33333333333334,124.36410984769464L168,127.03770304843783L172.66666666666669,126.01010451838374L177.33333333333331,127.0389294885099L182,127.39360474795103L186.66666666666666,127.95009204000235L191.33333333333334,129.18417428433895L196,129.0777608267963L200.66666666666666,128.96202049031854L205.33333333333331,130.24258547276258L210,130.10131408274174L214.66666666666669,130.20102168247104L219.33333333333334,130.98709723725915L224,130.94515100866556L228.66666666666666,129.98141308128834L233.33333333333334,130.75294279307127L238,131.84717460349202L242.66666666666669,131.6693012304604L247.33333333333331,131.89535193890333L252,132.4102490656078" style="fill: none;" fill="none"></path></g><g><path stroke="rgb(187, 187, 187)" stroke-width="2px" d="M23.333333333333332,-123.34480825066566L28,22.32648168504238L32.666666666666664,43.48904800415039L37.333333333333336,56.772712737321854L42,66.93756014853716L46.666666666666664,75.1104315072298L51.33333333333333,82.15098877251148L56,88.08040452003479L60.66666666666667,93.33450675755739L65.33333333333333,97.83825185894966L70,102.05665183067322L74.66666666666667,105.49315010011196L79.33333333333333,108.96137756109238L84,111.83908731490374L88.66666666666666,114.51959078013897L93.33333333333333,117.03234889358282L98,119.37975519150496L102.66666666666666,121.38259776681662L107.33333333333334,123.54308075085282L112,125.31560974940658L116.66666666666667,126.90989612415433L121.33333333333334,128.6567588970065L126,130.1240394897759L130.66666666666666,131.51797764748335L135.33333333333334,132.9342521801591L140,134.1071014367044L144.66666666666669,135.44549372792244L149.33333333333334,136.5000145956874L154,137.67566949874163L158.66666666666666,138.72648137435317L163.33333333333334,139.70191334187984L168,140.50728884339333L172.66666666666669,141.51477309688926L177.33333333333331,142.414020717144L182,143.3317440636456L186.66666666666666,144.00497064739466L191.33333333333334,144.9117714241147L196,145.51203471422195L200.66666666666666,146.27403973415494L205.33333333333331,147.03491062670946L210,147.7388179935515L214.66666666666669,148.32826421409845L219.33333333333334,148.8713958375156L224,149.5300485547632L228.66666666666666,150.05329833179712L233.33333333333334,150.658989937976L238,151.29056206718087L242.66666666666669,151.7224783245474L247.33333333333331,152.1205949485302L252,152.62648499384522" style="fill: none;" fill="none"></path></g></g></g></g></g></g><g transform="translate(50, 177)" clip-path="url(#clip_1)"><clipPath id="clip_1"><rect width="280" height="23"></rect></clipPath><g><g><line x1="0" y1="0" x2="0" y2="5" style="visibility: inherit;" fill="rgb(0, 0, 0)" stroke="rgb(204, 204, 204)" stroke-width="1px"></line><line x1="23.333333333333332" y1="0" x2="23.333333333333332" y2="5" style="visibility: inherit;" fill="rgb(0, 0, 0)" stroke="rgb(204, 204, 204)" stroke-width="1px"></line><line x1="46.666666666666664" y1="0" x2="46.666666666666664" y2="5" style="visibility: inherit;" fill="rgb(0, 0, 0)" stroke="rgb(204, 204, 204)" stroke-width="1px"></line><line x1="70" y1="0" x2="70" y2="5" style="visibility: inherit;" fill="rgb(0, 0, 0)" stroke="rgb(204, 204, 204)" stroke-width="1px"></line><line x1="93.33333333333333" y1="0" x2="93.33333333333333" y2="5" style="visibility: inherit;" fill="rgb(0, 0, 0)" stroke="rgb(204, 204, 204)" stroke-width="1px"></line><line x1="116.66666666666667" y1="0" x2="116.66666666666667" y2="5" style="visibility: inherit;" fill="rgb(0, 0, 0)" stroke="rgb(204, 204, 204)" stroke-width="1px"></line><line x1="140" y1="0" x2="140" y2="5" style="visibility: inherit;" fill="rgb(0, 0, 0)" stroke="rgb(204, 204, 204)" stroke-width="1px"></line><line x1="163.33333333333334" y1="0" x2="163.33333333333334" y2="5" style="visibility: inherit;" fill="rgb(0, 0, 0)" stroke="rgb(204, 204, 204)" stroke-width="1px"></line><line x1="186.66666666666666" y1="0" x2="186.66666666666666" y2="5" style="visibility: inherit;" fill="rgb(0, 0, 0)" stroke="rgb(204, 204, 204)" stroke-width="1px"></line><line x1="210" y1="0" x2="210" y2="5" style="visibility: inherit;" fill="rgb(0, 0, 0)" stroke="rgb(204, 204, 204)" stroke-width="1px"></line><line x1="233.33333333333334" y1="0" x2="233.33333333333334" y2="5" style="visibility: inherit;" fill="rgb(0, 0, 0)" stroke="rgb(204, 204, 204)" stroke-width="1px"></line><line x1="256.66666666666663" y1="0" x2="256.66666666666663" y2="5" style="visibility: inherit;" fill="rgb(0, 0, 0)" stroke="rgb(204, 204, 204)" stroke-width="1px"></line><line x1="280" y1="0" x2="280" y2="5" style="visibility: inherit;" fill="rgb(0, 0, 0)" stroke="rgb(204, 204, 204)" stroke-width="1px"></line></g><g transform="translate(0, 8)"><text x="0" y="0" dx="0em" dy="0.95em" style="text-anchor: middle; visibility: hidden; font-family: Roboto, sans-serif; font-size: 12px; font-weight: 200;" fill="rgb(255, 255, 255)" stroke="none" stroke-width="1px">-5</text><text x="23.333333333333332" y="0" dx="0em" dy="0.95em" style="text-anchor: middle; visibility: inherit; font-family: Roboto, sans-serif; font-size: 12px; font-weight: 200;" fill="rgb(255, 255, 255)" stroke="none" stroke-width="1px">0</text><text x="46.666666666666664" y="0" dx="0em" dy="0.95em" style="text-anchor: middle; visibility: inherit; font-family: Roboto, sans-serif; font-size: 12px; font-weight: 200;" fill="rgb(255, 255, 255)" stroke="none" stroke-width="1px">5</text><text x="70" y="0" dx="0em" dy="0.95em" style="text-anchor: middle; visibility: inherit; font-family: Roboto, sans-serif; font-size: 12px; font-weight: 200;" fill="rgb(255, 255, 255)" stroke="none" stroke-width="1px">10</text><text x="93.33333333333333" y="0" dx="0em" dy="0.95em" style="text-anchor: middle; visibility: inherit; font-family: Roboto, sans-serif; font-size: 12px; font-weight: 200;" fill="rgb(255, 255, 255)" stroke="none" stroke-width="1px">15</text><text x="116.66666666666667" y="0" dx="0em" dy="0.95em" style="text-anchor: middle; visibility: inherit; font-family: Roboto, sans-serif; font-size: 12px; font-weight: 200;" fill="rgb(255, 255, 255)" stroke="none" stroke-width="1px">20</text><text x="140" y="0" dx="0em" dy="0.95em" style="text-anchor: middle; visibility: inherit; font-family: Roboto, sans-serif; font-size: 12px; font-weight: 200;" fill="rgb(255, 255, 255)" stroke="none" stroke-width="1px">25</text><text x="163.33333333333334" y="0" dx="0em" dy="0.95em" style="text-anchor: middle; visibility: inherit; font-family: Roboto, sans-serif; font-size: 12px; font-weight: 200;" fill="rgb(255, 255, 255)" stroke="none" stroke-width="1px">30</text><text x="186.66666666666666" y="0" dx="0em" dy="0.95em" style="text-anchor: middle; visibility: inherit; font-family: Roboto, sans-serif; font-size: 12px; font-weight: 200;" fill="rgb(255, 255, 255)" stroke="none" stroke-width="1px">35</text><text x="210" y="0" dx="0em" dy="0.95em" style="text-anchor: middle; visibility: inherit; font-family: Roboto, sans-serif; font-size: 12px; font-weight: 200;" fill="rgb(255, 255, 255)" stroke="none" stroke-width="1px">40</text><text x="233.33333333333334" y="0" dx="0em" dy="0.95em" style="text-anchor: middle; visibility: inherit; font-family: Roboto, sans-serif; font-size: 12px; font-weight: 200;" fill="rgb(255, 255, 255)" stroke="none" stroke-width="1px">45</text><text x="256.66666666666663" y="0" dx="0em" dy="0.95em" style="text-anchor: middle; visibility: inherit; font-family: Roboto, sans-serif; font-size: 12px; font-weight: 200;" fill="rgb(255, 255, 255)" stroke="none" stroke-width="1px">50</text><text x="280" y="0" dx="0em" dy="0.95em" style="text-anchor: middle; visibility: hidden; font-family: Roboto, sans-serif; font-size: 12px; font-weight: 200;" fill="rgb(255, 255, 255)" stroke="none" stroke-width="1px">55</text></g><line x1="0" y1="0" x2="280" y2="0" fill="rgb(0, 0, 0)" stroke="rgb(204, 204, 204)" stroke-width="1px"></line></g></g></g></g></svg>