<svg viewBox="0 0 330 200" xmlns="http://www.w3.org/2000/svg"><g><g><g><g><g><line x1="50" y1="177" x2="45" y2="177" style="visibility: inherit;" fill="rgb(0, 0, 0)" stroke="rgb(204, 204, 204)" stroke-width="1px"></line><line x1="50" y1="162.25" x2="45" y2="162.25" style="visibility: inherit;" fill="rgb(0, 0, 0)" stroke="rgb(204, 204, 204)" stroke-width="1px"></line><line x1="50" y1="147.5" x2="45" y2="147.5" style="visibility: inherit;" fill="rgb(0, 0, 0)" stroke="rgb(204, 204, 204)" stroke-width="1px"></line><line x1="50" y1="132.75" x2="45" y2="132.75" style="visibility: inherit;" fill="rgb(0, 0, 0)" stroke="rgb(204, 204, 204)" stroke-width="1px"></line><line x1="50" y1="117.99999999999997" x2="45" y2="117.99999999999997" style="visibility: inherit;" fill="rgb(0, 0, 0)" stroke="rgb(204, 204, 204)" stroke-width="1px"></line><line x1="50" y1="103.24999999999999" x2="45" y2="103.24999999999999" style="visibility: inherit;" fill="rgb(0, 0, 0)" stroke="rgb(204, 204, 204)" stroke-width="1px"></line><line x1="50" y1="88.5" x2="45" y2="88.5" style="visibility: inherit;" fill="rgb(0, 0, 0)" stroke="rgb(204, 204, 204)" stroke-width="1px"></line><line x1="50" y1="73.75" x2="45" y2="73.75" style="visibility: inherit;" fill="rgb(0, 0, 0)" stroke="rgb(204, 204, 204)" stroke-width="1px"></line><line x1="50" y1="58.999999999999986" x2="45" y2="58.999999999999986" style="visibility: inherit;" fill="rgb(0, 0, 0)" stroke="rgb(204, 204, 204)" stroke-width="1px"></line><line x1="50" y1="44.25" x2="45" y2="44.25" style="visibility: inherit;" fill="rgb(0, 0, 0)" stroke="rgb(204, 204, 204)" stroke-width="1px"></line><line x1="50" y1="29.499999999999993" x2="45" y2="29.499999999999993" style="visibility: inherit;" fill="rgb(0, 0, 0)" stroke="rgb(204, 204, 204)" stroke-width="1px"></line><line x1="50" y1="14.749999999999968" x2="45" y2="14.749999999999968" style="visibility: inherit;" fill="rgb(0, 0, 0)" stroke="rgb(204, 204, 204)" stroke-width="1px"></line><line x1="50" y1="0" x2="45" y2="0" style="visibility: inherit;" fill="rgb(0, 0, 0)" stroke="rgb(204, 204, 204)" stroke-width="1px"></line></g><g transform="translate(40, 0)"><text x="0" y="177" dx="0em" dy="0.3em" style="text-anchor: end; visibility: hidden; font-family: Roboto, sans-serif; font-size: 12px; font-weight: 200;" fill="rgb(255, 255, 255)" stroke="none" stroke-width="1px">0.06</text><text x="0" y="162.25" dx="0em" dy="0.3em" style="text-anchor: end; visibility: inherit; font-family: Roboto, sans-serif; font-size: 12px; font-weight: 200;" fill="rgb(255, 255, 255)" stroke="none" stroke-width="1px">0.08</text><text x="0" y="147.5" dx="0em" dy="0.3em" style="text-anchor: end; visibility: hidden; font-family: Roboto, sans-serif; font-size: 12px; font-weight: 200;" fill="rgb(255, 255, 255)" stroke="none" stroke-width="1px">0.1</text><text x="0" y="132.75" dx="0em" dy="0.3em" style="text-anchor: end; visibility: inherit; font-family: Roboto, sans-serif; font-size: 12px; font-weight: 200;" fill="rgb(255, 255, 255)" stroke="none" stroke-width="1px">0.12</text><text x="0" y="117.99999999999997" dx="0em" dy="0.3em" style="text-anchor: end; visibility: hidden; font-family: Roboto, sans-serif; font-size: 12px; font-weight: 200;" fill="rgb(255, 255, 255)" stroke="none" stroke-width="1px">0.14</text><text x="0" y="103.24999999999999" dx="0em" dy="0.3em" style="text-anchor: end; visibility: inherit; font-family: Roboto, sans-serif; font-size: 12px; font-weight: 200;" fill="rgb(255, 255, 255)" stroke="none" stroke-width="1px">0.16</text><text x="0" y="88.5" dx="0em" dy="0.3em" style="text-anchor: end; visibility: hidden; font-family: Roboto, sans-serif; font-size: 12px; font-weight: 200;" fill="rgb(255, 255, 255)" stroke="none" stroke-width="1px">0.18</text><text x="0" y="73.75" dx="0em" dy="0.3em" style="text-anchor: end; visibility: inherit; font-family: Roboto, sans-serif; font-size: 12px; font-weight: 200;" fill="rgb(255, 255, 255)" stroke="none" stroke-width="1px">0.2</text><text x="0" y="58.999999999999986" dx="0em" dy="0.3em" style="text-anchor: end; visibility: hidden; font-family: Roboto, sans-serif; font-size: 12px; font-weight: 200;" fill="rgb(255, 255, 255)" stroke="none" stroke-width="1px">0.22</text><text x="0" y="44.25" dx="0em" dy="0.3em" style="text-anchor: end; visibility: inherit; font-family: Roboto, sans-serif; font-size: 12px; font-weight: 200;" fill="rgb(255, 255, 255)" stroke="none" stroke-width="1px">0.24</text><text x="0" y="29.499999999999993" dx="0em" dy="0.3em" style="text-anchor: end; visibility: hidden; font-family: Roboto, sans-serif; font-size: 12px; font-weight: 200;" fill="rgb(255, 255, 255)" stroke="none" stroke-width="1px">0.26</text><text x="0" y="14.749999999999968" dx="0em" dy="0.3em" style="text-anchor: end; visibility: inherit; font-family: Roboto, sans-serif; font-size: 12px; font-weight: 200;" fill="rgb(255, 255, 255)" stroke="none" stroke-width="1px">0.28</text><text x="0" y="0" dx="0em" dy="0.3em" style="text-anchor: end; visibility: hidden; font-family: Roboto, sans-serif; font-size: 12px; font-weight: 200;" fill="rgb(255, 255, 255)" stroke="none" stroke-width="1px">0.3</text></g><line x1="50" y1="0" x2="50" y2="177" fill="rgb(0, 0, 0)" stroke="rgb(204, 204, 204)" stroke-width="1px"></line></g></g><g transform="translate(50, 0)" clip-path="url(#clip_0)"><clipPath id="clip_0"><rect width="178" height="177"></rect></clipPath><g><g><g><line x1="0" y1="0" x2="0" y2="177" fill="rgb(0, 0, 0)" stroke="rgb(189, 189, 189)" stroke-width="1px" opacity="0.25"></line><line x1="14.833333333333332" y1="0" x2="14.833333333333332" y2="177" fill="rgb(0, 0, 0)" stroke="rgb(189, 189, 189)" stroke-width="1px" opacity="0.25"></line><line x1="29.666666666666664" y1="0" x2="29.666666666666664" y2="177" fill="rgb(0, 0, 0)" stroke="rgb(189, 189, 189)" stroke-width="1px" opacity="0.25"></line><line x1="44.5" y1="0" x2="44.5" y2="177" fill="rgb(0, 0, 0)" stroke="rgb(189, 189, 189)" stroke-width="1px" opacity="0.25"></line><line x1="59.33333333333333" y1="0" x2="59.33333333333333" y2="177" fill="rgb(0, 0, 0)" stroke="rgb(189, 189, 189)" stroke-width="1px" opacity="0.25"></line><line x1="74.16666666666667" y1="0" x2="74.16666666666667" y2="177" fill="rgb(0, 0, 0)" stroke="rgb(189, 189, 189)" stroke-width="1px" opacity="0.25"></line><line x1="89" y1="0" x2="89" y2="177" fill="rgb(0, 0, 0)" stroke="rgb(189, 189, 189)" stroke-width="1px" opacity="0.25"></line><line x1="103.83333333333334" y1="0" x2="103.83333333333334" y2="177" fill="rgb(0, 0, 0)" stroke="rgb(189, 189, 189)" stroke-width="1px" opacity="0.25"></line><line x1="118.66666666666666" y1="0" x2="118.66666666666666" y2="177" fill="rgb(0, 0, 0)" stroke="rgb(189, 189, 189)" stroke-width="1px" opacity="0.25"></line><line x1="133.5" y1="0" x2="133.5" y2="177" fill="rgb(0, 0, 0)" stroke="rgb(189, 189, 189)" stroke-width="1px" opacity="0.25"></line><line x1="148.33333333333334" y1="0" x2="148.33333333333334" y2="177" fill="rgb(0, 0, 0)" stroke="rgb(189, 189, 189)" stroke-width="1px" opacity="0.25"></line><line x1="163.16666666666666" y1="0" x2="163.16666666666666" y2="177" fill="rgb(0, 0, 0)" stroke="rgb(189, 189, 189)" stroke-width="1px" opacity="0.25"></line><line x1="178" y1="0" x2="178" y2="177" fill="rgb(0, 0, 0)" stroke="rgb(189, 189, 189)" stroke-width="1px" opacity="0.25"></line></g><g><line x1="0" y1="177" x2="178" y2="177" fill="rgb(0, 0, 0)" stroke="rgb(189, 189, 189)" stroke-width="1px" opacity="0.25"></line><line x1="0" y1="162.25" x2="178" y2="162.25" fill="rgb(0, 0, 0)" stroke="rgb(189, 189, 189)" stroke-width="1px" opacity="0.25"></line><line x1="0" y1="147.5" x2="178" y2="147.5" fill="rgb(0, 0, 0)" stroke="rgb(189, 189, 189)" stroke-width="1px" opacity="0.25"></line><line x1="0" y1="132.75" x2="178" y2="132.75" fill="rgb(0, 0, 0)" stroke="rgb(189, 189, 189)" stroke-width="1px" opacity="0.25"></line><line x1="0" y1="117.99999999999997" x2="178" y2="117.99999999999997" fill="rgb(0, 0, 0)" stroke="rgb(189, 189, 189)" stroke-width="1px" opacity="0.25"></line><line x1="0" y1="103.24999999999999" x2="178" y2="103.24999999999999" fill="rgb(0, 0, 0)" stroke="rgb(189, 189, 189)" stroke-width="1px" opacity="0.25"></line><line x1="0" y1="88.5" x2="178" y2="88.5" fill="rgb(0, 0, 0)" stroke="rgb(189, 189, 189)" stroke-width="1px" opacity="0.25"></line><line x1="0" y1="73.75" x2="178" y2="73.75" fill="rgb(0, 0, 0)" stroke="rgb(189, 189, 189)" stroke-width="1px" opacity="0.25"></line><line x1="0" y1="58.999999999999986" x2="178" y2="58.999999999999986" fill="rgb(0, 0, 0)" stroke="rgb(189, 189, 189)" stroke-width="1px" opacity="0.25"></line><line x1="0" y1="44.25" x2="178" y2="44.25" fill="rgb(0, 0, 0)" stroke="rgb(189, 189, 189)" stroke-width="1px" opacity="0.25"></line><line x1="0" y1="29.499999999999993" x2="178" y2="29.499999999999993" fill="rgb(0, 0, 0)" stroke="rgb(189, 189, 189)" stroke-width="1px" opacity="0.25"></line><line x1="0" y1="14.749999999999968" x2="178" y2="14.749999999999968" fill="rgb(0, 0, 0)" stroke="rgb(189, 189, 189)" stroke-width="1px" opacity="0.25"></line><line x1="0" y1="0" x2="178" y2="0" fill="rgb(0, 0, 0)" stroke="rgb(189, 189, 189)" stroke-width="1px" opacity="0.25"></line></g></g></g><g><g><line x1="0" y1="221.25" x2="178" y2="221.25" fill="rgb(0, 0, 0)" stroke="rgb(153, 153, 153)" stroke-width="1.5px"></line></g></g><g><g><line x1="14.833333333333332" y1="0" x2="14.833333333333332" y2="177" fill="rgb(0, 0, 0)" stroke="rgb(153, 153, 153)" stroke-width="1.5px"></line></g></g><g><g><g><g><g><path stroke="rgb(255, 112, 67)" stroke-width="2px" d="M14.833333333333332,-14.33674156665802L17.8,11.730797085911036L20.766666666666666,41.22063485335329L23.733333333333334,54.67548192286976L26.7,53.90611845741436L29.666666666666664,61.48301155525473L32.63333333333333,65.59798726073056L35.6,72.6910877399607L38.56666666666667,77.36226170356774L41.53333333333333,53.55065600979632L44.5,57.92190906851827L47.46666666666667,63.54108649831862L50.43333333333333,74.1470491677006L53.4,80.7329371481943L56.36666666666667,85.44652930419569L59.33333333333333,79.97885462316106L62.3,83.97987931168215L65.26666666666667,85.8646001537374L68.23333333333333,87.10528764243205L71.2,82.9117487512867L74.16666666666667,84.47944536026739L77.13333333333334,74.71779096474967L80.10000000000001,74.8312467704636L83.06666666666666,63.592956853616606L86.03333333333333,76.32627038848709L89,54.85191382750988L91.96666666666668,62.781509664066526L94.93333333333334,69.66938308050644L97.9,74.94078191835375L100.86666666666666,73.6485512542116L103.83333333333334,65.01572695528716L106.8,68.87245307059209L109.76666666666667,67.47880617395631L112.73333333333333,68.7729665239838L115.7,32.91062872153824L118.66666666666666,53.41846193987469L121.63333333333334,62.58891278886717L124.6,55.92436140914024L127.56666666666666,57.57188376340315L130.53333333333333,67.47157447798989L133.5,60.56184437772131L136.46666666666667,65.08048893371411L139.43333333333334,60.81026885600284L142.4,59.871235735202426L145.36666666666667,55.811331925557006L148.33333333333334,48.93807670894074L151.29999999999998,55.602132224825894L154.26666666666668,54.85396112129667L157.23333333333332,58.89565779349035L160.20000000000002,60.35885665466077" style="fill: none;" fill="none"></path></g><g><path stroke="rgb(187, 187, 187)" stroke-width="2px" d="M20.766666666666666,-28.52460913360119L23.733333333333334,14.653150305590245L26.7,39.042129619234515L29.666666666666664,58.81446147337054L32.63333333333333,71.96979825757727L35.6,83.0116420921663L38.56666666666667,90.91578765169524L41.53333333333333,97.34198277243439L44.5,102.54819654810645L47.46666666666667,107.87068950419452L50.43333333333333,111.79312922330412L53.4,115.65558091909946L56.36666666666667,118.52332870892197L59.33333333333333,121.53899610570687L62.3,123.91529304170571L65.26666666666667,126.62384213162208L68.23333333333333,128.47828787457428L71.2,131.24454073685862L74.16666666666667,134.20492672480015L77.13333333333334,135.28091575714993L80.10000000000001,137.17748765719628L83.06666666666666,138.59204630018604L86.03333333333333,139.10858902390265L89,141.1154349216341L91.96666666666668,142.046815324518L94.93333333333334,144.10453387422407L97.9,144.63371692469968L100.86666666666666,146.7396469949502L103.83333333333334,146.02506433865926L106.8,147.53771904193817L109.76666666666667,149.76969788798598L112.73333333333333,151.47019702048888L115.7,151.03891450380038L118.66666666666666,151.84850618759233L121.63333333333334,154.4702032997698L124.6,155.35142143663094L127.56666666666666,155.67415214459274L130.53333333333333,156.95746718894233L133.5,158.2660612194352L136.46666666666667,158.56258676832954L139.43333333333334,159.56548085918797L142.4,160.14763163702307L145.36666666666667,160.82738396339698L148.33333333333334,161.75617567046166L151.29999999999998,162.5027224874399L154.26666666666668,162.07163811956283L157.23333333333332,163.385184764787L160.20000000000002,164.7762047558685" style="fill: none;" fill="none"></path></g></g></g></g><g opacity="0.2"><g><g><g><path stroke="rgb(255, 112, 67)" stroke-width="2px" d="M14.833333333333332,-14.33674156665802L17.8,27.37132027745247L20.766666666666666,69.53087911009787L23.733333333333334,70.49838207662104L26.7,52.901637516915784L29.666666666666664,71.96458239108324L32.63333333333333,71.48246835917233L35.6,83.03289633244275L38.56666666666667,84.25133597105742L41.53333333333333,18.193196654319763L44.5,64.43914171308278L47.46666666666667,71.93927332758904L50.43333333333333,90.02136286348103L53.4,90.59886667877436L56.36666666666667,92.51137688755989L59.33333333333333,71.78119882941245L62.3,89.97972324490546L65.26666666666667,88.69120288640259L68.23333333333333,88.96612986922263L71.2,76.62182372063398L74.16666666666667,86.83090429753064L77.13333333333334,60.07563058286905L80.10000000000001,75.00142823904751L83.06666666666666,46.7356551066041L86.03333333333333,95.42615018785L89,22.64047056436538L91.96666666666668,74.67588312923908L94.93333333333334,80.00118263065814L97.9,82.84787531942128L100.86666666666666,71.71020597219467L103.83333333333334,52.06649336963891L106.8,74.65754147619009L109.76666666666667,65.38833599537611L112.73333333333333,70.71420695632696L115.7,-20.882876440882697L118.66666666666666,84.18021123856305L121.63333333333334,76.34458892047405L124.6,45.92753440141677L127.56666666666666,60.04316728562116L130.53333333333333,82.32111051678658L133.5,50.19724924117327L136.46666666666667,71.85845576226711L139.43333333333334,54.40493874251842L142.4,58.462686054408536L145.36666666666667,49.7214762121439L148.33333333333334,38.62819388508797L151.29999999999998,65.59821549803019L154.26666666666668,53.7317044660449L157.23333333333332,64.95820280164479L160.20000000000002,62.5536549463868" style="fill: none;" fill="none"></path></g><g><path stroke="rgb(187, 187, 187)" stroke-width="2px" d="M14.833333333333332,-297.76150345802307L17.8,11.795685216784465L20.766666666666666,44.20849621295929L23.733333333333334,65.43019540607929L26.7,70.88438101112841L29.666666666666664,86.16671446710824L32.63333333333333,90.78214034438133L35.6,99.1107564046979L38.56666666666667,102.57286705076694L41.53333333333333,106.88413359224796L44.5,110.31029723584652L47.46666666666667,115.82546416670083L50.43333333333333,117.66398135572672L53.4,121.4416915178299L56.36666666666667,122.82157946377991L59.33333333333333,126.06037031859158L62.3,127.47873287647963L65.26666666666667,130.68597806617618L68.23333333333333,131.25967398285866L71.2,135.39366718381643L74.16666666666667,138.6453433521092L77.13333333333334,136.8948638997972L80.10000000000001,140.02230806276202L83.06666666666666,140.71386750787497L86.03333333333333,139.88339943811297L89,144.1256952099502L91.96666666666668,143.44388354569674L94.93333333333334,147.1911085397005L97.9,145.42749101296067L100.86666666666666,149.89854093641043L103.83333333333334,144.95319059118629L106.8,149.8067007958889L109.76666666666667,153.11766589060426L112.73333333333333,154.02094559744L115.7,150.39199074730277L118.66666666666666,153.06289369240403L121.63333333333334,158.40274892747402L124.6,156.67324863374233L127.56666666666666,156.1582482047379L130.53333333333333,158.88243975117803L133.5,160.2289522625506L136.46666666666667,159.00737509131432L139.43333333333334,161.0698219947517L142.4,161.02085780352354L145.36666666666667,161.8470124527812L148.33333333333334,163.14936323091388L151.29999999999998,163.62254271283746L154.26666666666668,161.42501156777143L157.23333333333332,165.355504732579L160.20000000000002,166.86273474246264" style="fill: none;" fill="none"></path></g></g></g></g></g></g><g transform="translate(50, 177)" clip-path="url(#clip_1)"><clipPath id="clip_1"><rect width="178" height="23"></rect></clipPath><g><g><line x1="0" y1="0" x2="0" y2="5" style="visibility: inherit;" fill="rgb(0, 0, 0)" stroke="rgb(204, 204, 204)" stroke-width="1px"></line><line x1="14.833333333333332" y1="0" x2="14.833333333333332" y2="5" style="visibility: inherit;" fill="rgb(0, 0, 0)" stroke="rgb(204, 204, 204)" stroke-width="1px"></line><line x1="29.666666666666664" y1="0" x2="29.666666666666664" y2="5" style="visibility: inherit;" fill="rgb(0, 0, 0)" stroke="rgb(204, 204, 204)" stroke-width="1px"></line><line x1="44.5" y1="0" x2="44.5" y2="5" style="visibility: inherit;" fill="rgb(0, 0, 0)" stroke="rgb(204, 204, 204)" stroke-width="1px"></line><line x1="59.33333333333333" y1="0" x2="59.33333333333333" y2="5" style="visibility: inherit;" fill="rgb(0, 0, 0)" stroke="rgb(204, 204, 204)" stroke-width="1px"></line><line x1="74.16666666666667" y1="0" x2="74.16666666666667" y2="5" style="visibility: inherit;" fill="rgb(0, 0, 0)" stroke="rgb(204, 204, 204)" stroke-width="1px"></line><line x1="89" y1="0" x2="89" y2="5" style="visibility: inherit;" fill="rgb(0, 0, 0)" stroke="rgb(204, 204, 204)" stroke-width="1px"></line><line x1="103.83333333333334" y1="0" x2="103.83333333333334" y2="5" style="visibility: inherit;" fill="rgb(0, 0, 0)" stroke="rgb(204, 204, 204)" stroke-width="1px"></line><line x1="118.66666666666666" y1="0" x2="118.66666666666666" y2="5" style="visibility: inherit;" fill="rgb(0, 0, 0)" stroke="rgb(204, 204, 204)" stroke-width="1px"></line><line x1="133.5" y1="0" x2="133.5" y2="5" style="visibility: inherit;" fill="rgb(0, 0, 0)" stroke="rgb(204, 204, 204)" stroke-width="1px"></line><line x1="148.33333333333334" y1="0" x2="148.33333333333334" y2="5" style="visibility: inherit;" fill="rgb(0, 0, 0)" stroke="rgb(204, 204, 204)" stroke-width="1px"></line><line x1="163.16666666666666" y1="0" x2="163.16666666666666" y2="5" style="visibility: inherit;" fill="rgb(0, 0, 0)" stroke="rgb(204, 204, 204)" stroke-width="1px"></line><line x1="178" y1="0" x2="178" y2="5" style="visibility: inherit;" fill="rgb(0, 0, 0)" stroke="rgb(204, 204, 204)" stroke-width="1px"></line></g><g transform="translate(0, 8)"><text x="0" y="0" dx="0em" dy="0.95em" style="text-anchor: middle; visibility: hidden; font-family: Roboto, sans-serif; font-size: 12px; font-weight: 200;" fill="rgb(255, 255, 255)" stroke="none" stroke-width="1px">-5</text><text x="14.833333333333332" y="0" dx="0em" dy="0.95em" style="text-anchor: middle; visibility: inherit; font-family: Roboto, sans-serif; font-size: 12px; font-weight: 200;" fill="rgb(255, 255, 255)" stroke="none" stroke-width="1px">0</text><text x="29.666666666666664" y="0" dx="0em" dy="0.95em" style="text-anchor: middle; visibility: hidden; font-family: Roboto, sans-serif; font-size: 12px; font-weight: 200;" fill="rgb(255, 255, 255)" stroke="none" stroke-width="1px">5</text><text x="44.5" y="0" dx="0em" dy="0.95em" style="text-anchor: middle; visibility: inherit; font-family: Roboto, sans-serif; font-size: 12px; font-weight: 200;" fill="rgb(255, 255, 255)" stroke="none" stroke-width="1px">10</text><text x="59.33333333333333" y="0" dx="0em" dy="0.95em" style="text-anchor: middle; visibility: hidden; font-family: Roboto, sans-serif; font-size: 12px; font-weight: 200;" fill="rgb(255, 255, 255)" stroke="none" stroke-width="1px">15</text><text x="74.16666666666667" y="0" dx="0em" dy="0.95em" style="text-anchor: middle; visibility: inherit; font-family: Roboto, sans-serif; font-size: 12px; font-weight: 200;" fill="rgb(255, 255, 255)" stroke="none" stroke-width="1px">20</text><text x="89" y="0" dx="0em" dy="0.95em" style="text-anchor: middle; visibility: hidden; font-family: Roboto, sans-serif; font-size: 12px; font-weight: 200;" fill="rgb(255, 255, 255)" stroke="none" stroke-width="1px">25</text><text x="103.83333333333334" y="0" dx="0em" dy="0.95em" style="text-anchor: middle; visibility: inherit; font-family: Roboto, sans-serif; font-size: 12px; font-weight: 200;" fill="rgb(255, 255, 255)" stroke="none" stroke-width="1px">30</text><text x="118.66666666666666" y="0" dx="0em" dy="0.95em" style="text-anchor: middle; visibility: hidden; font-family: Roboto, sans-serif; font-size: 12px; font-weight: 200;" fill="rgb(255, 255, 255)" stroke="none" stroke-width="1px">35</text><text x="133.5" y="0" dx="0em" dy="0.95em" style="text-anchor: middle; visibility: inherit; font-family: Roboto, sans-serif; font-size: 12px; font-weight: 200;" fill="rgb(255, 255, 255)" stroke="none" stroke-width="1px">40</text><text x="148.33333333333334" y="0" dx="0em" dy="0.95em" style="text-anchor: middle; visibility: hidden; font-family: Roboto, sans-serif; font-size: 12px; font-weight: 200;" fill="rgb(255, 255, 255)" stroke="none" stroke-width="1px">45</text><text x="163.16666666666666" y="0" dx="0em" dy="0.95em" style="text-anchor: middle; visibility: inherit; font-family: Roboto, sans-serif; font-size: 12px; font-weight: 200;" fill="rgb(255, 255, 255)" stroke="none" stroke-width="1px">50</text><text x="178" y="0" dx="0em" dy="0.95em" style="text-anchor: middle; visibility: hidden; font-family: Roboto, sans-serif; font-size: 12px; font-weight: 200;" fill="rgb(255, 255, 255)" stroke="none" stroke-width="1px">55</text></g><line x1="0" y1="0" x2="178" y2="0" fill="rgb(0, 0, 0)" stroke="rgb(204, 204, 204)" stroke-width="1px"></line></g></g></g></g></svg>