<svg viewBox="0 0 330 200" xmlns="http://www.w3.org/2000/svg"><g><g><g><g><g><line x1="50" y1="177" x2="45" y2="177" style="visibility: inherit;" fill="rgb(0, 0, 0)" stroke="rgb(204, 204, 204)" stroke-width="1px"></line><line x1="50" y1="163.3846153846154" x2="45" y2="163.3846153846154" style="visibility: inherit;" fill="rgb(0, 0, 0)" stroke="rgb(204, 204, 204)" stroke-width="1px"></line><line x1="50" y1="149.76923076923077" x2="45" y2="149.76923076923077" style="visibility: inherit;" fill="rgb(0, 0, 0)" stroke="rgb(204, 204, 204)" stroke-width="1px"></line><line x1="50" y1="136.15384615384616" x2="45" y2="136.15384615384616" style="visibility: inherit;" fill="rgb(0, 0, 0)" stroke="rgb(204, 204, 204)" stroke-width="1px"></line><line x1="50" y1="122.53846153846153" x2="45" y2="122.53846153846153" style="visibility: inherit;" fill="rgb(0, 0, 0)" stroke="rgb(204, 204, 204)" stroke-width="1px"></line><line x1="50" y1="108.92307692307693" x2="45" y2="108.92307692307693" style="visibility: inherit;" fill="rgb(0, 0, 0)" stroke="rgb(204, 204, 204)" stroke-width="1px"></line><line x1="50" y1="95.30769230769232" x2="45" y2="95.30769230769232" style="visibility: inherit;" fill="rgb(0, 0, 0)" stroke="rgb(204, 204, 204)" stroke-width="1px"></line><line x1="50" y1="81.69230769230768" x2="45" y2="81.69230769230768" style="visibility: inherit;" fill="rgb(0, 0, 0)" stroke="rgb(204, 204, 204)" stroke-width="1px"></line><line x1="50" y1="68.07692307692307" x2="45" y2="68.07692307692307" style="visibility: inherit;" fill="rgb(0, 0, 0)" stroke="rgb(204, 204, 204)" stroke-width="1px"></line><line x1="50" y1="54.46153846153847" x2="45" y2="54.46153846153847" style="visibility: inherit;" fill="rgb(0, 0, 0)" stroke="rgb(204, 204, 204)" stroke-width="1px"></line><line x1="50" y1="40.84615384615384" x2="45" y2="40.84615384615384" style="visibility: inherit;" fill="rgb(0, 0, 0)" stroke="rgb(204, 204, 204)" stroke-width="1px"></line><line x1="50" y1="27.230769230769234" x2="45" y2="27.230769230769234" style="visibility: inherit;" fill="rgb(0, 0, 0)" stroke="rgb(204, 204, 204)" stroke-width="1px"></line><line x1="50" y1="13.615384615384626" x2="45" y2="13.615384615384626" style="visibility: inherit;" fill="rgb(0, 0, 0)" stroke="rgb(204, 204, 204)" stroke-width="1px"></line><line x1="50" y1="0" x2="45" y2="0" style="visibility: inherit;" fill="rgb(0, 0, 0)" stroke="rgb(204, 204, 204)" stroke-width="1px"></line></g><g transform="translate(40, 0)"><text x="0" y="177" dx="0em" dy="0.3em" style="text-anchor: end; visibility: hidden; font-family: Roboto, sans-serif; font-size: 12px; font-weight: 200;" fill="rgb(255, 255, 255)" stroke="none" stroke-width="1px">0</text><text x="0" y="163.3846153846154" dx="0em" dy="0.3em" style="text-anchor: end; visibility: inherit; font-family: Roboto, sans-serif; font-size: 12px; font-weight: 200;" fill="rgb(255, 255, 255)" stroke="none" stroke-width="1px">0.02</text><text x="0" y="149.76923076923077" dx="0em" dy="0.3em" style="text-anchor: end; visibility: hidden; font-family: Roboto, sans-serif; font-size: 12px; font-weight: 200;" fill="rgb(255, 255, 255)" stroke="none" stroke-width="1px">0.04</text><text x="0" y="136.15384615384616" dx="0em" dy="0.3em" style="text-anchor: end; visibility: inherit; font-family: Roboto, sans-serif; font-size: 12px; font-weight: 200;" fill="rgb(255, 255, 255)" stroke="none" stroke-width="1px">0.06</text><text x="0" y="122.53846153846153" dx="0em" dy="0.3em" style="text-anchor: end; visibility: hidden; font-family: Roboto, sans-serif; font-size: 12px; font-weight: 200;" fill="rgb(255, 255, 255)" stroke="none" stroke-width="1px">0.08</text><text x="0" y="108.92307692307693" dx="0em" dy="0.3em" style="text-anchor: end; visibility: inherit; font-family: Roboto, sans-serif; font-size: 12px; font-weight: 200;" fill="rgb(255, 255, 255)" stroke="none" stroke-width="1px">0.1</text><text x="0" y="95.30769230769232" dx="0em" dy="0.3em" style="text-anchor: end; visibility: hidden; font-family: Roboto, sans-serif; font-size: 12px; font-weight: 200;" fill="rgb(255, 255, 255)" stroke="none" stroke-width="1px">0.12</text><text x="0" y="81.69230769230768" dx="0em" dy="0.3em" style="text-anchor: end; visibility: inherit; font-family: Roboto, sans-serif; font-size: 12px; font-weight: 200;" fill="rgb(255, 255, 255)" stroke="none" stroke-width="1px">0.14</text><text x="0" y="68.07692307692307" dx="0em" dy="0.3em" style="text-anchor: end; visibility: hidden; font-family: Roboto, sans-serif; font-size: 12px; font-weight: 200;" fill="rgb(255, 255, 255)" stroke="none" stroke-width="1px">0.16</text><text x="0" y="54.46153846153847" dx="0em" dy="0.3em" style="text-anchor: end; visibility: inherit; font-family: Roboto, sans-serif; font-size: 12px; font-weight: 200;" fill="rgb(255, 255, 255)" stroke="none" stroke-width="1px">0.18</text><text x="0" y="40.84615384615384" dx="0em" dy="0.3em" style="text-anchor: end; visibility: hidden; font-family: Roboto, sans-serif; font-size: 12px; font-weight: 200;" fill="rgb(255, 255, 255)" stroke="none" stroke-width="1px">0.2</text><text x="0" y="27.230769230769234" dx="0em" dy="0.3em" style="text-anchor: end; visibility: inherit; font-family: Roboto, sans-serif; font-size: 12px; font-weight: 200;" fill="rgb(255, 255, 255)" stroke="none" stroke-width="1px">0.22</text><text x="0" y="13.615384615384626" dx="0em" dy="0.3em" style="text-anchor: end; visibility: hidden; font-family: Roboto, sans-serif; font-size: 12px; font-weight: 200;" fill="rgb(255, 255, 255)" stroke="none" stroke-width="1px">0.24</text><text x="0" y="0" dx="0em" dy="0.3em" style="text-anchor: end; visibility: hidden; font-family: Roboto, sans-serif; font-size: 12px; font-weight: 200;" fill="rgb(255, 255, 255)" stroke="none" stroke-width="1px">0.26</text></g><line x1="50" y1="0" x2="50" y2="177" fill="rgb(0, 0, 0)" stroke="rgb(204, 204, 204)" stroke-width="1px"></line></g></g><g transform="translate(50, 0)" clip-path="url(#clip_0)"><clipPath id="clip_0"><rect width="178" height="177"></rect></clipPath><g><g><g><line x1="0" y1="0" x2="0" y2="177" fill="rgb(0, 0, 0)" stroke="rgb(189, 189, 189)" stroke-width="1px" opacity="0.25"></line><line x1="14.833333333333332" y1="0" x2="14.833333333333332" y2="177" fill="rgb(0, 0, 0)" stroke="rgb(189, 189, 189)" stroke-width="1px" opacity="0.25"></line><line x1="29.666666666666664" y1="0" x2="29.666666666666664" y2="177" fill="rgb(0, 0, 0)" stroke="rgb(189, 189, 189)" stroke-width="1px" opacity="0.25"></line><line x1="44.5" y1="0" x2="44.5" y2="177" fill="rgb(0, 0, 0)" stroke="rgb(189, 189, 189)" stroke-width="1px" opacity="0.25"></line><line x1="59.33333333333333" y1="0" x2="59.33333333333333" y2="177" fill="rgb(0, 0, 0)" stroke="rgb(189, 189, 189)" stroke-width="1px" opacity="0.25"></line><line x1="74.16666666666667" y1="0" x2="74.16666666666667" y2="177" fill="rgb(0, 0, 0)" stroke="rgb(189, 189, 189)" stroke-width="1px" opacity="0.25"></line><line x1="89" y1="0" x2="89" y2="177" fill="rgb(0, 0, 0)" stroke="rgb(189, 189, 189)" stroke-width="1px" opacity="0.25"></line><line x1="103.83333333333334" y1="0" x2="103.83333333333334" y2="177" fill="rgb(0, 0, 0)" stroke="rgb(189, 189, 189)" stroke-width="1px" opacity="0.25"></line><line x1="118.66666666666666" y1="0" x2="118.66666666666666" y2="177" fill="rgb(0, 0, 0)" stroke="rgb(189, 189, 189)" stroke-width="1px" opacity="0.25"></line><line x1="133.5" y1="0" x2="133.5" y2="177" fill="rgb(0, 0, 0)" stroke="rgb(189, 189, 189)" stroke-width="1px" opacity="0.25"></line><line x1="148.33333333333334" y1="0" x2="148.33333333333334" y2="177" fill="rgb(0, 0, 0)" stroke="rgb(189, 189, 189)" stroke-width="1px" opacity="0.25"></line><line x1="163.16666666666666" y1="0" x2="163.16666666666666" y2="177" fill="rgb(0, 0, 0)" stroke="rgb(189, 189, 189)" stroke-width="1px" opacity="0.25"></line><line x1="178" y1="0" x2="178" y2="177" fill="rgb(0, 0, 0)" stroke="rgb(189, 189, 189)" stroke-width="1px" opacity="0.25"></line></g><g><line x1="0" y1="177" x2="178" y2="177" fill="rgb(0, 0, 0)" stroke="rgb(189, 189, 189)" stroke-width="1px" opacity="0.25"></line><line x1="0" y1="163.3846153846154" x2="178" y2="163.3846153846154" fill="rgb(0, 0, 0)" stroke="rgb(189, 189, 189)" stroke-width="1px" opacity="0.25"></line><line x1="0" y1="149.76923076923077" x2="178" y2="149.76923076923077" fill="rgb(0, 0, 0)" stroke="rgb(189, 189, 189)" stroke-width="1px" opacity="0.25"></line><line x1="0" y1="136.15384615384616" x2="178" y2="136.15384615384616" fill="rgb(0, 0, 0)" stroke="rgb(189, 189, 189)" stroke-width="1px" opacity="0.25"></line><line x1="0" y1="122.53846153846153" x2="178" y2="122.53846153846153" fill="rgb(0, 0, 0)" stroke="rgb(189, 189, 189)" stroke-width="1px" opacity="0.25"></line><line x1="0" y1="108.92307692307693" x2="178" y2="108.92307692307693" fill="rgb(0, 0, 0)" stroke="rgb(189, 189, 189)" stroke-width="1px" opacity="0.25"></line><line x1="0" y1="95.30769230769232" x2="178" y2="95.30769230769232" fill="rgb(0, 0, 0)" stroke="rgb(189, 189, 189)" stroke-width="1px" opacity="0.25"></line><line x1="0" y1="81.69230769230768" x2="178" y2="81.69230769230768" fill="rgb(0, 0, 0)" stroke="rgb(189, 189, 189)" stroke-width="1px" opacity="0.25"></line><line x1="0" y1="68.07692307692307" x2="178" y2="68.07692307692307" fill="rgb(0, 0, 0)" stroke="rgb(189, 189, 189)" stroke-width="1px" opacity="0.25"></line><line x1="0" y1="54.46153846153847" x2="178" y2="54.46153846153847" fill="rgb(0, 0, 0)" stroke="rgb(189, 189, 189)" stroke-width="1px" opacity="0.25"></line><line x1="0" y1="40.84615384615384" x2="178" y2="40.84615384615384" fill="rgb(0, 0, 0)" stroke="rgb(189, 189, 189)" stroke-width="1px" opacity="0.25"></line><line x1="0" y1="27.230769230769234" x2="178" y2="27.230769230769234" fill="rgb(0, 0, 0)" stroke="rgb(189, 189, 189)" stroke-width="1px" opacity="0.25"></line><line x1="0" y1="13.615384615384626" x2="178" y2="13.615384615384626" fill="rgb(0, 0, 0)" stroke="rgb(189, 189, 189)" stroke-width="1px" opacity="0.25"></line><line x1="0" y1="0" x2="178" y2="0" fill="rgb(0, 0, 0)" stroke="rgb(189, 189, 189)" stroke-width="1px" opacity="0.25"></line></g></g></g><g><g><line x1="0" y1="177" x2="178" y2="177" fill="rgb(0, 0, 0)" stroke="rgb(153, 153, 153)" stroke-width="1.5px"></line></g></g><g><g><line x1="14.833333333333332" y1="0" x2="14.833333333333332" y2="177" fill="rgb(0, 0, 0)" stroke="rgb(153, 153, 153)" stroke-width="1.5px"></line></g></g><g><g><g><g><g><path stroke="rgb(238, 51, 119)" stroke-width="2px" d="M17.8,-11.723824789317797L20.766666666666666,16.31535237250933L23.733333333333334,37.08156849138808L26.7,47.65759831317107L29.666666666666664,55.31731934117623L32.63333333333333,61.964183424887494L35.6,70.43818652823258L38.56666666666667,78.23545593512293L41.53333333333333,82.36390075095123L44.5,85.7980063228882L47.46666666666667,83.64304007745729L50.43333333333333,81.54883880836245L53.4,81.91904042198878L56.36666666666667,78.0895055677155L59.33333333333333,83.63444897480005L62.3,88.50656610055738L65.26666666666667,91.34139965095375L68.23333333333333,92.81179449256676L71.2,93.7825325519532L74.16666666666667,92.61809646714977L77.13333333333334,92.12366981945503L80.10000000000001,89.13613650575343L83.06666666666666,91.06679467303786L86.03333333333333,92.28141752519957L89,91.41459284302077L91.96666666666668,92.01596139321515L94.93333333333334,84.10860906795038L97.9,87.75001068762391L100.86666666666666,88.83431688404518L103.83333333333334,88.37278189173593L106.8,89.84957299332885L109.76666666666667,90.26501309843316L112.73333333333333,89.90868963065631L115.7,89.65316616060046L118.66666666666666,89.65343200120019L121.63333333333334,88.95698977112062L124.6,88.51772412164087L127.56666666666666,88.08349377853595L130.53333333333333,84.33367371253114L133.5,84.7980102166797L136.46666666666667,83.33940895564446L139.43333333333334,84.35148890789176L142.4,84.42458520105865L145.36666666666667,83.57968476682282L148.33333333333334,83.15651573971803L151.29999999999998,83.03211584506424L154.26666666666668,81.61772859856009L157.23333333333332,80.42054786586009L160.20000000000002,80.0241895822081" style="fill: none;" fill="none"></path></g><g><path stroke="rgb(51, 187, 238)" stroke-width="2px" d="M20.766666666666666,-7.423632096364678L23.733333333333334,24.193989398514198L26.7,46.28226990639283L29.666666666666664,62.602158828086225L32.63333333333333,75.15405187047381L35.6,85.5125167969792L38.56666666666667,93.55560497160958L41.53333333333333,100.47343339608683L44.5,106.50765025798665L47.46666666666667,111.20009765193291L50.43333333333333,115.07377404697081L53.4,118.71231322330318L56.36666666666667,121.70085221889116L59.33333333333333,124.70635234959087L62.3,127.18658244749335L65.26666666666667,129.7150594968057L68.23333333333333,131.84836745293174L71.2,133.64547842511888L74.16666666666667,135.6615454290381L77.13333333333334,137.1070122616691L80.10000000000001,138.55624428972283L83.06666666666666,140.0213815174165L86.03333333333333,141.54816160105923L89,142.8402485628268L91.96666666666668,144.01084963996306L94.93333333333334,145.34672352074114L97.9,146.16914449109157L100.86666666666666,147.32619747544834L103.83333333333334,148.62299268153885L106.8,149.5826213883768L109.76666666666667,150.49325323857005L112.73333333333333,151.38693195819312L115.7,152.23091477144536L118.66666666666666,153.12429448203477L121.63333333333334,153.84953593605303L124.6,154.56051316393064L127.56666666666666,155.2836418547026L130.53333333333333,155.9353602872963L133.5,156.7210849195454L136.46666666666667,157.43777170092673L139.43333333333334,158.3212150979945L142.4,158.97685632492758L145.36666666666667,159.57152888942147L148.33333333333334,160.13504895295804L151.29999999999998,160.61921083100893L154.26666666666668,161.18953258554077L157.23333333333332,161.61929082189238L160.20000000000002,162.31908061119108" style="fill: none;" fill="none"></path></g></g></g></g><g opacity="0.2"><g><g><g><path stroke="rgb(238, 51, 119)" stroke-width="2px" d="M17.8,-8.768096607464996L20.766666666666666,43.23296244786336L23.733333333333334,61.502638647189514L26.7,61.465662848490936L29.666666666666664,65.91347102247752L32.63333333333333,71.4693054144199L35.6,82.79336440333954L38.56666666666667,89.7349137686766L41.53333333333333,88.4941601569836L44.5,90.9180175960064L47.46666666666667,80.42231794045522L50.43333333333333,78.4143748352161L53.4,82.4736175789283L56.36666666666667,72.34970476077153L59.33333333333333,91.94795336173132L62.3,95.81268007250932L65.26666666666667,95.59293021261692L68.23333333333333,95.01716275513172L71.2,95.23855091172916L74.16666666666667,90.87150620038693L77.13333333333334,91.38204611723239L80.10000000000001,84.65489551883476L83.06666666666666,93.96275905347788L86.03333333333333,94.10334317042278L89,90.11435951636389L91.96666666666668,92.91801267976945L94.93333333333334,72.24759271970161L97.9,93.2121097628887L100.86666666666666,90.4607755793975L103.83333333333334,87.6804795563221L106.8,92.06475935188624L109.76666666666667,90.8881732064944L112.73333333333333,89.3742044545137L115.7,89.2698809664983L118.66666666666666,89.6538307620929L121.63333333333334,87.91232643677638L124.6,87.85882565149895L127.56666666666666,87.43214826629712L130.53333333333333,78.70894362605536L133.5,85.49451497197151L136.46666666666667,81.15150706584637L139.43333333333334,85.86960883553212L142.4,84.53422964077728L145.36666666666667,82.31233411568863L148.33333333333334,82.52176219912677L151.29999999999998,82.8455160030952L154.26666666666668,79.49614772888332L157.23333333333332,78.6247767668504L160.20000000000002,79.42965215673813" style="fill: none;" fill="none"></path></g><g><path stroke="rgb(51, 187, 238)" stroke-width="2px" d="M14.833333333333332,-164.9506850150915L17.8,7.150223122193261L20.766666666666666,40.54179382324219L23.733333333333334,61.37631227649177L26.7,75.12072893747917L29.666666666666664,85.1784403668L32.63333333333333,93.10345975137675L35.6,100.61525810108736L38.56666666666667,105.41759773974235L41.53333333333333,110.7456023750397L44.5,115.50424564801729L47.46666666666667,118.21323265135288L50.43333333333333,120.87164041399956L53.4,124.16299371077464L56.36666666666667,126.18014779686928L59.33333333333333,129.21248283409153L62.3,130.90587804409174L65.26666666666667,133.50713309072532L68.23333333333333,135.0480043991254L71.2,136.34098062033837L74.16666666666667,138.68553536901106L77.13333333333334,139.27516494691372L80.10000000000001,140.7300637192451L83.06666666666666,142.21907000300976L86.03333333333333,143.83832087482398L89,144.77837349531742L91.96666666666668,145.7667482604201L94.93333333333334,147.3505322910272L97.9,147.40277518905128L100.86666666666666,149.06177631249795L103.83333333333334,150.56818506064323L106.8,151.02206425769972L109.76666666666667,151.8592009051488L112.73333333333333,152.7274499736153L115.7,153.49688895505207L118.66666666666666,154.46436402488214L121.63333333333334,154.93739810585976L124.6,155.62697899914704L127.56666666666666,156.36833488683288L130.53333333333333,156.91293793400894L133.5,157.89967186634357L136.46666666666667,158.5128018721365L139.43333333333334,159.6463801929584L142.4,159.96031816504322L145.36666666666667,160.4635377360078L148.33333333333334,160.9803290481751L151.29999999999998,161.34545364803992L154.26666666666668,162.0450152173065L157.23333333333332,162.26392817640533L160.20000000000002,163.36876529512497" style="fill: none;" fill="none"></path></g></g></g></g></g></g><g transform="translate(50, 177)" clip-path="url(#clip_1)"><clipPath id="clip_1"><rect width="178" height="23"></rect></clipPath><g><g><line x1="0" y1="0" x2="0" y2="5" style="visibility: inherit;" fill="rgb(0, 0, 0)" stroke="rgb(204, 204, 204)" stroke-width="1px"></line><line x1="14.833333333333332" y1="0" x2="14.833333333333332" y2="5" style="visibility: inherit;" fill="rgb(0, 0, 0)" stroke="rgb(204, 204, 204)" stroke-width="1px"></line><line x1="29.666666666666664" y1="0" x2="29.666666666666664" y2="5" style="visibility: inherit;" fill="rgb(0, 0, 0)" stroke="rgb(204, 204, 204)" stroke-width="1px"></line><line x1="44.5" y1="0" x2="44.5" y2="5" style="visibility: inherit;" fill="rgb(0, 0, 0)" stroke="rgb(204, 204, 204)" stroke-width="1px"></line><line x1="59.33333333333333" y1="0" x2="59.33333333333333" y2="5" style="visibility: inherit;" fill="rgb(0, 0, 0)" stroke="rgb(204, 204, 204)" stroke-width="1px"></line><line x1="74.16666666666667" y1="0" x2="74.16666666666667" y2="5" style="visibility: inherit;" fill="rgb(0, 0, 0)" stroke="rgb(204, 204, 204)" stroke-width="1px"></line><line x1="89" y1="0" x2="89" y2="5" style="visibility: inherit;" fill="rgb(0, 0, 0)" stroke="rgb(204, 204, 204)" stroke-width="1px"></line><line x1="103.83333333333334" y1="0" x2="103.83333333333334" y2="5" style="visibility: inherit;" fill="rgb(0, 0, 0)" stroke="rgb(204, 204, 204)" stroke-width="1px"></line><line x1="118.66666666666666" y1="0" x2="118.66666666666666" y2="5" style="visibility: inherit;" fill="rgb(0, 0, 0)" stroke="rgb(204, 204, 204)" stroke-width="1px"></line><line x1="133.5" y1="0" x2="133.5" y2="5" style="visibility: inherit;" fill="rgb(0, 0, 0)" stroke="rgb(204, 204, 204)" stroke-width="1px"></line><line x1="148.33333333333334" y1="0" x2="148.33333333333334" y2="5" style="visibility: inherit;" fill="rgb(0, 0, 0)" stroke="rgb(204, 204, 204)" stroke-width="1px"></line><line x1="163.16666666666666" y1="0" x2="163.16666666666666" y2="5" style="visibility: inherit;" fill="rgb(0, 0, 0)" stroke="rgb(204, 204, 204)" stroke-width="1px"></line><line x1="178" y1="0" x2="178" y2="5" style="visibility: inherit;" fill="rgb(0, 0, 0)" stroke="rgb(204, 204, 204)" stroke-width="1px"></line></g><g transform="translate(0, 8)"><text x="0" y="0" dx="0em" dy="0.95em" style="text-anchor: middle; visibility: hidden; font-family: Roboto, sans-serif; font-size: 12px; font-weight: 200;" fill="rgb(255, 255, 255)" stroke="none" stroke-width="1px">-5</text><text x="14.833333333333332" y="0" dx="0em" dy="0.95em" style="text-anchor: middle; visibility: inherit; font-family: Roboto, sans-serif; font-size: 12px; font-weight: 200;" fill="rgb(255, 255, 255)" stroke="none" stroke-width="1px">0</text><text x="29.666666666666664" y="0" dx="0em" dy="0.95em" style="text-anchor: middle; visibility: hidden; font-family: Roboto, sans-serif; font-size: 12px; font-weight: 200;" fill="rgb(255, 255, 255)" stroke="none" stroke-width="1px">5</text><text x="44.5" y="0" dx="0em" dy="0.95em" style="text-anchor: middle; visibility: inherit; font-family: Roboto, sans-serif; font-size: 12px; font-weight: 200;" fill="rgb(255, 255, 255)" stroke="none" stroke-width="1px">10</text><text x="59.33333333333333" y="0" dx="0em" dy="0.95em" style="text-anchor: middle; visibility: hidden; font-family: Roboto, sans-serif; font-size: 12px; font-weight: 200;" fill="rgb(255, 255, 255)" stroke="none" stroke-width="1px">15</text><text x="74.16666666666667" y="0" dx="0em" dy="0.95em" style="text-anchor: middle; visibility: inherit; font-family: Roboto, sans-serif; font-size: 12px; font-weight: 200;" fill="rgb(255, 255, 255)" stroke="none" stroke-width="1px">20</text><text x="89" y="0" dx="0em" dy="0.95em" style="text-anchor: middle; visibility: hidden; font-family: Roboto, sans-serif; font-size: 12px; font-weight: 200;" fill="rgb(255, 255, 255)" stroke="none" stroke-width="1px">25</text><text x="103.83333333333334" y="0" dx="0em" dy="0.95em" style="text-anchor: middle; visibility: inherit; font-family: Roboto, sans-serif; font-size: 12px; font-weight: 200;" fill="rgb(255, 255, 255)" stroke="none" stroke-width="1px">30</text><text x="118.66666666666666" y="0" dx="0em" dy="0.95em" style="text-anchor: middle; visibility: hidden; font-family: Roboto, sans-serif; font-size: 12px; font-weight: 200;" fill="rgb(255, 255, 255)" stroke="none" stroke-width="1px">35</text><text x="133.5" y="0" dx="0em" dy="0.95em" style="text-anchor: middle; visibility: inherit; font-family: Roboto, sans-serif; font-size: 12px; font-weight: 200;" fill="rgb(255, 255, 255)" stroke="none" stroke-width="1px">40</text><text x="148.33333333333334" y="0" dx="0em" dy="0.95em" style="text-anchor: middle; visibility: hidden; font-family: Roboto, sans-serif; font-size: 12px; font-weight: 200;" fill="rgb(255, 255, 255)" stroke="none" stroke-width="1px">45</text><text x="163.16666666666666" y="0" dx="0em" dy="0.95em" style="text-anchor: middle; visibility: inherit; font-family: Roboto, sans-serif; font-size: 12px; font-weight: 200;" fill="rgb(255, 255, 255)" stroke="none" stroke-width="1px">50</text><text x="178" y="0" dx="0em" dy="0.95em" style="text-anchor: middle; visibility: hidden; font-family: Roboto, sans-serif; font-size: 12px; font-weight: 200;" fill="rgb(255, 255, 255)" stroke="none" stroke-width="1px">55</text></g><line x1="0" y1="0" x2="178" y2="0" fill="rgb(0, 0, 0)" stroke="rgb(204, 204, 204)" stroke-width="1px"></line></g></g></g></g></svg>