<svg viewBox="0 0 330 200" xmlns="http://www.w3.org/2000/svg"><g><g><g><g><g><line x1="50" y1="177" x2="45" y2="177" style="visibility: inherit;" fill="rgb(0, 0, 0)" stroke="rgb(204, 204, 204)" stroke-width="1px"></line><line x1="50" y1="154.87499999999997" x2="45" y2="154.87499999999997" style="visibility: inherit;" fill="rgb(0, 0, 0)" stroke="rgb(204, 204, 204)" stroke-width="1px"></line><line x1="50" y1="132.7500000000002" x2="45" y2="132.7500000000002" style="visibility: inherit;" fill="rgb(0, 0, 0)" stroke="rgb(204, 204, 204)" stroke-width="1px"></line><line x1="50" y1="110.62500000000016" x2="45" y2="110.62500000000016" style="visibility: inherit;" fill="rgb(0, 0, 0)" stroke="rgb(204, 204, 204)" stroke-width="1px"></line><line x1="50" y1="88.50000000000011" x2="45" y2="88.50000000000011" style="visibility: inherit;" fill="rgb(0, 0, 0)" stroke="rgb(204, 204, 204)" stroke-width="1px"></line><line x1="50" y1="66.3750000000001" x2="45" y2="66.3750000000001" style="visibility: inherit;" fill="rgb(0, 0, 0)" stroke="rgb(204, 204, 204)" stroke-width="1px"></line><line x1="50" y1="44.25000000000006" x2="45" y2="44.25000000000006" style="visibility: inherit;" fill="rgb(0, 0, 0)" stroke="rgb(204, 204, 204)" stroke-width="1px"></line><line x1="50" y1="22.12500000000004" x2="45" y2="22.12500000000004" style="visibility: inherit;" fill="rgb(0, 0, 0)" stroke="rgb(204, 204, 204)" stroke-width="1px"></line><line x1="50" y1="0" x2="45" y2="0" style="visibility: inherit;" fill="rgb(0, 0, 0)" stroke="rgb(204, 204, 204)" stroke-width="1px"></line></g><g transform="translate(40, 0)"><text x="0" y="177" dx="0em" dy="0.3em" style="text-anchor: end; visibility: hidden; font-family: Roboto, sans-serif; font-size: 12px; font-weight: 200;" fill="rgb(255, 255, 255)" stroke="none" stroke-width="1px">0.92</text><text x="0" y="154.87499999999997" dx="0em" dy="0.3em" style="text-anchor: end; visibility: inherit; font-family: Roboto, sans-serif; font-size: 12px; font-weight: 200;" fill="rgb(255, 255, 255)" stroke="none" stroke-width="1px">0.93</text><text x="0" y="132.7500000000002" dx="0em" dy="0.3em" style="text-anchor: end; visibility: hidden; font-family: Roboto, sans-serif; font-size: 12px; font-weight: 200;" fill="rgb(255, 255, 255)" stroke="none" stroke-width="1px">0.94</text><text x="0" y="110.62500000000016" dx="0em" dy="0.3em" style="text-anchor: end; visibility: inherit; font-family: Roboto, sans-serif; font-size: 12px; font-weight: 200;" fill="rgb(255, 255, 255)" stroke="none" stroke-width="1px">0.95</text><text x="0" y="88.50000000000011" dx="0em" dy="0.3em" style="text-anchor: end; visibility: hidden; font-family: Roboto, sans-serif; font-size: 12px; font-weight: 200;" fill="rgb(255, 255, 255)" stroke="none" stroke-width="1px">0.96</text><text x="0" y="66.3750000000001" dx="0em" dy="0.3em" style="text-anchor: end; visibility: inherit; font-family: Roboto, sans-serif; font-size: 12px; font-weight: 200;" fill="rgb(255, 255, 255)" stroke="none" stroke-width="1px">0.97</text><text x="0" y="44.25000000000006" dx="0em" dy="0.3em" style="text-anchor: end; visibility: hidden; font-family: Roboto, sans-serif; font-size: 12px; font-weight: 200;" fill="rgb(255, 255, 255)" stroke="none" stroke-width="1px">0.98</text><text x="0" y="22.12500000000004" dx="0em" dy="0.3em" style="text-anchor: end; visibility: inherit; font-family: Roboto, sans-serif; font-size: 12px; font-weight: 200;" fill="rgb(255, 255, 255)" stroke="none" stroke-width="1px">0.99</text><text x="0" y="0" dx="0em" dy="0.3em" style="text-anchor: end; visibility: hidden; font-family: Roboto, sans-serif; font-size: 12px; font-weight: 200;" fill="rgb(255, 255, 255)" stroke="none" stroke-width="1px">1</text></g><line x1="50" y1="0" x2="50" y2="177" fill="rgb(0, 0, 0)" stroke="rgb(204, 204, 204)" stroke-width="1px"></line></g></g><g transform="translate(50, 0)" clip-path="url(#clip_0)"><clipPath id="clip_0"><rect width="280" height="177"></rect></clipPath><g><g><g><line x1="0" y1="0" x2="0" y2="177" fill="rgb(0, 0, 0)" stroke="rgb(189, 189, 189)" stroke-width="1px" opacity="0.25"></line><line x1="23.333333333333332" y1="0" x2="23.333333333333332" y2="177" fill="rgb(0, 0, 0)" stroke="rgb(189, 189, 189)" stroke-width="1px" opacity="0.25"></line><line x1="46.666666666666664" y1="0" x2="46.666666666666664" y2="177" fill="rgb(0, 0, 0)" stroke="rgb(189, 189, 189)" stroke-width="1px" opacity="0.25"></line><line x1="70" y1="0" x2="70" y2="177" fill="rgb(0, 0, 0)" stroke="rgb(189, 189, 189)" stroke-width="1px" opacity="0.25"></line><line x1="93.33333333333333" y1="0" x2="93.33333333333333" y2="177" fill="rgb(0, 0, 0)" stroke="rgb(189, 189, 189)" stroke-width="1px" opacity="0.25"></line><line x1="116.66666666666667" y1="0" x2="116.66666666666667" y2="177" fill="rgb(0, 0, 0)" stroke="rgb(189, 189, 189)" stroke-width="1px" opacity="0.25"></line><line x1="140" y1="0" x2="140" y2="177" fill="rgb(0, 0, 0)" stroke="rgb(189, 189, 189)" stroke-width="1px" opacity="0.25"></line><line x1="163.33333333333334" y1="0" x2="163.33333333333334" y2="177" fill="rgb(0, 0, 0)" stroke="rgb(189, 189, 189)" stroke-width="1px" opacity="0.25"></line><line x1="186.66666666666666" y1="0" x2="186.66666666666666" y2="177" fill="rgb(0, 0, 0)" stroke="rgb(189, 189, 189)" stroke-width="1px" opacity="0.25"></line><line x1="210" y1="0" x2="210" y2="177" fill="rgb(0, 0, 0)" stroke="rgb(189, 189, 189)" stroke-width="1px" opacity="0.25"></line><line x1="233.33333333333334" y1="0" x2="233.33333333333334" y2="177" fill="rgb(0, 0, 0)" stroke="rgb(189, 189, 189)" stroke-width="1px" opacity="0.25"></line><line x1="256.66666666666663" y1="0" x2="256.66666666666663" y2="177" fill="rgb(0, 0, 0)" stroke="rgb(189, 189, 189)" stroke-width="1px" opacity="0.25"></line><line x1="280" y1="0" x2="280" y2="177" fill="rgb(0, 0, 0)" stroke="rgb(189, 189, 189)" stroke-width="1px" opacity="0.25"></line></g><g><line x1="0" y1="177" x2="280" y2="177" fill="rgb(0, 0, 0)" stroke="rgb(189, 189, 189)" stroke-width="1px" opacity="0.25"></line><line x1="0" y1="154.87499999999997" x2="280" y2="154.87499999999997" fill="rgb(0, 0, 0)" stroke="rgb(189, 189, 189)" stroke-width="1px" opacity="0.25"></line><line x1="0" y1="132.7500000000002" x2="280" y2="132.7500000000002" fill="rgb(0, 0, 0)" stroke="rgb(189, 189, 189)" stroke-width="1px" opacity="0.25"></line><line x1="0" y1="110.62500000000016" x2="280" y2="110.62500000000016" fill="rgb(0, 0, 0)" stroke="rgb(189, 189, 189)" stroke-width="1px" opacity="0.25"></line><line x1="0" y1="88.50000000000011" x2="280" y2="88.50000000000011" fill="rgb(0, 0, 0)" stroke="rgb(189, 189, 189)" stroke-width="1px" opacity="0.25"></line><line x1="0" y1="66.3750000000001" x2="280" y2="66.3750000000001" fill="rgb(0, 0, 0)" stroke="rgb(189, 189, 189)" stroke-width="1px" opacity="0.25"></line><line x1="0" y1="44.25000000000006" x2="280" y2="44.25000000000006" fill="rgb(0, 0, 0)" stroke="rgb(189, 189, 189)" stroke-width="1px" opacity="0.25"></line><line x1="0" y1="22.12500000000004" x2="280" y2="22.12500000000004" fill="rgb(0, 0, 0)" stroke="rgb(189, 189, 189)" stroke-width="1px" opacity="0.25"></line><line x1="0" y1="0" x2="280" y2="0" fill="rgb(0, 0, 0)" stroke="rgb(189, 189, 189)" stroke-width="1px" opacity="0.25"></line></g></g></g><g><g><line x1="0" y1="2212.5000000000014" x2="280" y2="2212.5000000000014" fill="rgb(0, 0, 0)" stroke="rgb(153, 153, 153)" stroke-width="1.5px"></line></g></g><g><g><line x1="23.333333333333332" y1="0" x2="23.333333333333332" y2="177" fill="rgb(0, 0, 0)" stroke="rgb(153, 153, 153)" stroke-width="1.5px"></line></g></g><g><g><g><g><g><path stroke="rgb(238, 51, 119)" stroke-width="2px" d="M28,182.41603123024115L32.666666666666664,151.24397067999377L37.333333333333336,130.8825548765632L42,122.4961390549486L46.666666666666664,115.34923966433811L51.33333333333333,108.47330024758942L56,100.79754383367722L60.66666666666667,92.99743023932706L65.33333333333333,89.18415579523948L70,85.94877742303807L74.66666666666667,89.11493070574157L79.33333333333333,91.3794114911664L84,89.85769738281097L88.66666666666666,93.3725097883463L93.33333333333333,88.103265141171L98,83.02482598321848L102.66666666666666,80.93719608968932L107.33333333333334,80.42229809402774L112,78.19578999640372L116.66666666666667,78.03998309927367L121.33333333333334,78.16773802442223L126,79.7931453822984L130.66666666666666,78.18714818759092L135.33333333333334,76.41230848335246L140,77.19113290186974L144.66666666666669,76.33091606000453L149.33333333333334,84.51729411318834L154,80.50537822503665L158.66666666666666,79.27824987378479L163.33333333333334,79.27947243114683L168,77.36268654147786L172.66666666666669,77.17134841172131L177.33333333333331,78.01533157792794L182,77.931711464679L186.66666666666666,76.84900872160188L191.33333333333334,76.34692914323696L196,76.26691536299488L200.66666666666666,76.80891708370882L205.33333333333331,80.89535925837299L210,79.5122387639633L214.66666666666669,80.15736506206729L219.33333333333334,78.03691158127913L224,77.28090482598657L228.66666666666666,77.85977868828891L233.33333333333334,77.3958590542607L238,77.48628329726381L242.66666666666669,78.72050506768788L247.33333333333331,78.94482554732976L252,78.56315250240961" style="fill: none;" fill="none"></path></g><g><path stroke="rgb(51, 187, 238)" stroke-width="2px" d="M32.666666666666664,177.78358211626812L37.333333333333336,145.86115193498472L42,124.34077189510099L46.666666666666664,108.35520853843668L51.33333333333333,96.23892723814681L56,86.22705085318552L60.66666666666667,78.67104124077397L65.33333333333333,72.77668780125083L70,66.45025665548889L74.66666666666667,62.31804165669124L79.33333333333333,58.66291376462307L84,55.771718249546055L88.66666666666666,52.747207565496424L93.33333333333333,49.974407736637744L98,47.66582720777453L102.66666666666666,45.00862537274485L107.33333333333334,42.75068190503633L112,41.21158275574262L116.66666666666667,39.66131596537286L121.33333333333334,38.399269591947025L126,37.568307162144364L130.66666666666666,36.147868602740694L135.33333333333334,34.41056590238943L140,32.85197398011929L144.66666666666669,31.640251415230775L149.33333333333334,30.17571892045786L154,29.35228213549063L158.66666666666666,28.378879897456734L163.33333333333334,26.78077043117151L168,25.72969768635457L172.66666666666669,25.025309434824358L177.33333333333331,23.902049516022096L182,23.172811468450988L186.66666666666666,22.237413098705993L191.33333333333334,21.4365303289755L196,20.5319425294106L200.66666666666666,19.767903137251515L205.33333333333331,18.848549035777243L210,17.92821330210643L214.66666666666669,17.15472514819271L219.33333333333334,16.303446443974554L224,15.589855046207928L228.66666666666666,14.848311800364208L233.33333333333334,14.089944695546631L238,13.413637718601152L242.66666666666669,12.970981205121856L247.33333333333331,12.262919369101835L252,11.358689262120498" style="fill: none;" fill="none"></path></g></g></g></g><g opacity="0.2"><g><g><g><path stroke="rgb(238, 51, 119)" stroke-width="2px" d="M28,181.79376125335702L32.666666666666664,121.31879255175596L37.333333333333336,106.9375298917294L42,111.54683455824858L46.666666666666664,105.4625049233437L51.33333333333333,98.64059686660771L56,89.60621729493145L60.66666666666667,81.49377778172497L65.33333333333333,83.5218876600266L70,81.12505450844769L74.66666666666667,93.8469305634499L79.33333333333333,94.76873874664311L84,87.57810741662983L88.66666666666666,98.64059686660771L93.33333333333333,80.20311444997792L98,75.40931627154355L102.66666666666666,77.80628129839901L107.33333333333334,79.650029540062L112,74.85623136162762L116.66666666666667,77.80628129839901L121.33333333333334,78.35936620831494L126,82.23122432827954L130.66666666666666,75.7781714200974L135.33333333333334,73.75006154179577L140,78.35936620831494L144.66666666666669,75.04059299826626L149.33333333333334,96.79684862494473L154,74.48750808835034L158.66666666666666,77.43755802512173L163.33333333333334,79.28130626678471L168,74.48750808835034L172.66666666666669,76.88434123992924L177.33333333333331,79.28130626678471L182,77.80628129839901L186.66666666666666,75.2249546349049L191.33333333333334,75.59380978345875L196,76.14689469337468L200.66666666666666,77.62191966176037L205.33333333333331,87.02502250671391L210,77.43755802512173L214.66666666666669,81.12505450844769L219.33333333333334,74.85623136162762L224,76.14689469337468L228.66666666666666,78.72808948159222L233.33333333333334,76.6999796032906L238,77.62191966176037L242.66666666666669,80.5718377232552L247.33333333333331,79.28130626678471L252,77.99064293503766" style="fill: none;" fill="none"></path></g><g><path stroke="rgb(51, 187, 238)" stroke-width="2px" d="M23.333333333333332,344.4124616682531L28,160.77495217323312L32.666666666666664,128.00236344337472L37.333333333333336,108.32037404179579L42,96.2437637150288L46.666666666666664,86.2414196133614L51.33333333333333,78.91245111823086L56,71.62963896989827L60.66666666666667,67.52739474177365L65.33333333333333,64.02425989508633L70,57.017990201711676L74.66666666666667,56.14220649003985L79.33333333333333,53.192156553268454L84,51.440589129924795L88.66666666666666,48.21399673819544L93.33333333333333,45.81716358661654L98,44.20393332839014L102.66666666666666,41.02349728345873L107.33333333333334,39.36411067843439L112,38.903074711561224L116.66666666666667,37.33600080013277L121.33333333333334,36.50624155998232L126,36.32187992334368L130.66666666666666,34.0172275900841L135.33333333333334,31.80462419986727L140,30.51409274339678L144.66666666666669,29.822670668363592L149.33333333333334,27.978922426700613L154,28.11712771654131L158.66666666666666,26.918777078390143L163.33333333333334,24.383606761693976L168,24.15308877825739L172.66666666666669,23.96872714161875L177.33333333333331,22.21715971827509L182,22.078954428434393L186.66666666666666,20.834315568208716L191.33333333333334,20.235206186771414L196,19.175060838460922L200.66666666666666,18.621844053268433L205.33333333333331,17.46951788663864L210,16.547709703445435L214.66666666666669,15.994492918252945L219.33333333333334,15.026528388261795L224,14.519467949867249L228.66666666666666,13.735996931791306L233.33333333333334,12.952394038438797L238,12.399177253246307L242.66666666666669,12.306996434926987L247.33333333333331,11.200826615095139L252,10.002344101667404" style="fill: none;" fill="none"></path></g></g></g></g></g></g><g transform="translate(50, 177)" clip-path="url(#clip_1)"><clipPath id="clip_1"><rect width="280" height="23"></rect></clipPath><g><g><line x1="0" y1="0" x2="0" y2="5" style="visibility: inherit;" fill="rgb(0, 0, 0)" stroke="rgb(204, 204, 204)" stroke-width="1px"></line><line x1="23.333333333333332" y1="0" x2="23.333333333333332" y2="5" style="visibility: inherit;" fill="rgb(0, 0, 0)" stroke="rgb(204, 204, 204)" stroke-width="1px"></line><line x1="46.666666666666664" y1="0" x2="46.666666666666664" y2="5" style="visibility: inherit;" fill="rgb(0, 0, 0)" stroke="rgb(204, 204, 204)" stroke-width="1px"></line><line x1="70" y1="0" x2="70" y2="5" style="visibility: inherit;" fill="rgb(0, 0, 0)" stroke="rgb(204, 204, 204)" stroke-width="1px"></line><line x1="93.33333333333333" y1="0" x2="93.33333333333333" y2="5" style="visibility: inherit;" fill="rgb(0, 0, 0)" stroke="rgb(204, 204, 204)" stroke-width="1px"></line><line x1="116.66666666666667" y1="0" x2="116.66666666666667" y2="5" style="visibility: inherit;" fill="rgb(0, 0, 0)" stroke="rgb(204, 204, 204)" stroke-width="1px"></line><line x1="140" y1="0" x2="140" y2="5" style="visibility: inherit;" fill="rgb(0, 0, 0)" stroke="rgb(204, 204, 204)" stroke-width="1px"></line><line x1="163.33333333333334" y1="0" x2="163.33333333333334" y2="5" style="visibility: inherit;" fill="rgb(0, 0, 0)" stroke="rgb(204, 204, 204)" stroke-width="1px"></line><line x1="186.66666666666666" y1="0" x2="186.66666666666666" y2="5" style="visibility: inherit;" fill="rgb(0, 0, 0)" stroke="rgb(204, 204, 204)" stroke-width="1px"></line><line x1="210" y1="0" x2="210" y2="5" style="visibility: inherit;" fill="rgb(0, 0, 0)" stroke="rgb(204, 204, 204)" stroke-width="1px"></line><line x1="233.33333333333334" y1="0" x2="233.33333333333334" y2="5" style="visibility: inherit;" fill="rgb(0, 0, 0)" stroke="rgb(204, 204, 204)" stroke-width="1px"></line><line x1="256.66666666666663" y1="0" x2="256.66666666666663" y2="5" style="visibility: inherit;" fill="rgb(0, 0, 0)" stroke="rgb(204, 204, 204)" stroke-width="1px"></line><line x1="280" y1="0" x2="280" y2="5" style="visibility: inherit;" fill="rgb(0, 0, 0)" stroke="rgb(204, 204, 204)" stroke-width="1px"></line></g><g transform="translate(0, 8)"><text x="0" y="0" dx="0em" dy="0.95em" style="text-anchor: middle; visibility: hidden; font-family: Roboto, sans-serif; font-size: 12px; font-weight: 200;" fill="rgb(255, 255, 255)" stroke="none" stroke-width="1px">-5</text><text x="23.333333333333332" y="0" dx="0em" dy="0.95em" style="text-anchor: middle; visibility: inherit; font-family: Roboto, sans-serif; font-size: 12px; font-weight: 200;" fill="rgb(255, 255, 255)" stroke="none" stroke-width="1px">0</text><text x="46.666666666666664" y="0" dx="0em" dy="0.95em" style="text-anchor: middle; visibility: inherit; font-family: Roboto, sans-serif; font-size: 12px; font-weight: 200;" fill="rgb(255, 255, 255)" stroke="none" stroke-width="1px">5</text><text x="70" y="0" dx="0em" dy="0.95em" style="text-anchor: middle; visibility: inherit; font-family: Roboto, sans-serif; font-size: 12px; font-weight: 200;" fill="rgb(255, 255, 255)" stroke="none" stroke-width="1px">10</text><text x="93.33333333333333" y="0" dx="0em" dy="0.95em" style="text-anchor: middle; visibility: inherit; font-family: Roboto, sans-serif; font-size: 12px; font-weight: 200;" fill="rgb(255, 255, 255)" stroke="none" stroke-width="1px">15</text><text x="116.66666666666667" y="0" dx="0em" dy="0.95em" style="text-anchor: middle; visibility: inherit; font-family: Roboto, sans-serif; font-size: 12px; font-weight: 200;" fill="rgb(255, 255, 255)" stroke="none" stroke-width="1px">20</text><text x="140" y="0" dx="0em" dy="0.95em" style="text-anchor: middle; visibility: inherit; font-family: Roboto, sans-serif; font-size: 12px; font-weight: 200;" fill="rgb(255, 255, 255)" stroke="none" stroke-width="1px">25</text><text x="163.33333333333334" y="0" dx="0em" dy="0.95em" style="text-anchor: middle; visibility: inherit; font-family: Roboto, sans-serif; font-size: 12px; font-weight: 200;" fill="rgb(255, 255, 255)" stroke="none" stroke-width="1px">30</text><text x="186.66666666666666" y="0" dx="0em" dy="0.95em" style="text-anchor: middle; visibility: inherit; font-family: Roboto, sans-serif; font-size: 12px; font-weight: 200;" fill="rgb(255, 255, 255)" stroke="none" stroke-width="1px">35</text><text x="210" y="0" dx="0em" dy="0.95em" style="text-anchor: middle; visibility: inherit; font-family: Roboto, sans-serif; font-size: 12px; font-weight: 200;" fill="rgb(255, 255, 255)" stroke="none" stroke-width="1px">40</text><text x="233.33333333333334" y="0" dx="0em" dy="0.95em" style="text-anchor: middle; visibility: inherit; font-family: Roboto, sans-serif; font-size: 12px; font-weight: 200;" fill="rgb(255, 255, 255)" stroke="none" stroke-width="1px">45</text><text x="256.66666666666663" y="0" dx="0em" dy="0.95em" style="text-anchor: middle; visibility: inherit; font-family: Roboto, sans-serif; font-size: 12px; font-weight: 200;" fill="rgb(255, 255, 255)" stroke="none" stroke-width="1px">50</text><text x="280" y="0" dx="0em" dy="0.95em" style="text-anchor: middle; visibility: hidden; font-family: Roboto, sans-serif; font-size: 12px; font-weight: 200;" fill="rgb(255, 255, 255)" stroke="none" stroke-width="1px">55</text></g><line x1="0" y1="0" x2="280" y2="0" fill="rgb(0, 0, 0)" stroke="rgb(204, 204, 204)" stroke-width="1px"></line></g></g></g></g></svg>