<svg viewBox="0 0 330 200" xmlns="http://www.w3.org/2000/svg"><g><g><g><g><g><line x1="50" y1="177" x2="45" y2="177" style="visibility: inherit;" fill="rgb(0, 0, 0)" stroke="rgb(204, 204, 204)" stroke-width="1px"></line><line x1="50" y1="154.87499999999997" x2="45" y2="154.87499999999997" style="visibility: inherit;" fill="rgb(0, 0, 0)" stroke="rgb(204, 204, 204)" stroke-width="1px"></line><line x1="50" y1="132.75000000000006" x2="45" y2="132.75000000000006" style="visibility: inherit;" fill="rgb(0, 0, 0)" stroke="rgb(204, 204, 204)" stroke-width="1px"></line><line x1="50" y1="110.62500000000004" x2="45" y2="110.62500000000004" style="visibility: inherit;" fill="rgb(0, 0, 0)" stroke="rgb(204, 204, 204)" stroke-width="1px"></line><line x1="50" y1="88.5" x2="45" y2="88.5" style="visibility: inherit;" fill="rgb(0, 0, 0)" stroke="rgb(204, 204, 204)" stroke-width="1px"></line><line x1="50" y1="66.37499999999996" x2="45" y2="66.37499999999996" style="visibility: inherit;" fill="rgb(0, 0, 0)" stroke="rgb(204, 204, 204)" stroke-width="1px"></line><line x1="50" y1="44.24999999999994" x2="45" y2="44.24999999999994" style="visibility: inherit;" fill="rgb(0, 0, 0)" stroke="rgb(204, 204, 204)" stroke-width="1px"></line><line x1="50" y1="22.1249999999999" x2="45" y2="22.1249999999999" style="visibility: inherit;" fill="rgb(0, 0, 0)" stroke="rgb(204, 204, 204)" stroke-width="1px"></line><line x1="50" y1="0" x2="45" y2="0" style="visibility: inherit;" fill="rgb(0, 0, 0)" stroke="rgb(204, 204, 204)" stroke-width="1px"></line></g><g transform="translate(40, 0)"><text x="0" y="177" dx="0em" dy="0.3em" style="text-anchor: end; visibility: hidden; font-family: Roboto, sans-serif; font-size: 12px; font-weight: 200;" fill="rgb(255, 255, 255)" stroke="none" stroke-width="1px">0.78</text><text x="0" y="154.87499999999997" dx="0em" dy="0.3em" style="text-anchor: end; visibility: inherit; font-family: Roboto, sans-serif; font-size: 12px; font-weight: 200;" fill="rgb(255, 255, 255)" stroke="none" stroke-width="1px">0.8</text><text x="0" y="132.75000000000006" dx="0em" dy="0.3em" style="text-anchor: end; visibility: hidden; font-family: Roboto, sans-serif; font-size: 12px; font-weight: 200;" fill="rgb(255, 255, 255)" stroke="none" stroke-width="1px">0.82</text><text x="0" y="110.62500000000004" dx="0em" dy="0.3em" style="text-anchor: end; visibility: inherit; font-family: Roboto, sans-serif; font-size: 12px; font-weight: 200;" fill="rgb(255, 255, 255)" stroke="none" stroke-width="1px">0.84</text><text x="0" y="88.5" dx="0em" dy="0.3em" style="text-anchor: end; visibility: hidden; font-family: Roboto, sans-serif; font-size: 12px; font-weight: 200;" fill="rgb(255, 255, 255)" stroke="none" stroke-width="1px">0.86</text><text x="0" y="66.37499999999996" dx="0em" dy="0.3em" style="text-anchor: end; visibility: inherit; font-family: Roboto, sans-serif; font-size: 12px; font-weight: 200;" fill="rgb(255, 255, 255)" stroke="none" stroke-width="1px">0.88</text><text x="0" y="44.24999999999994" dx="0em" dy="0.3em" style="text-anchor: end; visibility: hidden; font-family: Roboto, sans-serif; font-size: 12px; font-weight: 200;" fill="rgb(255, 255, 255)" stroke="none" stroke-width="1px">0.9</text><text x="0" y="22.1249999999999" dx="0em" dy="0.3em" style="text-anchor: end; visibility: inherit; font-family: Roboto, sans-serif; font-size: 12px; font-weight: 200;" fill="rgb(255, 255, 255)" stroke="none" stroke-width="1px">0.92</text><text x="0" y="0" dx="0em" dy="0.3em" style="text-anchor: end; visibility: hidden; font-family: Roboto, sans-serif; font-size: 12px; font-weight: 200;" fill="rgb(255, 255, 255)" stroke="none" stroke-width="1px">0.94</text></g><line x1="50" y1="0" x2="50" y2="177" fill="rgb(0, 0, 0)" stroke="rgb(204, 204, 204)" stroke-width="1px"></line></g></g><g transform="translate(50, 0)" clip-path="url(#clip_0)"><clipPath id="clip_0"><rect width="178" height="177"></rect></clipPath><g><g><g><line x1="0" y1="0" x2="0" y2="177" fill="rgb(0, 0, 0)" stroke="rgb(189, 189, 189)" stroke-width="1px" opacity="0.25"></line><line x1="14.833333333333332" y1="0" x2="14.833333333333332" y2="177" fill="rgb(0, 0, 0)" stroke="rgb(189, 189, 189)" stroke-width="1px" opacity="0.25"></line><line x1="29.666666666666664" y1="0" x2="29.666666666666664" y2="177" fill="rgb(0, 0, 0)" stroke="rgb(189, 189, 189)" stroke-width="1px" opacity="0.25"></line><line x1="44.5" y1="0" x2="44.5" y2="177" fill="rgb(0, 0, 0)" stroke="rgb(189, 189, 189)" stroke-width="1px" opacity="0.25"></line><line x1="59.33333333333333" y1="0" x2="59.33333333333333" y2="177" fill="rgb(0, 0, 0)" stroke="rgb(189, 189, 189)" stroke-width="1px" opacity="0.25"></line><line x1="74.16666666666667" y1="0" x2="74.16666666666667" y2="177" fill="rgb(0, 0, 0)" stroke="rgb(189, 189, 189)" stroke-width="1px" opacity="0.25"></line><line x1="89" y1="0" x2="89" y2="177" fill="rgb(0, 0, 0)" stroke="rgb(189, 189, 189)" stroke-width="1px" opacity="0.25"></line><line x1="103.83333333333334" y1="0" x2="103.83333333333334" y2="177" fill="rgb(0, 0, 0)" stroke="rgb(189, 189, 189)" stroke-width="1px" opacity="0.25"></line><line x1="118.66666666666666" y1="0" x2="118.66666666666666" y2="177" fill="rgb(0, 0, 0)" stroke="rgb(189, 189, 189)" stroke-width="1px" opacity="0.25"></line><line x1="133.5" y1="0" x2="133.5" y2="177" fill="rgb(0, 0, 0)" stroke="rgb(189, 189, 189)" stroke-width="1px" opacity="0.25"></line><line x1="148.33333333333334" y1="0" x2="148.33333333333334" y2="177" fill="rgb(0, 0, 0)" stroke="rgb(189, 189, 189)" stroke-width="1px" opacity="0.25"></line><line x1="163.16666666666666" y1="0" x2="163.16666666666666" y2="177" fill="rgb(0, 0, 0)" stroke="rgb(189, 189, 189)" stroke-width="1px" opacity="0.25"></line><line x1="178" y1="0" x2="178" y2="177" fill="rgb(0, 0, 0)" stroke="rgb(189, 189, 189)" stroke-width="1px" opacity="0.25"></line></g><g><line x1="0" y1="177" x2="178" y2="177" fill="rgb(0, 0, 0)" stroke="rgb(189, 189, 189)" stroke-width="1px" opacity="0.25"></line><line x1="0" y1="154.87499999999997" x2="178" y2="154.87499999999997" fill="rgb(0, 0, 0)" stroke="rgb(189, 189, 189)" stroke-width="1px" opacity="0.25"></line><line x1="0" y1="132.75000000000006" x2="178" y2="132.75000000000006" fill="rgb(0, 0, 0)" stroke="rgb(189, 189, 189)" stroke-width="1px" opacity="0.25"></line><line x1="0" y1="110.62500000000004" x2="178" y2="110.62500000000004" fill="rgb(0, 0, 0)" stroke="rgb(189, 189, 189)" stroke-width="1px" opacity="0.25"></line><line x1="0" y1="88.5" x2="178" y2="88.5" fill="rgb(0, 0, 0)" stroke="rgb(189, 189, 189)" stroke-width="1px" opacity="0.25"></line><line x1="0" y1="66.37499999999996" x2="178" y2="66.37499999999996" fill="rgb(0, 0, 0)" stroke="rgb(189, 189, 189)" stroke-width="1px" opacity="0.25"></line><line x1="0" y1="44.24999999999994" x2="178" y2="44.24999999999994" fill="rgb(0, 0, 0)" stroke="rgb(189, 189, 189)" stroke-width="1px" opacity="0.25"></line><line x1="0" y1="22.1249999999999" x2="178" y2="22.1249999999999" fill="rgb(0, 0, 0)" stroke="rgb(189, 189, 189)" stroke-width="1px" opacity="0.25"></line><line x1="0" y1="0" x2="178" y2="0" fill="rgb(0, 0, 0)" stroke="rgb(189, 189, 189)" stroke-width="1px" opacity="0.25"></line></g></g></g><g><g><line x1="0" y1="1039.8750000000005" x2="178" y2="1039.8750000000005" fill="rgb(0, 0, 0)" stroke="rgb(153, 153, 153)" stroke-width="1.5px"></line></g></g><g><g><line x1="14.833333333333332" y1="0" x2="14.833333333333332" y2="177" fill="rgb(0, 0, 0)" stroke="rgb(153, 153, 153)" stroke-width="1.5px"></line></g></g><g><g><g><g><g><path stroke="rgb(238, 51, 119)" stroke-width="2px" d="M14.833333333333332,236.82966868579396L17.8,169.53280841186645L20.766666666666666,131.43490728462226L23.733333333333334,107.12830029833405L26.7,91.13184085031251L29.666666666666664,79.50673193918082L32.63333333333333,70.27113485224652L35.6,63.39787118102422L38.56666666666667,57.89578277430422L41.53333333333333,53.5172538696655L44.5,49.83387199815811L47.46666666666667,47.07806963431084L50.43333333333333,44.763809771906516L53.4,42.639112140253644L56.36666666666667,40.40617540884647L59.33333333333333,38.2555862321054L62.3,36.559930437361864L65.26666666666667,34.6207661036481L68.23333333333333,33.236119731068555L71.2,31.852254401015667L74.16666666666667,30.800702392427148L77.13333333333334,29.948522699562247L80.10000000000001,29.068469501999196L83.06666666666666,27.987328125676036L86.03333333333333,26.748634913747356L89,25.78418689909229L91.96666666666668,24.615508551985883L94.93333333333334,23.877429959275602L97.9,23.471455434643158L100.86666666666666,22.527243691369435L103.83333333333334,22.07133377565519L106.8,21.392165856987386L109.76666666666667,20.284038137586684L112.73333333333333,19.76667722840478L115.7,19.050638709749073L118.66666666666666,18.14162259611781L121.63333333333334,17.743728619218754L124.6,16.95185457257493L127.56666666666666,16.366113164240904L130.53333333333333,15.756535653381013L133.5,15.058911826115787L136.46666666666667,14.714108559860778L139.43333333333334,13.917216612689511L142.4,13.697214110928064L145.36666666666667,13.08581960447473L148.33333333333334,12.387105579617776L151.29999999999998,11.82038785541503L154.26666666666668,11.332867911592714L157.23333333333332,10.92971258826633L160.20000000000002,10.577202412289948" style="fill: none;" fill="none"></path></g><g><path stroke="rgb(51, 187, 238)" stroke-width="2px" d="M20.766666666666666,220.57786153530597L23.733333333333334,166.19277588908074L26.7,131.84560859281947L29.666666666666664,109.04630622755693L32.63333333333333,93.07009246256857L35.6,81.39390339068767L38.56666666666667,72.96909534877393L41.53333333333333,66.72606185106092L44.5,61.292789033118176L47.46666666666667,57.07539221128368L50.43333333333333,53.67390818721296L53.4,50.704040832583786L56.36666666666667,48.10277581015411L59.33333333333333,45.85118259822577L62.3,43.65237340666837L65.26666666666667,41.853910794576976L68.23333333333333,40.08348592150977L71.2,38.32064745872865L74.16666666666667,36.89422789359942L77.13333333333334,35.52215042865625L80.10000000000001,34.38547187517284L83.06666666666666,33.08581651619166L86.03333333333333,31.79899173724646L89,30.722662429301568L91.96666666666668,29.652807446245248L94.93333333333334,28.780429782349497L97.9,27.897485015434565L100.86666666666666,26.796144413444196L103.83333333333334,25.97861960861729L106.8,25.017943021692588L109.76666666666667,24.211071874138998L112.73333333333333,23.219915132399613L115.7,22.256471450858758L118.66666666666666,21.567788269410144L121.63333333333334,20.887240802778884L124.6,19.9073384996828L127.56666666666666,19.227216301629284L130.53333333333333,18.284467861744673L133.5,17.562098219824406L136.46666666666667,16.90741609591475L139.43333333333334,16.210396933701453L142.4,15.404999624438704L145.36666666666667,14.958633566301927L148.33333333333334,14.36814150472876L151.29999999999998,13.820253361803022L154.26666666666668,13.23341418476069L157.23333333333332,12.530997193870345L160.20000000000002,11.915954093342398" style="fill: none;" fill="none"></path></g></g></g></g><g opacity="0.2"><g><g><g><path stroke="rgb(238, 51, 119)" stroke-width="2px" d="M14.833333333333332,236.82966868579396L17.8,129.15469224750996L20.766666666666666,94.86092220246792L23.733333333333334,78.54373048245905L26.7,70.24686339497565L29.666666666666664,63.42502127587793L32.63333333333333,57.064083248376804L35.6,53.376586765050845L38.56666666666667,49.78127110004421L41.53333333333333,47.01564873754974L44.5,44.34220719337459L47.46666666666667,42.959363043308215L50.43333333333333,41.29997643828388L53.4,39.4562281966209L56.36666666666667,37.059395045041995L59.33333333333333,35.03121922910209L62.3,34.01716428995128L65.26666666666667,31.712511956691703L68.23333333333333,31.159361109137496L71.2,29.776582896709403L74.16666666666667,29.223432049155196L77.13333333333334,28.67028120160099L80.10000000000001,27.7484070807695L83.06666666666666,26.365628868341407L86.03333333333333,24.89060389995571L89,24.337518990039786L91.96666666666668,22.86249402165409L94.93333333333334,22.77031320333477L97.9,22.86249402165409L100.86666666666666,21.11092659831043L103.83333333333334,21.387469053268394L106.8,20.373414114117583L109.76666666666667,18.621846690773904L112.73333333333333,18.99063590168947L115.7,17.97658096253866L118.66666666666666,16.778098449110924L121.63333333333334,17.14688766002649L124.6,15.764043509960116L127.56666666666666,15.487501055002154L130.53333333333333,14.842169389128626L133.5,14.012476086616457L136.46666666666667,14.196903660893382L139.43333333333334,12.721878692507685L142.4,13.367210358381213L145.36666666666667,12.168727844953478L148.33333333333334,11.33903454244131L151.29999999999998,10.970311269164027L154.26666666666668,10.601587995886744L157.23333333333332,10.3249796032905L160.20000000000002,10.048437148332537" style="fill: none;" fill="none"></path></g><g><path stroke="rgb(51, 187, 238)" stroke-width="2px" d="M17.8,193.178886204958L20.766666666666666,128.50936058163643L23.733333333333334,102.23591516911983L26.7,87.00194697082041L29.666666666666664,77.50666330754756L32.63333333333333,70.22385115921496L35.6,64.36990763247012L38.56666666666667,60.54413992166517L41.53333333333333,57.45588469505306L44.5,53.19215919077392L47.46666666666667,50.77224786579605L50.43333333333333,48.58278858661647L53.4,46.25505807995792L56.36666666666667,44.20393596589561L59.33333333333333,42.47538077831264L62.3,40.3550900816917L65.26666666666667,39.15667350590225L68.23333333333333,37.42811831831928L71.2,35.67655089497562L74.16666666666667,34.75467677414413L77.13333333333334,33.46407938003536L80.10000000000001,32.68047648668285L83.06666666666666,31.136348873376807L86.03333333333333,29.868763715028724L89,29.108173057436904L91.96666666666668,28.048027709126433L94.93333333333334,27.471864625811538L97.9,26.57306867837902L100.86666666666666,25.144134119152984L103.83333333333334,24.75233267247673L106.8,23.576928332447967L109.76666666666667,23.00076524913307L112.73333333333333,21.733180090784987L115.7,20.811305969953498L118.66666666666666,20.534763514995536L121.63333333333334,19.86641961336132L124.6,18.437485054135262L127.56666666666666,18.20703300833696L130.53333333333333,16.870345205068528L133.5,16.478543758392274L136.46666666666667,15.925392910838069L139.43333333333334,15.164868190884532L142.4,14.196903660893382L145.36666666666667,14.289084479212702L148.33333333333334,13.482403412461222L151.29999999999998,12.998421147465647L154.26666666666668,12.353155419230403L157.23333333333332,11.477371707558573L160.20000000000002,10.993389442562998" style="fill: none;" fill="none"></path></g></g></g></g></g></g><g transform="translate(50, 177)" clip-path="url(#clip_1)"><clipPath id="clip_1"><rect width="178" height="23"></rect></clipPath><g><g><line x1="0" y1="0" x2="0" y2="5" style="visibility: inherit;" fill="rgb(0, 0, 0)" stroke="rgb(204, 204, 204)" stroke-width="1px"></line><line x1="14.833333333333332" y1="0" x2="14.833333333333332" y2="5" style="visibility: inherit;" fill="rgb(0, 0, 0)" stroke="rgb(204, 204, 204)" stroke-width="1px"></line><line x1="29.666666666666664" y1="0" x2="29.666666666666664" y2="5" style="visibility: inherit;" fill="rgb(0, 0, 0)" stroke="rgb(204, 204, 204)" stroke-width="1px"></line><line x1="44.5" y1="0" x2="44.5" y2="5" style="visibility: inherit;" fill="rgb(0, 0, 0)" stroke="rgb(204, 204, 204)" stroke-width="1px"></line><line x1="59.33333333333333" y1="0" x2="59.33333333333333" y2="5" style="visibility: inherit;" fill="rgb(0, 0, 0)" stroke="rgb(204, 204, 204)" stroke-width="1px"></line><line x1="74.16666666666667" y1="0" x2="74.16666666666667" y2="5" style="visibility: inherit;" fill="rgb(0, 0, 0)" stroke="rgb(204, 204, 204)" stroke-width="1px"></line><line x1="89" y1="0" x2="89" y2="5" style="visibility: inherit;" fill="rgb(0, 0, 0)" stroke="rgb(204, 204, 204)" stroke-width="1px"></line><line x1="103.83333333333334" y1="0" x2="103.83333333333334" y2="5" style="visibility: inherit;" fill="rgb(0, 0, 0)" stroke="rgb(204, 204, 204)" stroke-width="1px"></line><line x1="118.66666666666666" y1="0" x2="118.66666666666666" y2="5" style="visibility: inherit;" fill="rgb(0, 0, 0)" stroke="rgb(204, 204, 204)" stroke-width="1px"></line><line x1="133.5" y1="0" x2="133.5" y2="5" style="visibility: inherit;" fill="rgb(0, 0, 0)" stroke="rgb(204, 204, 204)" stroke-width="1px"></line><line x1="148.33333333333334" y1="0" x2="148.33333333333334" y2="5" style="visibility: inherit;" fill="rgb(0, 0, 0)" stroke="rgb(204, 204, 204)" stroke-width="1px"></line><line x1="163.16666666666666" y1="0" x2="163.16666666666666" y2="5" style="visibility: inherit;" fill="rgb(0, 0, 0)" stroke="rgb(204, 204, 204)" stroke-width="1px"></line><line x1="178" y1="0" x2="178" y2="5" style="visibility: inherit;" fill="rgb(0, 0, 0)" stroke="rgb(204, 204, 204)" stroke-width="1px"></line></g><g transform="translate(0, 8)"><text x="0" y="0" dx="0em" dy="0.95em" style="text-anchor: middle; visibility: hidden; font-family: Roboto, sans-serif; font-size: 12px; font-weight: 200;" fill="rgb(255, 255, 255)" stroke="none" stroke-width="1px">-5</text><text x="14.833333333333332" y="0" dx="0em" dy="0.95em" style="text-anchor: middle; visibility: inherit; font-family: Roboto, sans-serif; font-size: 12px; font-weight: 200;" fill="rgb(255, 255, 255)" stroke="none" stroke-width="1px">0</text><text x="29.666666666666664" y="0" dx="0em" dy="0.95em" style="text-anchor: middle; visibility: hidden; font-family: Roboto, sans-serif; font-size: 12px; font-weight: 200;" fill="rgb(255, 255, 255)" stroke="none" stroke-width="1px">5</text><text x="44.5" y="0" dx="0em" dy="0.95em" style="text-anchor: middle; visibility: inherit; font-family: Roboto, sans-serif; font-size: 12px; font-weight: 200;" fill="rgb(255, 255, 255)" stroke="none" stroke-width="1px">10</text><text x="59.33333333333333" y="0" dx="0em" dy="0.95em" style="text-anchor: middle; visibility: hidden; font-family: Roboto, sans-serif; font-size: 12px; font-weight: 200;" fill="rgb(255, 255, 255)" stroke="none" stroke-width="1px">15</text><text x="74.16666666666667" y="0" dx="0em" dy="0.95em" style="text-anchor: middle; visibility: inherit; font-family: Roboto, sans-serif; font-size: 12px; font-weight: 200;" fill="rgb(255, 255, 255)" stroke="none" stroke-width="1px">20</text><text x="89" y="0" dx="0em" dy="0.95em" style="text-anchor: middle; visibility: hidden; font-family: Roboto, sans-serif; font-size: 12px; font-weight: 200;" fill="rgb(255, 255, 255)" stroke="none" stroke-width="1px">25</text><text x="103.83333333333334" y="0" dx="0em" dy="0.95em" style="text-anchor: middle; visibility: inherit; font-family: Roboto, sans-serif; font-size: 12px; font-weight: 200;" fill="rgb(255, 255, 255)" stroke="none" stroke-width="1px">30</text><text x="118.66666666666666" y="0" dx="0em" dy="0.95em" style="text-anchor: middle; visibility: hidden; font-family: Roboto, sans-serif; font-size: 12px; font-weight: 200;" fill="rgb(255, 255, 255)" stroke="none" stroke-width="1px">35</text><text x="133.5" y="0" dx="0em" dy="0.95em" style="text-anchor: middle; visibility: inherit; font-family: Roboto, sans-serif; font-size: 12px; font-weight: 200;" fill="rgb(255, 255, 255)" stroke="none" stroke-width="1px">40</text><text x="148.33333333333334" y="0" dx="0em" dy="0.95em" style="text-anchor: middle; visibility: hidden; font-family: Roboto, sans-serif; font-size: 12px; font-weight: 200;" fill="rgb(255, 255, 255)" stroke="none" stroke-width="1px">45</text><text x="163.16666666666666" y="0" dx="0em" dy="0.95em" style="text-anchor: middle; visibility: inherit; font-family: Roboto, sans-serif; font-size: 12px; font-weight: 200;" fill="rgb(255, 255, 255)" stroke="none" stroke-width="1px">50</text><text x="178" y="0" dx="0em" dy="0.95em" style="text-anchor: middle; visibility: hidden; font-family: Roboto, sans-serif; font-size: 12px; font-weight: 200;" fill="rgb(255, 255, 255)" stroke="none" stroke-width="1px">55</text></g><line x1="0" y1="0" x2="178" y2="0" fill="rgb(0, 0, 0)" stroke="rgb(204, 204, 204)" stroke-width="1px"></line></g></g></g></g></svg>