<svg viewBox="0 0 330 200" xmlns="http://www.w3.org/2000/svg"><g><g><g><g><g><line x1="50" y1="177" x2="45" y2="177" style="visibility: inherit;" fill="rgb(0, 0, 0)" stroke="rgb(204, 204, 204)" stroke-width="1px"></line><line x1="50" y1="164.35714285714286" x2="45" y2="164.35714285714286" style="visibility: inherit;" fill="rgb(0, 0, 0)" stroke="rgb(204, 204, 204)" stroke-width="1px"></line><line x1="50" y1="151.71428571428572" x2="45" y2="151.71428571428572" style="visibility: inherit;" fill="rgb(0, 0, 0)" stroke="rgb(204, 204, 204)" stroke-width="1px"></line><line x1="50" y1="139.07142857142858" x2="45" y2="139.07142857142858" style="visibility: inherit;" fill="rgb(0, 0, 0)" stroke="rgb(204, 204, 204)" stroke-width="1px"></line><line x1="50" y1="126.42857142857142" x2="45" y2="126.42857142857142" style="visibility: inherit;" fill="rgb(0, 0, 0)" stroke="rgb(204, 204, 204)" stroke-width="1px"></line><line x1="50" y1="113.78571428571428" x2="45" y2="113.78571428571428" style="visibility: inherit;" fill="rgb(0, 0, 0)" stroke="rgb(204, 204, 204)" stroke-width="1px"></line><line x1="50" y1="101.14285714285714" x2="45" y2="101.14285714285714" style="visibility: inherit;" fill="rgb(0, 0, 0)" stroke="rgb(204, 204, 204)" stroke-width="1px"></line><line x1="50" y1="88.49999999999999" x2="45" y2="88.49999999999999" style="visibility: inherit;" fill="rgb(0, 0, 0)" stroke="rgb(204, 204, 204)" stroke-width="1px"></line><line x1="50" y1="75.85714285714286" x2="45" y2="75.85714285714286" style="visibility: inherit;" fill="rgb(0, 0, 0)" stroke="rgb(204, 204, 204)" stroke-width="1px"></line><line x1="50" y1="63.21428571428571" x2="45" y2="63.21428571428571" style="visibility: inherit;" fill="rgb(0, 0, 0)" stroke="rgb(204, 204, 204)" stroke-width="1px"></line><line x1="50" y1="50.57142857142857" x2="45" y2="50.57142857142857" style="visibility: inherit;" fill="rgb(0, 0, 0)" stroke="rgb(204, 204, 204)" stroke-width="1px"></line><line x1="50" y1="37.92857142857141" x2="45" y2="37.92857142857141" style="visibility: inherit;" fill="rgb(0, 0, 0)" stroke="rgb(204, 204, 204)" stroke-width="1px"></line><line x1="50" y1="25.285714285714256" x2="45" y2="25.285714285714256" style="visibility: inherit;" fill="rgb(0, 0, 0)" stroke="rgb(204, 204, 204)" stroke-width="1px"></line><line x1="50" y1="12.642857142857157" x2="45" y2="12.642857142857157" style="visibility: inherit;" fill="rgb(0, 0, 0)" stroke="rgb(204, 204, 204)" stroke-width="1px"></line><line x1="50" y1="0" x2="45" y2="0" style="visibility: inherit;" fill="rgb(0, 0, 0)" stroke="rgb(204, 204, 204)" stroke-width="1px"></line></g><g transform="translate(40, 0)"><text x="0" y="177" dx="0em" dy="0.3em" style="text-anchor: end; visibility: hidden; font-family: Roboto, sans-serif; font-size: 12px; font-weight: 200;" fill="rgb(255, 255, 255)" stroke="none" stroke-width="1px">0.2</text><text x="0" y="164.35714285714286" dx="0em" dy="0.3em" style="text-anchor: end; visibility: inherit; font-family: Roboto, sans-serif; font-size: 12px; font-weight: 200;" fill="rgb(255, 255, 255)" stroke="none" stroke-width="1px">0.25</text><text x="0" y="151.71428571428572" dx="0em" dy="0.3em" style="text-anchor: end; visibility: hidden; font-family: Roboto, sans-serif; font-size: 12px; font-weight: 200;" fill="rgb(255, 255, 255)" stroke="none" stroke-width="1px">0.3</text><text x="0" y="139.07142857142858" dx="0em" dy="0.3em" style="text-anchor: end; visibility: inherit; font-family: Roboto, sans-serif; font-size: 12px; font-weight: 200;" fill="rgb(255, 255, 255)" stroke="none" stroke-width="1px">0.35</text><text x="0" y="126.42857142857142" dx="0em" dy="0.3em" style="text-anchor: end; visibility: hidden; font-family: Roboto, sans-serif; font-size: 12px; font-weight: 200;" fill="rgb(255, 255, 255)" stroke="none" stroke-width="1px">0.4</text><text x="0" y="113.78571428571428" dx="0em" dy="0.3em" style="text-anchor: end; visibility: inherit; font-family: Roboto, sans-serif; font-size: 12px; font-weight: 200;" fill="rgb(255, 255, 255)" stroke="none" stroke-width="1px">0.45</text><text x="0" y="101.14285714285714" dx="0em" dy="0.3em" style="text-anchor: end; visibility: hidden; font-family: Roboto, sans-serif; font-size: 12px; font-weight: 200;" fill="rgb(255, 255, 255)" stroke="none" stroke-width="1px">0.5</text><text x="0" y="88.49999999999999" dx="0em" dy="0.3em" style="text-anchor: end; visibility: inherit; font-family: Roboto, sans-serif; font-size: 12px; font-weight: 200;" fill="rgb(255, 255, 255)" stroke="none" stroke-width="1px">0.55</text><text x="0" y="75.85714285714286" dx="0em" dy="0.3em" style="text-anchor: end; visibility: hidden; font-family: Roboto, sans-serif; font-size: 12px; font-weight: 200;" fill="rgb(255, 255, 255)" stroke="none" stroke-width="1px">0.6</text><text x="0" y="63.21428571428571" dx="0em" dy="0.3em" style="text-anchor: end; visibility: inherit; font-family: Roboto, sans-serif; font-size: 12px; font-weight: 200;" fill="rgb(255, 255, 255)" stroke="none" stroke-width="1px">0.65</text><text x="0" y="50.57142857142857" dx="0em" dy="0.3em" style="text-anchor: end; visibility: hidden; font-family: Roboto, sans-serif; font-size: 12px; font-weight: 200;" fill="rgb(255, 255, 255)" stroke="none" stroke-width="1px">0.7</text><text x="0" y="37.92857142857141" dx="0em" dy="0.3em" style="text-anchor: end; visibility: inherit; font-family: Roboto, sans-serif; font-size: 12px; font-weight: 200;" fill="rgb(255, 255, 255)" stroke="none" stroke-width="1px">0.75</text><text x="0" y="25.285714285714256" dx="0em" dy="0.3em" style="text-anchor: end; visibility: hidden; font-family: Roboto, sans-serif; font-size: 12px; font-weight: 200;" fill="rgb(255, 255, 255)" stroke="none" stroke-width="1px">0.8</text><text x="0" y="12.642857142857157" dx="0em" dy="0.3em" style="text-anchor: end; visibility: inherit; font-family: Roboto, sans-serif; font-size: 12px; font-weight: 200;" fill="rgb(255, 255, 255)" stroke="none" stroke-width="1px">0.85</text><text x="0" y="0" dx="0em" dy="0.3em" style="text-anchor: end; visibility: hidden; font-family: Roboto, sans-serif; font-size: 12px; font-weight: 200;" fill="rgb(255, 255, 255)" stroke="none" stroke-width="1px">0.9</text></g><line x1="50" y1="0" x2="50" y2="177" fill="rgb(0, 0, 0)" stroke="rgb(204, 204, 204)" stroke-width="1px"></line></g></g><g transform="translate(50, 0)" clip-path="url(#clip_0)"><clipPath id="clip_0"><rect width="178" height="177"></rect></clipPath><g><g><g><line x1="0" y1="0" x2="0" y2="177" fill="rgb(0, 0, 0)" stroke="rgb(189, 189, 189)" stroke-width="1px" opacity="0.25"></line><line x1="14.833333333333332" y1="0" x2="14.833333333333332" y2="177" fill="rgb(0, 0, 0)" stroke="rgb(189, 189, 189)" stroke-width="1px" opacity="0.25"></line><line x1="29.666666666666664" y1="0" x2="29.666666666666664" y2="177" fill="rgb(0, 0, 0)" stroke="rgb(189, 189, 189)" stroke-width="1px" opacity="0.25"></line><line x1="44.5" y1="0" x2="44.5" y2="177" fill="rgb(0, 0, 0)" stroke="rgb(189, 189, 189)" stroke-width="1px" opacity="0.25"></line><line x1="59.33333333333333" y1="0" x2="59.33333333333333" y2="177" fill="rgb(0, 0, 0)" stroke="rgb(189, 189, 189)" stroke-width="1px" opacity="0.25"></line><line x1="74.16666666666667" y1="0" x2="74.16666666666667" y2="177" fill="rgb(0, 0, 0)" stroke="rgb(189, 189, 189)" stroke-width="1px" opacity="0.25"></line><line x1="89" y1="0" x2="89" y2="177" fill="rgb(0, 0, 0)" stroke="rgb(189, 189, 189)" stroke-width="1px" opacity="0.25"></line><line x1="103.83333333333334" y1="0" x2="103.83333333333334" y2="177" fill="rgb(0, 0, 0)" stroke="rgb(189, 189, 189)" stroke-width="1px" opacity="0.25"></line><line x1="118.66666666666666" y1="0" x2="118.66666666666666" y2="177" fill="rgb(0, 0, 0)" stroke="rgb(189, 189, 189)" stroke-width="1px" opacity="0.25"></line><line x1="133.5" y1="0" x2="133.5" y2="177" fill="rgb(0, 0, 0)" stroke="rgb(189, 189, 189)" stroke-width="1px" opacity="0.25"></line><line x1="148.33333333333334" y1="0" x2="148.33333333333334" y2="177" fill="rgb(0, 0, 0)" stroke="rgb(189, 189, 189)" stroke-width="1px" opacity="0.25"></line><line x1="163.16666666666666" y1="0" x2="163.16666666666666" y2="177" fill="rgb(0, 0, 0)" stroke="rgb(189, 189, 189)" stroke-width="1px" opacity="0.25"></line><line x1="178" y1="0" x2="178" y2="177" fill="rgb(0, 0, 0)" stroke="rgb(189, 189, 189)" stroke-width="1px" opacity="0.25"></line></g><g><line x1="0" y1="177" x2="178" y2="177" fill="rgb(0, 0, 0)" stroke="rgb(189, 189, 189)" stroke-width="1px" opacity="0.25"></line><line x1="0" y1="164.35714285714286" x2="178" y2="164.35714285714286" fill="rgb(0, 0, 0)" stroke="rgb(189, 189, 189)" stroke-width="1px" opacity="0.25"></line><line x1="0" y1="151.71428571428572" x2="178" y2="151.71428571428572" fill="rgb(0, 0, 0)" stroke="rgb(189, 189, 189)" stroke-width="1px" opacity="0.25"></line><line x1="0" y1="139.07142857142858" x2="178" y2="139.07142857142858" fill="rgb(0, 0, 0)" stroke="rgb(189, 189, 189)" stroke-width="1px" opacity="0.25"></line><line x1="0" y1="126.42857142857142" x2="178" y2="126.42857142857142" fill="rgb(0, 0, 0)" stroke="rgb(189, 189, 189)" stroke-width="1px" opacity="0.25"></line><line x1="0" y1="113.78571428571428" x2="178" y2="113.78571428571428" fill="rgb(0, 0, 0)" stroke="rgb(189, 189, 189)" stroke-width="1px" opacity="0.25"></line><line x1="0" y1="101.14285714285714" x2="178" y2="101.14285714285714" fill="rgb(0, 0, 0)" stroke="rgb(189, 189, 189)" stroke-width="1px" opacity="0.25"></line><line x1="0" y1="88.49999999999999" x2="178" y2="88.49999999999999" fill="rgb(0, 0, 0)" stroke="rgb(189, 189, 189)" stroke-width="1px" opacity="0.25"></line><line x1="0" y1="75.85714285714286" x2="178" y2="75.85714285714286" fill="rgb(0, 0, 0)" stroke="rgb(189, 189, 189)" stroke-width="1px" opacity="0.25"></line><line x1="0" y1="63.21428571428571" x2="178" y2="63.21428571428571" fill="rgb(0, 0, 0)" stroke="rgb(189, 189, 189)" stroke-width="1px" opacity="0.25"></line><line x1="0" y1="50.57142857142857" x2="178" y2="50.57142857142857" fill="rgb(0, 0, 0)" stroke="rgb(189, 189, 189)" stroke-width="1px" opacity="0.25"></line><line x1="0" y1="37.92857142857141" x2="178" y2="37.92857142857141" fill="rgb(0, 0, 0)" stroke="rgb(189, 189, 189)" stroke-width="1px" opacity="0.25"></line><line x1="0" y1="25.285714285714256" x2="178" y2="25.285714285714256" fill="rgb(0, 0, 0)" stroke="rgb(189, 189, 189)" stroke-width="1px" opacity="0.25"></line><line x1="0" y1="12.642857142857157" x2="178" y2="12.642857142857157" fill="rgb(0, 0, 0)" stroke="rgb(189, 189, 189)" stroke-width="1px" opacity="0.25"></line><line x1="0" y1="0" x2="178" y2="0" fill="rgb(0, 0, 0)" stroke="rgb(189, 189, 189)" stroke-width="1px" opacity="0.25"></line></g></g></g><g><g><line x1="0" y1="227.57142857142858" x2="178" y2="227.57142857142858" fill="rgb(0, 0, 0)" stroke="rgb(153, 153, 153)" stroke-width="1.5px"></line></g></g><g><g><line x1="14.833333333333332" y1="0" x2="14.833333333333332" y2="177" fill="rgb(0, 0, 0)" stroke="rgb(153, 153, 153)" stroke-width="1.5px"></line></g></g><g><g><g><g><g><path stroke="rgb(238, 51, 119)" stroke-width="2px" d="M17.8,-22.815132711614858L20.766666666666666,22.804181819406992L23.733333333333334,53.87423868928139L26.7,75.95645998414051L29.666666666666664,92.03356116715614L32.63333333333333,104.00483307334757L35.6,113.04473537293221L38.56666666666667,120.00794676279645L41.53333333333333,125.43723863788654L44.5,129.70532490089298L47.46666666666667,133.2124009809394L50.43333333333333,136.05363933887494L53.4,138.4973004929124L56.36666666666667,140.55363367014635L59.33333333333333,142.33396953325945L62.3,143.92908421824558L65.26666666666667,145.35017105708658L68.23333333333333,146.62813058637988L71.2,147.77309159931795L74.16666666666667,148.83660106534097L77.13333333333334,149.81388853222697L80.10000000000001,150.73256904400913L83.06666666666666,151.5924708322L86.03333333333333,152.4456371919439L89,153.22096392866268L91.96666666666668,153.97600168589494L94.93333333333334,154.6791077522747L97.9,155.3445591592228L100.86666666666666,156.00793614444842L103.83333333333334,156.62921581096802L106.8,157.2549851660049L109.76666666666667,157.8585955079442L112.73333333333333,158.42643588903115L115.7,158.96969149268156L118.66666666666666,159.4968036299778L121.63333333333334,160.00446941145657L124.6,160.52473846000228L127.56666666666666,161.01915302765894L130.53333333333333,161.48983191846662L133.5,161.98121710526502L136.46666666666667,162.43798201391616L139.43333333333334,162.88259864527618L142.4,163.27250245369314L145.36666666666667,163.68674763113128L148.33333333333334,164.1112314279762L151.29999999999998,164.53604834857222L154.26666666666668,164.9330066060074L157.23333333333332,165.3458462196247L160.20000000000002,165.7263732592034" style="fill: none;" fill="none"></path></g><g><path stroke="rgb(51, 187, 238)" stroke-width="2px" d="M20.766666666666666,-33.53455666515639L23.733333333333334,13.967772706153491L26.7,46.40523197977796L29.666666666666664,69.29707189285214L32.63333333333333,85.84446523423162L35.6,98.07205346244042L38.56666666666667,107.27058657548788L41.53333333333333,114.34588422479939L44.5,119.90396400285823L47.46666666666667,124.35173469024792L50.43333333333333,127.98211916392367L53.4,131.01695728384558L56.36666666666667,133.58538243535472L59.33333333333333,135.80769270225747L62.3,137.76378293151944L65.26666666666667,139.5013860936997L68.23333333333333,141.06430236366148L71.2,142.48887139334994L74.16666666666667,143.8077996763137L77.13333333333334,145.0347392041056L80.10000000000001,146.17316810574624L83.06666666666666,147.24993029828534L86.03333333333333,148.25996717516784L89,149.21582980822555L91.96666666666668,150.13065799535485L94.93333333333334,151.00161955302246L97.9,151.83375199428207L100.86666666666666,152.6358832791828L103.83333333333334,153.40947897416027L106.8,154.1501644845531L109.76666666666667,154.87545955553688L112.73333333333333,155.563155884202L115.7,156.23070742209984L118.66666666666666,156.87694534103338L121.63333333333334,157.5118962080961L124.6,158.1197072738141L127.56666666666666,158.70967908476487L130.53333333333333,159.2900596170204L133.5,159.85028309492392L136.46666666666667,160.384474253977L139.43333333333334,160.91951611349302L142.4,161.43162925845334L145.36666666666667,161.9315767209042L148.33333333333334,162.42031222280215L151.29999999999998,162.90792713156418L154.26666666666668,163.38335207458059L157.23333333333332,163.8441835228863L160.20000000000002,164.30085416257614" style="fill: none;" fill="none"></path></g></g></g></g><g opacity="0.2"><g><g><g><path stroke="rgb(238, 51, 119)" stroke-width="2px" d="M14.833333333333332,-94.39330264500211L17.8,20.13176924841742L20.766666666666666,66.59872376918793L23.733333333333334,90.41262556825365L26.7,104.78700810670853L29.666666666666664,114.2739798596927L32.63333333333333,121.12394343955177L35.6,126.22499970878874L38.56666666666667,130.2773310286658L41.53333333333333,133.49910432100296L44.5,136.0687430671283L47.46666666666667,138.45392974785398L50.43333333333333,140.30621973957335L53.4,142.15800483737672L56.36666666666667,143.6357162935393L59.33333333333333,145.00321769714355L62.3,146.32108124664853L65.26666666666667,147.48144050155366L68.23333333333333,148.5448751960482L71.2,149.4904284647533L74.16666666666667,150.43180693898884L77.13333333333334,151.27978757449557L80.10000000000001,152.1105716739382L83.06666666666666,152.88231332812992L86.03333333333333,153.72538066761834L89,154.38395072732655L91.96666666666668,155.10855638980865L94.93333333333334,155.7337657724108L97.9,156.34273565667016L100.86666666666666,157.00300125564848L103.83333333333334,157.56113510472434L106.8,158.19363907405307L109.76666666666667,158.76401094879424L112.73333333333333,159.27819641998838L115.7,159.7845748748098L118.66666666666666,160.28747182232993L121.63333333333334,160.76596807582038L124.6,161.30514202799117L127.56666666666666,161.7607748763902L130.53333333333333,162.19585025310516L133.5,162.71829488447736L136.46666666666667,163.12312937634331L139.43333333333334,163.54952359199524L142.4,163.85735816614968L145.36666666666667,164.3081153971808L148.33333333333334,164.7479571231774L151.29999999999998,165.17327372942654L154.26666666666668,165.5284439921379L157.23333333333332,165.96510564003674L160.20000000000002,166.29716381856372" style="fill: none;" fill="none"></path></g><g><path stroke="rgb(51, 187, 238)" stroke-width="2px" d="M17.8,-36.57152509689335L20.766666666666666,36.35175005027224L23.733333333333334,69.83051204681396L26.7,88.7555788074221L29.666666666666664,100.96472755500248L32.63333333333333,109.50750247069767L35.6,115.89999448401588L38.56666666666667,120.836636194161L41.53333333333333,124.85187665053776L44.5,128.19067229543413L47.46666666666667,130.9991861496653L50.43333333333333,133.41584203924452L53.4,135.5632688999176L56.36666666666667,137.4350010752678L59.33333333333333,139.13959075723375L62.3,140.69709052358354L65.26666666666667,142.1073496597154L68.23333333333333,143.4084386740412L71.2,144.62559472663062L74.16666666666667,145.78611976759774L77.13333333333334,146.87510812282562L80.10000000000001,147.88078898191452L83.06666666666666,148.86506083181928L86.03333333333333,149.77501531158177L89,150.64961968149458L91.96666666666668,151.50289793525425L94.93333333333334,152.3080605523927L97.9,153.08194988965988L100.86666666666666,153.83907976320813L103.83333333333334,154.5698722600937L106.8,155.26119260277068L109.76666666666667,155.96340207542693L112.73333333333333,156.59470032794135L115.7,157.23203470025746L118.66666666666666,157.8463022027697L121.63333333333334,158.4643224988665L124.6,159.0314238667488L127.56666666666666,159.59463679790497L130.53333333333333,160.16063041346413L133.5,160.69061831065585L136.46666666666667,161.18576099191395L139.43333333333334,161.72207890238082L142.4,162.19979897567202L145.36666666666667,162.68149791445052L148.33333333333334,163.15341547557284L151.29999999999998,163.6393494946616L154.26666666666668,164.09648948907852L157.23333333333332,164.5354306953294L160.20000000000002,164.98586012210166" style="fill: none;" fill="none"></path></g></g></g></g></g></g><g transform="translate(50, 177)" clip-path="url(#clip_1)"><clipPath id="clip_1"><rect width="178" height="23"></rect></clipPath><g><g><line x1="0" y1="0" x2="0" y2="5" style="visibility: inherit;" fill="rgb(0, 0, 0)" stroke="rgb(204, 204, 204)" stroke-width="1px"></line><line x1="14.833333333333332" y1="0" x2="14.833333333333332" y2="5" style="visibility: inherit;" fill="rgb(0, 0, 0)" stroke="rgb(204, 204, 204)" stroke-width="1px"></line><line x1="29.666666666666664" y1="0" x2="29.666666666666664" y2="5" style="visibility: inherit;" fill="rgb(0, 0, 0)" stroke="rgb(204, 204, 204)" stroke-width="1px"></line><line x1="44.5" y1="0" x2="44.5" y2="5" style="visibility: inherit;" fill="rgb(0, 0, 0)" stroke="rgb(204, 204, 204)" stroke-width="1px"></line><line x1="59.33333333333333" y1="0" x2="59.33333333333333" y2="5" style="visibility: inherit;" fill="rgb(0, 0, 0)" stroke="rgb(204, 204, 204)" stroke-width="1px"></line><line x1="74.16666666666667" y1="0" x2="74.16666666666667" y2="5" style="visibility: inherit;" fill="rgb(0, 0, 0)" stroke="rgb(204, 204, 204)" stroke-width="1px"></line><line x1="89" y1="0" x2="89" y2="5" style="visibility: inherit;" fill="rgb(0, 0, 0)" stroke="rgb(204, 204, 204)" stroke-width="1px"></line><line x1="103.83333333333334" y1="0" x2="103.83333333333334" y2="5" style="visibility: inherit;" fill="rgb(0, 0, 0)" stroke="rgb(204, 204, 204)" stroke-width="1px"></line><line x1="118.66666666666666" y1="0" x2="118.66666666666666" y2="5" style="visibility: inherit;" fill="rgb(0, 0, 0)" stroke="rgb(204, 204, 204)" stroke-width="1px"></line><line x1="133.5" y1="0" x2="133.5" y2="5" style="visibility: inherit;" fill="rgb(0, 0, 0)" stroke="rgb(204, 204, 204)" stroke-width="1px"></line><line x1="148.33333333333334" y1="0" x2="148.33333333333334" y2="5" style="visibility: inherit;" fill="rgb(0, 0, 0)" stroke="rgb(204, 204, 204)" stroke-width="1px"></line><line x1="163.16666666666666" y1="0" x2="163.16666666666666" y2="5" style="visibility: inherit;" fill="rgb(0, 0, 0)" stroke="rgb(204, 204, 204)" stroke-width="1px"></line><line x1="178" y1="0" x2="178" y2="5" style="visibility: inherit;" fill="rgb(0, 0, 0)" stroke="rgb(204, 204, 204)" stroke-width="1px"></line></g><g transform="translate(0, 8)"><text x="0" y="0" dx="0em" dy="0.95em" style="text-anchor: middle; visibility: hidden; font-family: Roboto, sans-serif; font-size: 12px; font-weight: 200;" fill="rgb(255, 255, 255)" stroke="none" stroke-width="1px">-5</text><text x="14.833333333333332" y="0" dx="0em" dy="0.95em" style="text-anchor: middle; visibility: inherit; font-family: Roboto, sans-serif; font-size: 12px; font-weight: 200;" fill="rgb(255, 255, 255)" stroke="none" stroke-width="1px">0</text><text x="29.666666666666664" y="0" dx="0em" dy="0.95em" style="text-anchor: middle; visibility: hidden; font-family: Roboto, sans-serif; font-size: 12px; font-weight: 200;" fill="rgb(255, 255, 255)" stroke="none" stroke-width="1px">5</text><text x="44.5" y="0" dx="0em" dy="0.95em" style="text-anchor: middle; visibility: inherit; font-family: Roboto, sans-serif; font-size: 12px; font-weight: 200;" fill="rgb(255, 255, 255)" stroke="none" stroke-width="1px">10</text><text x="59.33333333333333" y="0" dx="0em" dy="0.95em" style="text-anchor: middle; visibility: hidden; font-family: Roboto, sans-serif; font-size: 12px; font-weight: 200;" fill="rgb(255, 255, 255)" stroke="none" stroke-width="1px">15</text><text x="74.16666666666667" y="0" dx="0em" dy="0.95em" style="text-anchor: middle; visibility: inherit; font-family: Roboto, sans-serif; font-size: 12px; font-weight: 200;" fill="rgb(255, 255, 255)" stroke="none" stroke-width="1px">20</text><text x="89" y="0" dx="0em" dy="0.95em" style="text-anchor: middle; visibility: hidden; font-family: Roboto, sans-serif; font-size: 12px; font-weight: 200;" fill="rgb(255, 255, 255)" stroke="none" stroke-width="1px">25</text><text x="103.83333333333334" y="0" dx="0em" dy="0.95em" style="text-anchor: middle; visibility: inherit; font-family: Roboto, sans-serif; font-size: 12px; font-weight: 200;" fill="rgb(255, 255, 255)" stroke="none" stroke-width="1px">30</text><text x="118.66666666666666" y="0" dx="0em" dy="0.95em" style="text-anchor: middle; visibility: hidden; font-family: Roboto, sans-serif; font-size: 12px; font-weight: 200;" fill="rgb(255, 255, 255)" stroke="none" stroke-width="1px">35</text><text x="133.5" y="0" dx="0em" dy="0.95em" style="text-anchor: middle; visibility: inherit; font-family: Roboto, sans-serif; font-size: 12px; font-weight: 200;" fill="rgb(255, 255, 255)" stroke="none" stroke-width="1px">40</text><text x="148.33333333333334" y="0" dx="0em" dy="0.95em" style="text-anchor: middle; visibility: hidden; font-family: Roboto, sans-serif; font-size: 12px; font-weight: 200;" fill="rgb(255, 255, 255)" stroke="none" stroke-width="1px">45</text><text x="163.16666666666666" y="0" dx="0em" dy="0.95em" style="text-anchor: middle; visibility: inherit; font-family: Roboto, sans-serif; font-size: 12px; font-weight: 200;" fill="rgb(255, 255, 255)" stroke="none" stroke-width="1px">50</text><text x="178" y="0" dx="0em" dy="0.95em" style="text-anchor: middle; visibility: hidden; font-family: Roboto, sans-serif; font-size: 12px; font-weight: 200;" fill="rgb(255, 255, 255)" stroke="none" stroke-width="1px">55</text></g><line x1="0" y1="0" x2="178" y2="0" fill="rgb(0, 0, 0)" stroke="rgb(204, 204, 204)" stroke-width="1px"></line></g></g></g></g></svg>