<svg viewBox="0 0 330 200" xmlns="http://www.w3.org/2000/svg"><g><g><g><g><g><line x1="60" y1="177" x2="55" y2="177" style="visibility: inherit;" fill="rgb(0, 0, 0)" stroke="rgb(204, 204, 204)" stroke-width="1px"></line><line x1="60" y1="160.9090909090909" x2="55" y2="160.9090909090909" style="visibility: inherit;" fill="rgb(0, 0, 0)" stroke="rgb(204, 204, 204)" stroke-width="1px"></line><line x1="60" y1="144.8181818181818" x2="55" y2="144.8181818181818" style="visibility: inherit;" fill="rgb(0, 0, 0)" stroke="rgb(204, 204, 204)" stroke-width="1px"></line><line x1="60" y1="128.72727272727272" x2="55" y2="128.72727272727272" style="visibility: inherit;" fill="rgb(0, 0, 0)" stroke="rgb(204, 204, 204)" stroke-width="1px"></line><line x1="60" y1="112.63636363636364" x2="55" y2="112.63636363636364" style="visibility: inherit;" fill="rgb(0, 0, 0)" stroke="rgb(204, 204, 204)" stroke-width="1px"></line><line x1="60" y1="96.54545454545453" x2="55" y2="96.54545454545453" style="visibility: inherit;" fill="rgb(0, 0, 0)" stroke="rgb(204, 204, 204)" stroke-width="1px"></line><line x1="60" y1="80.45454545454547" x2="55" y2="80.45454545454547" style="visibility: inherit;" fill="rgb(0, 0, 0)" stroke="rgb(204, 204, 204)" stroke-width="1px"></line><line x1="60" y1="64.36363636363636" x2="55" y2="64.36363636363636" style="visibility: inherit;" fill="rgb(0, 0, 0)" stroke="rgb(204, 204, 204)" stroke-width="1px"></line><line x1="60" y1="48.272727272727266" x2="55" y2="48.272727272727266" style="visibility: inherit;" fill="rgb(0, 0, 0)" stroke="rgb(204, 204, 204)" stroke-width="1px"></line><line x1="60" y1="32.18181818181817" x2="55" y2="32.18181818181817" style="visibility: inherit;" fill="rgb(0, 0, 0)" stroke="rgb(204, 204, 204)" stroke-width="1px"></line><line x1="60" y1="16.090909090909097" x2="55" y2="16.090909090909097" style="visibility: inherit;" fill="rgb(0, 0, 0)" stroke="rgb(204, 204, 204)" stroke-width="1px"></line><line x1="60" y1="0" x2="55" y2="0" style="visibility: inherit;" fill="rgb(0, 0, 0)" stroke="rgb(204, 204, 204)" stroke-width="1px"></line></g><g transform="translate(50, 0)"><text x="0" y="177" dx="0em" dy="0.3em" style="text-anchor: end; visibility: hidden; font-family: Roboto, sans-serif; font-size: 12px; font-weight: 200;" fill="rgb(255, 255, 255)" stroke="none" stroke-width="1px">0.945</text><text x="0" y="160.9090909090909" dx="0em" dy="0.3em" style="text-anchor: end; visibility: inherit; font-family: Roboto, sans-serif; font-size: 12px; font-weight: 200;" fill="rgb(255, 255, 255)" stroke="none" stroke-width="1px">0.95</text><text x="0" y="144.8181818181818" dx="0em" dy="0.3em" style="text-anchor: end; visibility: hidden; font-family: Roboto, sans-serif; font-size: 12px; font-weight: 200;" fill="rgb(255, 255, 255)" stroke="none" stroke-width="1px">0.955</text><text x="0" y="128.72727272727272" dx="0em" dy="0.3em" style="text-anchor: end; visibility: inherit; font-family: Roboto, sans-serif; font-size: 12px; font-weight: 200;" fill="rgb(255, 255, 255)" stroke="none" stroke-width="1px">0.96</text><text x="0" y="112.63636363636364" dx="0em" dy="0.3em" style="text-anchor: end; visibility: hidden; font-family: Roboto, sans-serif; font-size: 12px; font-weight: 200;" fill="rgb(255, 255, 255)" stroke="none" stroke-width="1px">0.965</text><text x="0" y="96.54545454545453" dx="0em" dy="0.3em" style="text-anchor: end; visibility: inherit; font-family: Roboto, sans-serif; font-size: 12px; font-weight: 200;" fill="rgb(255, 255, 255)" stroke="none" stroke-width="1px">0.97</text><text x="0" y="80.45454545454547" dx="0em" dy="0.3em" style="text-anchor: end; visibility: hidden; font-family: Roboto, sans-serif; font-size: 12px; font-weight: 200;" fill="rgb(255, 255, 255)" stroke="none" stroke-width="1px">0.975</text><text x="0" y="64.36363636363636" dx="0em" dy="0.3em" style="text-anchor: end; visibility: inherit; font-family: Roboto, sans-serif; font-size: 12px; font-weight: 200;" fill="rgb(255, 255, 255)" stroke="none" stroke-width="1px">0.98</text><text x="0" y="48.272727272727266" dx="0em" dy="0.3em" style="text-anchor: end; visibility: hidden; font-family: Roboto, sans-serif; font-size: 12px; font-weight: 200;" fill="rgb(255, 255, 255)" stroke="none" stroke-width="1px">0.985</text><text x="0" y="32.18181818181817" dx="0em" dy="0.3em" style="text-anchor: end; visibility: inherit; font-family: Roboto, sans-serif; font-size: 12px; font-weight: 200;" fill="rgb(255, 255, 255)" stroke="none" stroke-width="1px">0.99</text><text x="0" y="16.090909090909097" dx="0em" dy="0.3em" style="text-anchor: end; visibility: hidden; font-family: Roboto, sans-serif; font-size: 12px; font-weight: 200;" fill="rgb(255, 255, 255)" stroke="none" stroke-width="1px">0.995</text><text x="0" y="0" dx="0em" dy="0.3em" style="text-anchor: end; visibility: hidden; font-family: Roboto, sans-serif; font-size: 12px; font-weight: 200;" fill="rgb(255, 255, 255)" stroke="none" stroke-width="1px">1</text></g><line x1="60" y1="0" x2="60" y2="177" fill="rgb(0, 0, 0)" stroke="rgb(204, 204, 204)" stroke-width="1px"></line></g></g><g transform="translate(60, 0)" clip-path="url(#clip_0)"><clipPath id="clip_0"><rect width="270" height="177"></rect></clipPath><g><g><g><line x1="0" y1="0" x2="0" y2="177" fill="rgb(0, 0, 0)" stroke="rgb(189, 189, 189)" stroke-width="1px" opacity="0.25"></line><line x1="22.5" y1="0" x2="22.5" y2="177" fill="rgb(0, 0, 0)" stroke="rgb(189, 189, 189)" stroke-width="1px" opacity="0.25"></line><line x1="45" y1="0" x2="45" y2="177" fill="rgb(0, 0, 0)" stroke="rgb(189, 189, 189)" stroke-width="1px" opacity="0.25"></line><line x1="67.5" y1="0" x2="67.5" y2="177" fill="rgb(0, 0, 0)" stroke="rgb(189, 189, 189)" stroke-width="1px" opacity="0.25"></line><line x1="90" y1="0" x2="90" y2="177" fill="rgb(0, 0, 0)" stroke="rgb(189, 189, 189)" stroke-width="1px" opacity="0.25"></line><line x1="112.5" y1="0" x2="112.5" y2="177" fill="rgb(0, 0, 0)" stroke="rgb(189, 189, 189)" stroke-width="1px" opacity="0.25"></line><line x1="135" y1="0" x2="135" y2="177" fill="rgb(0, 0, 0)" stroke="rgb(189, 189, 189)" stroke-width="1px" opacity="0.25"></line><line x1="157.5" y1="0" x2="157.5" y2="177" fill="rgb(0, 0, 0)" stroke="rgb(189, 189, 189)" stroke-width="1px" opacity="0.25"></line><line x1="180" y1="0" x2="180" y2="177" fill="rgb(0, 0, 0)" stroke="rgb(189, 189, 189)" stroke-width="1px" opacity="0.25"></line><line x1="202.5" y1="0" x2="202.5" y2="177" fill="rgb(0, 0, 0)" stroke="rgb(189, 189, 189)" stroke-width="1px" opacity="0.25"></line><line x1="225" y1="0" x2="225" y2="177" fill="rgb(0, 0, 0)" stroke="rgb(189, 189, 189)" stroke-width="1px" opacity="0.25"></line><line x1="247.5" y1="0" x2="247.5" y2="177" fill="rgb(0, 0, 0)" stroke="rgb(189, 189, 189)" stroke-width="1px" opacity="0.25"></line><line x1="270" y1="0" x2="270" y2="177" fill="rgb(0, 0, 0)" stroke="rgb(189, 189, 189)" stroke-width="1px" opacity="0.25"></line></g><g><line x1="0" y1="177" x2="270" y2="177" fill="rgb(0, 0, 0)" stroke="rgb(189, 189, 189)" stroke-width="1px" opacity="0.25"></line><line x1="0" y1="160.9090909090909" x2="270" y2="160.9090909090909" fill="rgb(0, 0, 0)" stroke="rgb(189, 189, 189)" stroke-width="1px" opacity="0.25"></line><line x1="0" y1="144.8181818181818" x2="270" y2="144.8181818181818" fill="rgb(0, 0, 0)" stroke="rgb(189, 189, 189)" stroke-width="1px" opacity="0.25"></line><line x1="0" y1="128.72727272727272" x2="270" y2="128.72727272727272" fill="rgb(0, 0, 0)" stroke="rgb(189, 189, 189)" stroke-width="1px" opacity="0.25"></line><line x1="0" y1="112.63636363636364" x2="270" y2="112.63636363636364" fill="rgb(0, 0, 0)" stroke="rgb(189, 189, 189)" stroke-width="1px" opacity="0.25"></line><line x1="0" y1="96.54545454545453" x2="270" y2="96.54545454545453" fill="rgb(0, 0, 0)" stroke="rgb(189, 189, 189)" stroke-width="1px" opacity="0.25"></line><line x1="0" y1="80.45454545454547" x2="270" y2="80.45454545454547" fill="rgb(0, 0, 0)" stroke="rgb(189, 189, 189)" stroke-width="1px" opacity="0.25"></line><line x1="0" y1="64.36363636363636" x2="270" y2="64.36363636363636" fill="rgb(0, 0, 0)" stroke="rgb(189, 189, 189)" stroke-width="1px" opacity="0.25"></line><line x1="0" y1="48.272727272727266" x2="270" y2="48.272727272727266" fill="rgb(0, 0, 0)" stroke="rgb(189, 189, 189)" stroke-width="1px" opacity="0.25"></line><line x1="0" y1="32.18181818181817" x2="270" y2="32.18181818181817" fill="rgb(0, 0, 0)" stroke="rgb(189, 189, 189)" stroke-width="1px" opacity="0.25"></line><line x1="0" y1="16.090909090909097" x2="270" y2="16.090909090909097" fill="rgb(0, 0, 0)" stroke="rgb(189, 189, 189)" stroke-width="1px" opacity="0.25"></line><line x1="0" y1="0" x2="270" y2="0" fill="rgb(0, 0, 0)" stroke="rgb(189, 189, 189)" stroke-width="1px" opacity="0.25"></line></g></g></g><g><g><line x1="0" y1="3218.1818181818153" x2="270" y2="3218.1818181818153" fill="rgb(0, 0, 0)" stroke="rgb(153, 153, 153)" stroke-width="1.5px"></line></g></g><g><g><line x1="22.5" y1="0" x2="22.5" y2="177" fill="rgb(0, 0, 0)" stroke="rgb(153, 153, 153)" stroke-width="1.5px"></line></g></g><g><g><g><g><g><path stroke="rgb(238, 51, 119)" stroke-width="2px" d="M22.5,211.8636261333117L27,160.9090573408382L31.5,132.44899029192052L36,113.36102087628407L40.5,97.11123581496962L45,86.18421435644198L49.5,78.30820705833575L54,71.54401553488407L58.5,66.15023507780057L63,61.65387978811046L67.5,59.72711878872795L72,57.392980307944164L76.5,55.2439166390061L81,55.137192832645795L85.5,55.93181214536017L90,54.3695818454182L94.5,52.896033476712375L99,52.54852007312126L103.5,51.58905746560754L108,50.58434182398777L112.5,50.5178724760071L117,49.727050523404074L121.5,50.11076713634435L126,51.62825741837661L130.5,49.856962100784536L135,48.6869229979746L139.5,47.126703590049026L144,46.512368021581445L148.5,46.680168608152556L153,47.102643848344215L157.5,46.81980410041328L162,48.25915141455025L166.5,49.015494772370104L171,46.78744669915568L175.5,45.23608798794204L180,45.699870626473256L184.5,46.192670112309706L189,44.342897294504084L193.5,42.803897070922076L198,42.84595823772652L202.5,43.08572484239725L207,42.8005249959663L211.5,42.6294050881952L216,41.990408382340554L220.5,42.03607016784801L225,43.457988345609486L229.5,43.66754953882861L234,43.3641497184077L238.5,42.967579921704406L243,41.65691179398175" style="fill: none;" fill="none"></path></g><g><path stroke="rgb(51, 187, 238)" stroke-width="2px" d="M31.5,207.68357818334536L36,157.99557211644535L40.5,125.7016562699569L45,103.08824333085549L49.5,87.81447466135273L54,76.50091994955461L58.5,68.02054572322645L63,62.25886836991562L67.5,57.182377646126504L72,52.85823169206859L76.5,49.41045746650304L81,46.378458665598835L85.5,44.26562498055993L90,41.92553177650263L94.5,39.878123021382976L99,38.542623740743444L103.5,37.31232502725371L108,35.79645607868359L112.5,34.457824230273516L117,32.74282309223527L121.5,31.20428594546608L126,30.308026162649814L130.5,29.663007753748605L135,29.00783504404402L139.5,27.99791966317034L144,27.25785145981339L148.5,26.67969122524459L153,25.742837853172507L157.5,25.341623412163518L162,24.484082893511587L166.5,24.157233937640125L171,23.42479979760972L175.5,23.038971804056747L180,22.59294510550447L184.5,21.493910613268977L189,20.914977000466138L193.5,20.513984357928056L198,19.924739314059092L202.5,19.30302990746169L207,18.661841883127465L211.5,18.30390694307215L216,17.418701663859018L220.5,16.91443309820561L225,16.316854976489854L229.5,16.011940579599173L234,15.39985540512467L238.5,15.16672385444979L243,14.51729803725125" style="fill: none;" fill="none"></path></g></g></g></g><g opacity="0.2"><g><g><g><path stroke="rgb(238, 51, 119)" stroke-width="2px" d="M22.5,211.8636261333117L27,130.33631606535468L31.5,105.12732592495995L36,90.91356884349469L40.5,75.89551643891761L45,71.06820995157408L49.5,67.04539060592646L54,61.681759357452336L58.5,58.19545659151939L63,54.97731620615174L67.5,56.85445287010882L72,53.90447486530647L76.5,52.02733820134938L81,54.97731620615174L85.5,57.12280706925821L90,52.02733820134938L94.5,50.686334479938814L99,52.02733820134938L103.5,50.15000971880821L108,49.077360196547026L112.5,50.41817209937352L117,48.54084361683235L121.5,50.686334479938814L126,53.90447486530647L130.5,47.200031714005874L135,46.93186933344056L139.5,44.78637847033411L144,45.59086561202999L148.5,46.93186933344056L153,47.73635647513646L157.5,46.395544572309966L162,50.41817209937352L166.5,50.15000971880821L171,43.44537474892352L175.5,42.909049987792926L180,46.395544572309966L184.5,46.93186933344056L189,41.56823808496645L193.5,40.495396744121166L198,42.909049987792926L202.5,43.44537474892352L207,42.37272522666234L211.5,42.37272522666234L216,41.031913323835866L220.5,42.104562846097046L225,45.59086561202999L229.5,43.9818913286382L234,42.909049987792926L238.5,42.37272522666234L243,39.69090960242528" style="fill: none;" fill="none"></path></g><g><path stroke="rgb(51, 187, 238)" stroke-width="2px" d="M27,181.22386824000947L31.5,122.4920868873595L36,99.5624769817698L40.5,83.53871974078085L45,71.8057524074207L49.5,65.97274108366527L54,60.00564856962719L58.5,55.51364096728233L63,53.703448989174525L67.5,49.61368495767762L72,46.395544572309966L76.5,44.25005370920351L81,41.83640046553175L85.5,41.09885800968513L90,38.41704238544807L94.5,36.807876283472204L99,36.53971390290691L103.5,35.46706438064571L108,33.52279121225527L112.5,32.44994987141L117,30.170377818020874L121.5,28.89651060104368L126,28.963647105477058L130.5,28.695484724911744L135,28.025078773498514L139.5,26.48304917595601L144,26.14775029095734L148.5,25.81245140595867L153,24.337558312849538L157.5,24.73980188369749L162,23.197772286154983L166.5,23.6669605428522L171,22.326148640025725L175.5,22.460229830308382L180,21.92390506917777L184.5,19.845358891920583L189,20.046576586636615L193.5,19.912495396353957L198,19.0408717502247L202.5,18.370465798811473L207,17.700059847398226L211.5,17.76700453324751L216,16.090893745422342L220.5,16.15803024985572L225,15.420487794009116L229.5,15.554568984291754L234,14.481727643446481L238.5,14.817026528445151L243,13.54315931146794" style="fill: none;" fill="none"></path></g></g></g></g></g></g><g transform="translate(60, 177)" clip-path="url(#clip_1)"><clipPath id="clip_1"><rect width="270" height="23"></rect></clipPath><g><g><line x1="0" y1="0" x2="0" y2="5" style="visibility: inherit;" fill="rgb(0, 0, 0)" stroke="rgb(204, 204, 204)" stroke-width="1px"></line><line x1="22.5" y1="0" x2="22.5" y2="5" style="visibility: inherit;" fill="rgb(0, 0, 0)" stroke="rgb(204, 204, 204)" stroke-width="1px"></line><line x1="45" y1="0" x2="45" y2="5" style="visibility: inherit;" fill="rgb(0, 0, 0)" stroke="rgb(204, 204, 204)" stroke-width="1px"></line><line x1="67.5" y1="0" x2="67.5" y2="5" style="visibility: inherit;" fill="rgb(0, 0, 0)" stroke="rgb(204, 204, 204)" stroke-width="1px"></line><line x1="90" y1="0" x2="90" y2="5" style="visibility: inherit;" fill="rgb(0, 0, 0)" stroke="rgb(204, 204, 204)" stroke-width="1px"></line><line x1="112.5" y1="0" x2="112.5" y2="5" style="visibility: inherit;" fill="rgb(0, 0, 0)" stroke="rgb(204, 204, 204)" stroke-width="1px"></line><line x1="135" y1="0" x2="135" y2="5" style="visibility: inherit;" fill="rgb(0, 0, 0)" stroke="rgb(204, 204, 204)" stroke-width="1px"></line><line x1="157.5" y1="0" x2="157.5" y2="5" style="visibility: inherit;" fill="rgb(0, 0, 0)" stroke="rgb(204, 204, 204)" stroke-width="1px"></line><line x1="180" y1="0" x2="180" y2="5" style="visibility: inherit;" fill="rgb(0, 0, 0)" stroke="rgb(204, 204, 204)" stroke-width="1px"></line><line x1="202.5" y1="0" x2="202.5" y2="5" style="visibility: inherit;" fill="rgb(0, 0, 0)" stroke="rgb(204, 204, 204)" stroke-width="1px"></line><line x1="225" y1="0" x2="225" y2="5" style="visibility: inherit;" fill="rgb(0, 0, 0)" stroke="rgb(204, 204, 204)" stroke-width="1px"></line><line x1="247.5" y1="0" x2="247.5" y2="5" style="visibility: inherit;" fill="rgb(0, 0, 0)" stroke="rgb(204, 204, 204)" stroke-width="1px"></line><line x1="270" y1="0" x2="270" y2="5" style="visibility: inherit;" fill="rgb(0, 0, 0)" stroke="rgb(204, 204, 204)" stroke-width="1px"></line></g><g transform="translate(0, 8)"><text x="0" y="0" dx="0em" dy="0.95em" style="text-anchor: middle; visibility: hidden; font-family: Roboto, sans-serif; font-size: 12px; font-weight: 200;" fill="rgb(255, 255, 255)" stroke="none" stroke-width="1px">-5</text><text x="22.5" y="0" dx="0em" dy="0.95em" style="text-anchor: middle; visibility: inherit; font-family: Roboto, sans-serif; font-size: 12px; font-weight: 200;" fill="rgb(255, 255, 255)" stroke="none" stroke-width="1px">0</text><text x="45" y="0" dx="0em" dy="0.95em" style="text-anchor: middle; visibility: inherit; font-family: Roboto, sans-serif; font-size: 12px; font-weight: 200;" fill="rgb(255, 255, 255)" stroke="none" stroke-width="1px">5</text><text x="67.5" y="0" dx="0em" dy="0.95em" style="text-anchor: middle; visibility: inherit; font-family: Roboto, sans-serif; font-size: 12px; font-weight: 200;" fill="rgb(255, 255, 255)" stroke="none" stroke-width="1px">10</text><text x="90" y="0" dx="0em" dy="0.95em" style="text-anchor: middle; visibility: inherit; font-family: Roboto, sans-serif; font-size: 12px; font-weight: 200;" fill="rgb(255, 255, 255)" stroke="none" stroke-width="1px">15</text><text x="112.5" y="0" dx="0em" dy="0.95em" style="text-anchor: middle; visibility: inherit; font-family: Roboto, sans-serif; font-size: 12px; font-weight: 200;" fill="rgb(255, 255, 255)" stroke="none" stroke-width="1px">20</text><text x="135" y="0" dx="0em" dy="0.95em" style="text-anchor: middle; visibility: inherit; font-family: Roboto, sans-serif; font-size: 12px; font-weight: 200;" fill="rgb(255, 255, 255)" stroke="none" stroke-width="1px">25</text><text x="157.5" y="0" dx="0em" dy="0.95em" style="text-anchor: middle; visibility: inherit; font-family: Roboto, sans-serif; font-size: 12px; font-weight: 200;" fill="rgb(255, 255, 255)" stroke="none" stroke-width="1px">30</text><text x="180" y="0" dx="0em" dy="0.95em" style="text-anchor: middle; visibility: inherit; font-family: Roboto, sans-serif; font-size: 12px; font-weight: 200;" fill="rgb(255, 255, 255)" stroke="none" stroke-width="1px">35</text><text x="202.5" y="0" dx="0em" dy="0.95em" style="text-anchor: middle; visibility: inherit; font-family: Roboto, sans-serif; font-size: 12px; font-weight: 200;" fill="rgb(255, 255, 255)" stroke="none" stroke-width="1px">40</text><text x="225" y="0" dx="0em" dy="0.95em" style="text-anchor: middle; visibility: inherit; font-family: Roboto, sans-serif; font-size: 12px; font-weight: 200;" fill="rgb(255, 255, 255)" stroke="none" stroke-width="1px">45</text><text x="247.5" y="0" dx="0em" dy="0.95em" style="text-anchor: middle; visibility: inherit; font-family: Roboto, sans-serif; font-size: 12px; font-weight: 200;" fill="rgb(255, 255, 255)" stroke="none" stroke-width="1px">50</text><text x="270" y="0" dx="0em" dy="0.95em" style="text-anchor: middle; visibility: hidden; font-family: Roboto, sans-serif; font-size: 12px; font-weight: 200;" fill="rgb(255, 255, 255)" stroke="none" stroke-width="1px">55</text></g><line x1="0" y1="0" x2="270" y2="0" fill="rgb(0, 0, 0)" stroke="rgb(204, 204, 204)" stroke-width="1px"></line></g></g></g></g></svg>