<svg viewBox="0 0 330 200" xmlns="http://www.w3.org/2000/svg"><g><g><g><g><g><line x1="50" y1="177" x2="45" y2="177" style="visibility: inherit;" fill="rgb(0, 0, 0)" stroke="rgb(204, 204, 204)" stroke-width="1px"></line><line x1="50" y1="160.9090909090909" x2="45" y2="160.9090909090909" style="visibility: inherit;" fill="rgb(0, 0, 0)" stroke="rgb(204, 204, 204)" stroke-width="1px"></line><line x1="50" y1="144.8181818181818" x2="45" y2="144.8181818181818" style="visibility: inherit;" fill="rgb(0, 0, 0)" stroke="rgb(204, 204, 204)" stroke-width="1px"></line><line x1="50" y1="128.72727272727272" x2="45" y2="128.72727272727272" style="visibility: inherit;" fill="rgb(0, 0, 0)" stroke="rgb(204, 204, 204)" stroke-width="1px"></line><line x1="50" y1="112.63636363636364" x2="45" y2="112.63636363636364" style="visibility: inherit;" fill="rgb(0, 0, 0)" stroke="rgb(204, 204, 204)" stroke-width="1px"></line><line x1="50" y1="96.54545454545453" x2="45" y2="96.54545454545453" style="visibility: inherit;" fill="rgb(0, 0, 0)" stroke="rgb(204, 204, 204)" stroke-width="1px"></line><line x1="50" y1="80.45454545454547" x2="45" y2="80.45454545454547" style="visibility: inherit;" fill="rgb(0, 0, 0)" stroke="rgb(204, 204, 204)" stroke-width="1px"></line><line x1="50" y1="64.36363636363635" x2="45" y2="64.36363636363635" style="visibility: inherit;" fill="rgb(0, 0, 0)" stroke="rgb(204, 204, 204)" stroke-width="1px"></line><line x1="50" y1="48.272727272727266" x2="45" y2="48.272727272727266" style="visibility: inherit;" fill="rgb(0, 0, 0)" stroke="rgb(204, 204, 204)" stroke-width="1px"></line><line x1="50" y1="32.181818181818194" x2="45" y2="32.181818181818194" style="visibility: inherit;" fill="rgb(0, 0, 0)" stroke="rgb(204, 204, 204)" stroke-width="1px"></line><line x1="50" y1="16.090909090909076" x2="45" y2="16.090909090909076" style="visibility: inherit;" fill="rgb(0, 0, 0)" stroke="rgb(204, 204, 204)" stroke-width="1px"></line><line x1="50" y1="0" x2="45" y2="0" style="visibility: inherit;" fill="rgb(0, 0, 0)" stroke="rgb(204, 204, 204)" stroke-width="1px"></line></g><g transform="translate(40, 0)"><text x="0" y="177" dx="0em" dy="0.3em" style="text-anchor: end; visibility: hidden; font-family: Roboto, sans-serif; font-size: 12px; font-weight: 200;" fill="rgb(255, 255, 255)" stroke="none" stroke-width="1px">0</text><text x="0" y="160.9090909090909" dx="0em" dy="0.3em" style="text-anchor: end; visibility: inherit; font-family: Roboto, sans-serif; font-size: 12px; font-weight: 200;" fill="rgb(255, 255, 255)" stroke="none" stroke-width="1px">0.02</text><text x="0" y="144.8181818181818" dx="0em" dy="0.3em" style="text-anchor: end; visibility: hidden; font-family: Roboto, sans-serif; font-size: 12px; font-weight: 200;" fill="rgb(255, 255, 255)" stroke="none" stroke-width="1px">0.04</text><text x="0" y="128.72727272727272" dx="0em" dy="0.3em" style="text-anchor: end; visibility: inherit; font-family: Roboto, sans-serif; font-size: 12px; font-weight: 200;" fill="rgb(255, 255, 255)" stroke="none" stroke-width="1px">0.06</text><text x="0" y="112.63636363636364" dx="0em" dy="0.3em" style="text-anchor: end; visibility: hidden; font-family: Roboto, sans-serif; font-size: 12px; font-weight: 200;" fill="rgb(255, 255, 255)" stroke="none" stroke-width="1px">0.08</text><text x="0" y="96.54545454545453" dx="0em" dy="0.3em" style="text-anchor: end; visibility: inherit; font-family: Roboto, sans-serif; font-size: 12px; font-weight: 200;" fill="rgb(255, 255, 255)" stroke="none" stroke-width="1px">0.1</text><text x="0" y="80.45454545454547" dx="0em" dy="0.3em" style="text-anchor: end; visibility: hidden; font-family: Roboto, sans-serif; font-size: 12px; font-weight: 200;" fill="rgb(255, 255, 255)" stroke="none" stroke-width="1px">0.12</text><text x="0" y="64.36363636363635" dx="0em" dy="0.3em" style="text-anchor: end; visibility: inherit; font-family: Roboto, sans-serif; font-size: 12px; font-weight: 200;" fill="rgb(255, 255, 255)" stroke="none" stroke-width="1px">0.14</text><text x="0" y="48.272727272727266" dx="0em" dy="0.3em" style="text-anchor: end; visibility: hidden; font-family: Roboto, sans-serif; font-size: 12px; font-weight: 200;" fill="rgb(255, 255, 255)" stroke="none" stroke-width="1px">0.16</text><text x="0" y="32.181818181818194" dx="0em" dy="0.3em" style="text-anchor: end; visibility: inherit; font-family: Roboto, sans-serif; font-size: 12px; font-weight: 200;" fill="rgb(255, 255, 255)" stroke="none" stroke-width="1px">0.18</text><text x="0" y="16.090909090909076" dx="0em" dy="0.3em" style="text-anchor: end; visibility: hidden; font-family: Roboto, sans-serif; font-size: 12px; font-weight: 200;" fill="rgb(255, 255, 255)" stroke="none" stroke-width="1px">0.2</text><text x="0" y="0" dx="0em" dy="0.3em" style="text-anchor: end; visibility: hidden; font-family: Roboto, sans-serif; font-size: 12px; font-weight: 200;" fill="rgb(255, 255, 255)" stroke="none" stroke-width="1px">0.22</text></g><line x1="50" y1="0" x2="50" y2="177" fill="rgb(0, 0, 0)" stroke="rgb(204, 204, 204)" stroke-width="1px"></line></g></g><g transform="translate(50, 0)" clip-path="url(#clip_0)"><clipPath id="clip_0"><rect width="280" height="177"></rect></clipPath><g><g><g><line x1="0" y1="0" x2="0" y2="177" fill="rgb(0, 0, 0)" stroke="rgb(189, 189, 189)" stroke-width="1px" opacity="0.25"></line><line x1="23.333333333333332" y1="0" x2="23.333333333333332" y2="177" fill="rgb(0, 0, 0)" stroke="rgb(189, 189, 189)" stroke-width="1px" opacity="0.25"></line><line x1="46.666666666666664" y1="0" x2="46.666666666666664" y2="177" fill="rgb(0, 0, 0)" stroke="rgb(189, 189, 189)" stroke-width="1px" opacity="0.25"></line><line x1="70" y1="0" x2="70" y2="177" fill="rgb(0, 0, 0)" stroke="rgb(189, 189, 189)" stroke-width="1px" opacity="0.25"></line><line x1="93.33333333333333" y1="0" x2="93.33333333333333" y2="177" fill="rgb(0, 0, 0)" stroke="rgb(189, 189, 189)" stroke-width="1px" opacity="0.25"></line><line x1="116.66666666666667" y1="0" x2="116.66666666666667" y2="177" fill="rgb(0, 0, 0)" stroke="rgb(189, 189, 189)" stroke-width="1px" opacity="0.25"></line><line x1="140" y1="0" x2="140" y2="177" fill="rgb(0, 0, 0)" stroke="rgb(189, 189, 189)" stroke-width="1px" opacity="0.25"></line><line x1="163.33333333333334" y1="0" x2="163.33333333333334" y2="177" fill="rgb(0, 0, 0)" stroke="rgb(189, 189, 189)" stroke-width="1px" opacity="0.25"></line><line x1="186.66666666666666" y1="0" x2="186.66666666666666" y2="177" fill="rgb(0, 0, 0)" stroke="rgb(189, 189, 189)" stroke-width="1px" opacity="0.25"></line><line x1="210" y1="0" x2="210" y2="177" fill="rgb(0, 0, 0)" stroke="rgb(189, 189, 189)" stroke-width="1px" opacity="0.25"></line><line x1="233.33333333333334" y1="0" x2="233.33333333333334" y2="177" fill="rgb(0, 0, 0)" stroke="rgb(189, 189, 189)" stroke-width="1px" opacity="0.25"></line><line x1="256.66666666666663" y1="0" x2="256.66666666666663" y2="177" fill="rgb(0, 0, 0)" stroke="rgb(189, 189, 189)" stroke-width="1px" opacity="0.25"></line><line x1="280" y1="0" x2="280" y2="177" fill="rgb(0, 0, 0)" stroke="rgb(189, 189, 189)" stroke-width="1px" opacity="0.25"></line></g><g><line x1="0" y1="177" x2="280" y2="177" fill="rgb(0, 0, 0)" stroke="rgb(189, 189, 189)" stroke-width="1px" opacity="0.25"></line><line x1="0" y1="160.9090909090909" x2="280" y2="160.9090909090909" fill="rgb(0, 0, 0)" stroke="rgb(189, 189, 189)" stroke-width="1px" opacity="0.25"></line><line x1="0" y1="144.8181818181818" x2="280" y2="144.8181818181818" fill="rgb(0, 0, 0)" stroke="rgb(189, 189, 189)" stroke-width="1px" opacity="0.25"></line><line x1="0" y1="128.72727272727272" x2="280" y2="128.72727272727272" fill="rgb(0, 0, 0)" stroke="rgb(189, 189, 189)" stroke-width="1px" opacity="0.25"></line><line x1="0" y1="112.63636363636364" x2="280" y2="112.63636363636364" fill="rgb(0, 0, 0)" stroke="rgb(189, 189, 189)" stroke-width="1px" opacity="0.25"></line><line x1="0" y1="96.54545454545453" x2="280" y2="96.54545454545453" fill="rgb(0, 0, 0)" stroke="rgb(189, 189, 189)" stroke-width="1px" opacity="0.25"></line><line x1="0" y1="80.45454545454547" x2="280" y2="80.45454545454547" fill="rgb(0, 0, 0)" stroke="rgb(189, 189, 189)" stroke-width="1px" opacity="0.25"></line><line x1="0" y1="64.36363636363635" x2="280" y2="64.36363636363635" fill="rgb(0, 0, 0)" stroke="rgb(189, 189, 189)" stroke-width="1px" opacity="0.25"></line><line x1="0" y1="48.272727272727266" x2="280" y2="48.272727272727266" fill="rgb(0, 0, 0)" stroke="rgb(189, 189, 189)" stroke-width="1px" opacity="0.25"></line><line x1="0" y1="32.181818181818194" x2="280" y2="32.181818181818194" fill="rgb(0, 0, 0)" stroke="rgb(189, 189, 189)" stroke-width="1px" opacity="0.25"></line><line x1="0" y1="16.090909090909076" x2="280" y2="16.090909090909076" fill="rgb(0, 0, 0)" stroke="rgb(189, 189, 189)" stroke-width="1px" opacity="0.25"></line><line x1="0" y1="0" x2="280" y2="0" fill="rgb(0, 0, 0)" stroke="rgb(189, 189, 189)" stroke-width="1px" opacity="0.25"></line></g></g></g><g><g><line x1="0" y1="177" x2="280" y2="177" fill="rgb(0, 0, 0)" stroke="rgb(153, 153, 153)" stroke-width="1.5px"></line></g></g><g><g><line x1="23.333333333333332" y1="0" x2="23.333333333333332" y2="177" fill="rgb(0, 0, 0)" stroke="rgb(153, 153, 153)" stroke-width="1.5px"></line></g></g><g><g><g><g><g><path stroke="rgb(51, 187, 238)" stroke-width="2px" d="M23.333333333333332,-31.939735455946483L28,1.218624423850645L32.666666666666664,16.352217676024722L37.333333333333336,29.19019260008465L42,45.39867177933529L46.666666666666664,50.036070818825564L51.33333333333333,58.622101088916175L56,65.44331433096029L60.66666666666667,66.26543629628561L65.33333333333333,70.00844660378407L70,66.7921137513456L74.66666666666667,73.16257273418411L79.33333333333333,77.18789339286823L84,79.79469897947565L88.66666666666666,80.5684868018536L93.33333333333333,83.59286647785093L98,82.78063665060472L102.66666666666666,80.94866185115166L107.33333333333334,80.05718518454084L112,59.2761396249955L116.66666666666667,68.80120101424302L121.33333333333334,74.67804429316043L126,79.37200462058313L130.66666666666666,79.6735939480394L135.33333333333334,75.0478397815654L140,77.25810488630201L144.66666666666669,81.39467042012053L149.33333333333334,80.67033105365496L154,78.39265975367597L158.66666666666666,72.1122061874442L163.33333333333334,76.09708728125597L168,77.54429446545556L172.66666666666669,79.38451316190388L177.33333333333331,78.18094920186552L182,78.24717565116714L186.66666666666666,78.71131253944024L191.33333333333334,78.85328457539163L196,78.11654194462571L200.66666666666666,73.91769821951988L205.33333333333331,75.06718856445656L210,73.95906548729191L214.66666666666669,74.43224171061806L219.33333333333334,74.09653984940893L224,72.47850012523911L228.66666666666666,71.82717891554825L233.33333333333334,71.52031161578859L238,70.78199857368526L242.66666666666669,68.83977108151184L247.33333333333331,67.37301565864881L252,65.39814824528136" style="fill: none;" fill="none"></path></g><g><path stroke="rgb(204, 51, 17)" stroke-width="2px" d="M32.666666666666664,-23.561364187214508L37.333333333333336,11.255852357031184L42,35.25910295384644L46.666666666666664,53.40677024095161L51.33333333333333,67.09000157008943L56,77.65802630094691L60.66666666666667,86.70976607817587L65.33333333333333,93.51874440935114L70,99.40979340958317L74.66666666666667,104.26356363644463L79.33333333333333,108.66009480990432L84,112.67924573574565L88.66666666666666,116.34175944824003L93.33333333333333,119.30385969270569L98,122.21008885786686L102.66666666666666,125.07843912631881L107.33333333333334,127.33058353890634L112,129.74481866898967L116.66666666666667,131.33194437599758L121.33333333333334,133.58945504251622L126,135.23294817757662L130.66666666666666,136.64398426461972L135.33333333333334,138.03489800852606L140,139.35248929969785L144.66666666666669,140.94888652004033L149.33333333333334,142.69643061243056L154,143.86566066729273L158.66666666666666,145.0967221350134L163.33333333333334,145.94745044368298L168,147.187688791859L172.66666666666669,148.37337416194148L177.33333333333331,149.56956846922876L182,150.69429290359395L186.66666666666666,151.53888100618332L191.33333333333334,152.53047511775463L196,153.61152924689324L200.66666666666666,154.47533961389337L205.33333333333331,155.18944683186265L210,155.8405034415268L214.66666666666669,156.73425957032308L219.33333333333334,157.4824440100245L224,158.25871946257783L228.66666666666666,159.0473417861451L233.33333333333334,159.5627356494612L238,160.17554405863092L242.66666666666669,160.72546874767426L247.33333333333331,161.27308790109825L252,161.80922208696765" style="fill: none;" fill="none"></path></g></g></g></g><g opacity="0.2"><g><g><g><path stroke="rgb(51, 187, 238)" stroke-width="2px" d="M23.333333333333332,-31.939735455946483L28,21.113640351728954L32.666666666666664,30.88046719811179L37.333333333333336,44.28765111077916L42,66.56046219576488L46.666666666666664,56.45126315409486L51.33333333333333,70.90026175163008L56,75.38870872150768L60.66666666666667,67.47790650616993L65.33333333333333,75.566380685026L70,61.99678637493741L74.66666666666667,82.68359345197678L79.33333333333333,83.21273101053454L84,83.6998003558679L88.66666666666666,81.72825897688215L93.33333333333333,88.12730296497996L98,81.56263561817732L102.66666666666666,78.20116479017518L107.33333333333334,78.72010599212214L112,28.10647075555541L116.66666666666667,83.08827072111043L121.33333333333334,83.49311583150516L126,86.41285243765876L130.66666666666666,80.12597436661069L135.33333333333334,68.10924140973523L140,80.57349311763589L144.66666666666669,87.59950813651085L149.33333333333334,79.58382311598822L154,74.97615490176462L158.66666666666666,62.69152930920775L163.33333333333334,82.07440760054372L168,79.71510495380923L172.66666666666669,82.14484098689124L177.33333333333331,76.37560334801674L182,78.34651532227342L186.66666666666666,79.40751785988157L191.33333333333334,79.06624262712218L196,77.01142800531603L200.66666666666666,67.61943265524778L205.33333333333331,76.79142407802019L210,72.29688087376681L214.66666666666669,75.14200604503806L219.33333333333334,73.59298705783758L224,70.05144053968516L228.66666666666666,70.8501971011812L233.33333333333334,71.06001066619699L238,69.6745290105993L242.66666666666669,65.92642984336074L247.33333333333331,65.17288252440366L252,62.43584712527014" style="fill: none;" fill="none"></path></g><g><path stroke="rgb(204, 51, 17)" stroke-width="2px" d="M28,-7.991197220303792L32.666666666666664,31.18080714615908L37.333333333333336,52.20089901306413L42,66.59774693304841L46.666666666666664,78.51152725924145L51.33333333333333,86.65724130245772L56,93.06630781157449L60.66666666666667,100.05932403965429L65.33333333333333,103.62928368557583L70,108.19293552908032L74.66666666666667,111.51780497350477L79.33333333333333,115.24053613299674L84,118.70009818944065L88.66666666666666,121.83122486959805L93.33333333333333,123.74492095681755L98,126.56820278682493L102.66666666666666,129.38023625517434L107.33333333333334,130.70845706625417L112,133.36595069346103L116.66666666666667,133.71254589476368L121.33333333333334,136.97564675794408L126,137.6981554322622L130.66666666666666,138.76052168011665L135.33333333333334,140.12125873836604L140,141.32887061753055L144.66666666666669,143.3434782658111L149.33333333333334,145.31774406812409L154,145.61950467255983L158.66666666666666,146.94331365620548L163.33333333333334,147.22354262457654L168,149.04804606735706L172.66666666666669,150.15190207551825L177.33333333333331,151.3638598444787L182,152.38137950680473L186.66666666666666,152.8057631382888L191.33333333333334,154.01786626977L196,155.23311043056574L200.66666666666666,155.77105515958235L205.33333333333331,156.26060765643012L210,156.8170883547176L214.66666666666669,158.0748937624422L219.33333333333334,158.60472066903657L224,159.42313264107162L228.66666666666666,160.23027527129108L233.33333333333334,160.33582644435492L238,161.09475667232817L242.66666666666669,161.5503557812084L247.33333333333331,162.0945166312158L252,162.61342336576092" style="fill: none;" fill="none"></path></g></g></g></g></g></g><g transform="translate(50, 177)" clip-path="url(#clip_1)"><clipPath id="clip_1"><rect width="280" height="23"></rect></clipPath><g><g><line x1="0" y1="0" x2="0" y2="5" style="visibility: inherit;" fill="rgb(0, 0, 0)" stroke="rgb(204, 204, 204)" stroke-width="1px"></line><line x1="23.333333333333332" y1="0" x2="23.333333333333332" y2="5" style="visibility: inherit;" fill="rgb(0, 0, 0)" stroke="rgb(204, 204, 204)" stroke-width="1px"></line><line x1="46.666666666666664" y1="0" x2="46.666666666666664" y2="5" style="visibility: inherit;" fill="rgb(0, 0, 0)" stroke="rgb(204, 204, 204)" stroke-width="1px"></line><line x1="70" y1="0" x2="70" y2="5" style="visibility: inherit;" fill="rgb(0, 0, 0)" stroke="rgb(204, 204, 204)" stroke-width="1px"></line><line x1="93.33333333333333" y1="0" x2="93.33333333333333" y2="5" style="visibility: inherit;" fill="rgb(0, 0, 0)" stroke="rgb(204, 204, 204)" stroke-width="1px"></line><line x1="116.66666666666667" y1="0" x2="116.66666666666667" y2="5" style="visibility: inherit;" fill="rgb(0, 0, 0)" stroke="rgb(204, 204, 204)" stroke-width="1px"></line><line x1="140" y1="0" x2="140" y2="5" style="visibility: inherit;" fill="rgb(0, 0, 0)" stroke="rgb(204, 204, 204)" stroke-width="1px"></line><line x1="163.33333333333334" y1="0" x2="163.33333333333334" y2="5" style="visibility: inherit;" fill="rgb(0, 0, 0)" stroke="rgb(204, 204, 204)" stroke-width="1px"></line><line x1="186.66666666666666" y1="0" x2="186.66666666666666" y2="5" style="visibility: inherit;" fill="rgb(0, 0, 0)" stroke="rgb(204, 204, 204)" stroke-width="1px"></line><line x1="210" y1="0" x2="210" y2="5" style="visibility: inherit;" fill="rgb(0, 0, 0)" stroke="rgb(204, 204, 204)" stroke-width="1px"></line><line x1="233.33333333333334" y1="0" x2="233.33333333333334" y2="5" style="visibility: inherit;" fill="rgb(0, 0, 0)" stroke="rgb(204, 204, 204)" stroke-width="1px"></line><line x1="256.66666666666663" y1="0" x2="256.66666666666663" y2="5" style="visibility: inherit;" fill="rgb(0, 0, 0)" stroke="rgb(204, 204, 204)" stroke-width="1px"></line><line x1="280" y1="0" x2="280" y2="5" style="visibility: inherit;" fill="rgb(0, 0, 0)" stroke="rgb(204, 204, 204)" stroke-width="1px"></line></g><g transform="translate(0, 8)"><text x="0" y="0" dx="0em" dy="0.95em" style="text-anchor: middle; visibility: hidden; font-family: Roboto, sans-serif; font-size: 12px; font-weight: 200;" fill="rgb(255, 255, 255)" stroke="none" stroke-width="1px">-5</text><text x="23.333333333333332" y="0" dx="0em" dy="0.95em" style="text-anchor: middle; visibility: inherit; font-family: Roboto, sans-serif; font-size: 12px; font-weight: 200;" fill="rgb(255, 255, 255)" stroke="none" stroke-width="1px">0</text><text x="46.666666666666664" y="0" dx="0em" dy="0.95em" style="text-anchor: middle; visibility: inherit; font-family: Roboto, sans-serif; font-size: 12px; font-weight: 200;" fill="rgb(255, 255, 255)" stroke="none" stroke-width="1px">5</text><text x="70" y="0" dx="0em" dy="0.95em" style="text-anchor: middle; visibility: inherit; font-family: Roboto, sans-serif; font-size: 12px; font-weight: 200;" fill="rgb(255, 255, 255)" stroke="none" stroke-width="1px">10</text><text x="93.33333333333333" y="0" dx="0em" dy="0.95em" style="text-anchor: middle; visibility: inherit; font-family: Roboto, sans-serif; font-size: 12px; font-weight: 200;" fill="rgb(255, 255, 255)" stroke="none" stroke-width="1px">15</text><text x="116.66666666666667" y="0" dx="0em" dy="0.95em" style="text-anchor: middle; visibility: inherit; font-family: Roboto, sans-serif; font-size: 12px; font-weight: 200;" fill="rgb(255, 255, 255)" stroke="none" stroke-width="1px">20</text><text x="140" y="0" dx="0em" dy="0.95em" style="text-anchor: middle; visibility: inherit; font-family: Roboto, sans-serif; font-size: 12px; font-weight: 200;" fill="rgb(255, 255, 255)" stroke="none" stroke-width="1px">25</text><text x="163.33333333333334" y="0" dx="0em" dy="0.95em" style="text-anchor: middle; visibility: inherit; font-family: Roboto, sans-serif; font-size: 12px; font-weight: 200;" fill="rgb(255, 255, 255)" stroke="none" stroke-width="1px">30</text><text x="186.66666666666666" y="0" dx="0em" dy="0.95em" style="text-anchor: middle; visibility: inherit; font-family: Roboto, sans-serif; font-size: 12px; font-weight: 200;" fill="rgb(255, 255, 255)" stroke="none" stroke-width="1px">35</text><text x="210" y="0" dx="0em" dy="0.95em" style="text-anchor: middle; visibility: inherit; font-family: Roboto, sans-serif; font-size: 12px; font-weight: 200;" fill="rgb(255, 255, 255)" stroke="none" stroke-width="1px">40</text><text x="233.33333333333334" y="0" dx="0em" dy="0.95em" style="text-anchor: middle; visibility: inherit; font-family: Roboto, sans-serif; font-size: 12px; font-weight: 200;" fill="rgb(255, 255, 255)" stroke="none" stroke-width="1px">45</text><text x="256.66666666666663" y="0" dx="0em" dy="0.95em" style="text-anchor: middle; visibility: inherit; font-family: Roboto, sans-serif; font-size: 12px; font-weight: 200;" fill="rgb(255, 255, 255)" stroke="none" stroke-width="1px">50</text><text x="280" y="0" dx="0em" dy="0.95em" style="text-anchor: middle; visibility: hidden; font-family: Roboto, sans-serif; font-size: 12px; font-weight: 200;" fill="rgb(255, 255, 255)" stroke="none" stroke-width="1px">55</text></g><line x1="0" y1="0" x2="280" y2="0" fill="rgb(0, 0, 0)" stroke="rgb(204, 204, 204)" stroke-width="1px"></line></g></g></g></g></svg>