<svg viewBox="0 0 330 200" xmlns="http://www.w3.org/2000/svg"><g><g><g><g><g><line x1="50" y1="177" x2="45" y2="177" style="visibility: inherit;" fill="rgb(0, 0, 0)" stroke="rgb(204, 204, 204)" stroke-width="1px"></line><line x1="50" y1="159.3000000000001" x2="45" y2="159.3000000000001" style="visibility: inherit;" fill="rgb(0, 0, 0)" stroke="rgb(204, 204, 204)" stroke-width="1px"></line><line x1="50" y1="141.60000000000005" x2="45" y2="141.60000000000005" style="visibility: inherit;" fill="rgb(0, 0, 0)" stroke="rgb(204, 204, 204)" stroke-width="1px"></line><line x1="50" y1="123.90000000000003" x2="45" y2="123.90000000000003" style="visibility: inherit;" fill="rgb(0, 0, 0)" stroke="rgb(204, 204, 204)" stroke-width="1px"></line><line x1="50" y1="106.20000000000002" x2="45" y2="106.20000000000002" style="visibility: inherit;" fill="rgb(0, 0, 0)" stroke="rgb(204, 204, 204)" stroke-width="1px"></line><line x1="50" y1="88.5" x2="45" y2="88.5" style="visibility: inherit;" fill="rgb(0, 0, 0)" stroke="rgb(204, 204, 204)" stroke-width="1px"></line><line x1="50" y1="70.79999999999998" x2="45" y2="70.79999999999998" style="visibility: inherit;" fill="rgb(0, 0, 0)" stroke="rgb(204, 204, 204)" stroke-width="1px"></line><line x1="50" y1="53.100000000000065" x2="45" y2="53.100000000000065" style="visibility: inherit;" fill="rgb(0, 0, 0)" stroke="rgb(204, 204, 204)" stroke-width="1px"></line><line x1="50" y1="35.400000000000034" x2="45" y2="35.400000000000034" style="visibility: inherit;" fill="rgb(0, 0, 0)" stroke="rgb(204, 204, 204)" stroke-width="1px"></line><line x1="50" y1="17.700000000000017" x2="45" y2="17.700000000000017" style="visibility: inherit;" fill="rgb(0, 0, 0)" stroke="rgb(204, 204, 204)" stroke-width="1px"></line><line x1="50" y1="0" x2="45" y2="0" style="visibility: inherit;" fill="rgb(0, 0, 0)" stroke="rgb(204, 204, 204)" stroke-width="1px"></line></g><g transform="translate(40, 0)"><text x="0" y="177" dx="0em" dy="0.3em" style="text-anchor: end; visibility: hidden; font-family: Roboto, sans-serif; font-size: 12px; font-weight: 200;" fill="rgb(255, 255, 255)" stroke="none" stroke-width="1px">0.8</text><text x="0" y="159.3000000000001" dx="0em" dy="0.3em" style="text-anchor: end; visibility: inherit; font-family: Roboto, sans-serif; font-size: 12px; font-weight: 200;" fill="rgb(255, 255, 255)" stroke="none" stroke-width="1px">0.82</text><text x="0" y="141.60000000000005" dx="0em" dy="0.3em" style="text-anchor: end; visibility: hidden; font-family: Roboto, sans-serif; font-size: 12px; font-weight: 200;" fill="rgb(255, 255, 255)" stroke="none" stroke-width="1px">0.84</text><text x="0" y="123.90000000000003" dx="0em" dy="0.3em" style="text-anchor: end; visibility: inherit; font-family: Roboto, sans-serif; font-size: 12px; font-weight: 200;" fill="rgb(255, 255, 255)" stroke="none" stroke-width="1px">0.86</text><text x="0" y="106.20000000000002" dx="0em" dy="0.3em" style="text-anchor: end; visibility: hidden; font-family: Roboto, sans-serif; font-size: 12px; font-weight: 200;" fill="rgb(255, 255, 255)" stroke="none" stroke-width="1px">0.88</text><text x="0" y="88.5" dx="0em" dy="0.3em" style="text-anchor: end; visibility: inherit; font-family: Roboto, sans-serif; font-size: 12px; font-weight: 200;" fill="rgb(255, 255, 255)" stroke="none" stroke-width="1px">0.9</text><text x="0" y="70.79999999999998" dx="0em" dy="0.3em" style="text-anchor: end; visibility: hidden; font-family: Roboto, sans-serif; font-size: 12px; font-weight: 200;" fill="rgb(255, 255, 255)" stroke="none" stroke-width="1px">0.92</text><text x="0" y="53.100000000000065" dx="0em" dy="0.3em" style="text-anchor: end; visibility: inherit; font-family: Roboto, sans-serif; font-size: 12px; font-weight: 200;" fill="rgb(255, 255, 255)" stroke="none" stroke-width="1px">0.94</text><text x="0" y="35.400000000000034" dx="0em" dy="0.3em" style="text-anchor: end; visibility: hidden; font-family: Roboto, sans-serif; font-size: 12px; font-weight: 200;" fill="rgb(255, 255, 255)" stroke="none" stroke-width="1px">0.96</text><text x="0" y="17.700000000000017" dx="0em" dy="0.3em" style="text-anchor: end; visibility: inherit; font-family: Roboto, sans-serif; font-size: 12px; font-weight: 200;" fill="rgb(255, 255, 255)" stroke="none" stroke-width="1px">0.98</text><text x="0" y="0" dx="0em" dy="0.3em" style="text-anchor: end; visibility: hidden; font-family: Roboto, sans-serif; font-size: 12px; font-weight: 200;" fill="rgb(255, 255, 255)" stroke="none" stroke-width="1px">1</text></g><line x1="50" y1="0" x2="50" y2="177" fill="rgb(0, 0, 0)" stroke="rgb(204, 204, 204)" stroke-width="1px"></line></g></g><g transform="translate(50, 0)" clip-path="url(#clip_0)"><clipPath id="clip_0"><rect width="280" height="177"></rect></clipPath><g><g><g><line x1="0" y1="0" x2="0" y2="177" fill="rgb(0, 0, 0)" stroke="rgb(189, 189, 189)" stroke-width="1px" opacity="0.25"></line><line x1="23.333333333333332" y1="0" x2="23.333333333333332" y2="177" fill="rgb(0, 0, 0)" stroke="rgb(189, 189, 189)" stroke-width="1px" opacity="0.25"></line><line x1="46.666666666666664" y1="0" x2="46.666666666666664" y2="177" fill="rgb(0, 0, 0)" stroke="rgb(189, 189, 189)" stroke-width="1px" opacity="0.25"></line><line x1="70" y1="0" x2="70" y2="177" fill="rgb(0, 0, 0)" stroke="rgb(189, 189, 189)" stroke-width="1px" opacity="0.25"></line><line x1="93.33333333333333" y1="0" x2="93.33333333333333" y2="177" fill="rgb(0, 0, 0)" stroke="rgb(189, 189, 189)" stroke-width="1px" opacity="0.25"></line><line x1="116.66666666666667" y1="0" x2="116.66666666666667" y2="177" fill="rgb(0, 0, 0)" stroke="rgb(189, 189, 189)" stroke-width="1px" opacity="0.25"></line><line x1="140" y1="0" x2="140" y2="177" fill="rgb(0, 0, 0)" stroke="rgb(189, 189, 189)" stroke-width="1px" opacity="0.25"></line><line x1="163.33333333333334" y1="0" x2="163.33333333333334" y2="177" fill="rgb(0, 0, 0)" stroke="rgb(189, 189, 189)" stroke-width="1px" opacity="0.25"></line><line x1="186.66666666666666" y1="0" x2="186.66666666666666" y2="177" fill="rgb(0, 0, 0)" stroke="rgb(189, 189, 189)" stroke-width="1px" opacity="0.25"></line><line x1="210" y1="0" x2="210" y2="177" fill="rgb(0, 0, 0)" stroke="rgb(189, 189, 189)" stroke-width="1px" opacity="0.25"></line><line x1="233.33333333333334" y1="0" x2="233.33333333333334" y2="177" fill="rgb(0, 0, 0)" stroke="rgb(189, 189, 189)" stroke-width="1px" opacity="0.25"></line><line x1="256.66666666666663" y1="0" x2="256.66666666666663" y2="177" fill="rgb(0, 0, 0)" stroke="rgb(189, 189, 189)" stroke-width="1px" opacity="0.25"></line><line x1="280" y1="0" x2="280" y2="177" fill="rgb(0, 0, 0)" stroke="rgb(189, 189, 189)" stroke-width="1px" opacity="0.25"></line></g><g><line x1="0" y1="177" x2="280" y2="177" fill="rgb(0, 0, 0)" stroke="rgb(189, 189, 189)" stroke-width="1px" opacity="0.25"></line><line x1="0" y1="159.3000000000001" x2="280" y2="159.3000000000001" fill="rgb(0, 0, 0)" stroke="rgb(189, 189, 189)" stroke-width="1px" opacity="0.25"></line><line x1="0" y1="141.60000000000005" x2="280" y2="141.60000000000005" fill="rgb(0, 0, 0)" stroke="rgb(189, 189, 189)" stroke-width="1px" opacity="0.25"></line><line x1="0" y1="123.90000000000003" x2="280" y2="123.90000000000003" fill="rgb(0, 0, 0)" stroke="rgb(189, 189, 189)" stroke-width="1px" opacity="0.25"></line><line x1="0" y1="106.20000000000002" x2="280" y2="106.20000000000002" fill="rgb(0, 0, 0)" stroke="rgb(189, 189, 189)" stroke-width="1px" opacity="0.25"></line><line x1="0" y1="88.5" x2="280" y2="88.5" fill="rgb(0, 0, 0)" stroke="rgb(189, 189, 189)" stroke-width="1px" opacity="0.25"></line><line x1="0" y1="70.79999999999998" x2="280" y2="70.79999999999998" fill="rgb(0, 0, 0)" stroke="rgb(189, 189, 189)" stroke-width="1px" opacity="0.25"></line><line x1="0" y1="53.100000000000065" x2="280" y2="53.100000000000065" fill="rgb(0, 0, 0)" stroke="rgb(189, 189, 189)" stroke-width="1px" opacity="0.25"></line><line x1="0" y1="35.400000000000034" x2="280" y2="35.400000000000034" fill="rgb(0, 0, 0)" stroke="rgb(189, 189, 189)" stroke-width="1px" opacity="0.25"></line><line x1="0" y1="17.700000000000017" x2="280" y2="17.700000000000017" fill="rgb(0, 0, 0)" stroke="rgb(189, 189, 189)" stroke-width="1px" opacity="0.25"></line><line x1="0" y1="0" x2="280" y2="0" fill="rgb(0, 0, 0)" stroke="rgb(189, 189, 189)" stroke-width="1px" opacity="0.25"></line></g></g></g><g><g><line x1="0" y1="885.0000000000001" x2="280" y2="885.0000000000001" fill="rgb(0, 0, 0)" stroke="rgb(153, 153, 153)" stroke-width="1.5px"></line></g></g><g><g><line x1="23.333333333333332" y1="0" x2="23.333333333333332" y2="177" fill="rgb(0, 0, 0)" stroke="rgb(153, 153, 153)" stroke-width="1.5px"></line></g></g><g><g><g><g><g><path stroke="rgb(187, 187, 187)" stroke-width="2px" d="M23.333333333333332,72.64375984668733L28,61.39687579125168L32.666666666666664,49.75114841850436L37.333333333333336,42.37641738179851L42,37.52728474483495L46.666666666666664,33.41657965194941L51.33333333333333,30.86398315464542L56,28.44881912219413L60.66666666666667,26.63854953339221L65.33333333333333,25.089255146111746L70,24.07688005182903L74.66666666666667,22.52575652427861L79.33333333333333,21.656319044079126L84,21.430614949187746L88.66666666666666,21.02967899250966L93.33333333333333,20.31709691545023L98,19.801167781296137L102.66666666666666,19.314661049595667L107.33333333333334,18.81626991714934L112,18.782766239487007L116.66666666666667,18.172652436468603L121.33333333333334,17.747596220307244L126,17.433548781376572L130.66666666666666,17.687634130120212L135.33333333333334,17.39757318274029L140,17.93155033465657L144.66666666666669,17.160429636626343L149.33333333333334,16.84524712280197L154,17.039652283986072L158.66666666666666,17.421797250352814L163.33333333333334,16.913574231590264L168,16.815146612991732L172.66666666666669,16.195588444610895L177.33333333333331,15.853351425224291L182,15.64800921986786L186.66666666666666,15.937795069287816L191.33333333333334,16.11166657702665L196,16.039002309151197L200.66666666666666,15.611910443491512L205.33333333333331,16.35864592949239L210,16.03967951128937L214.66666666666669,15.405810632341403L219.33333333333334,15.526995157058288L224,15.157195743768058L228.66666666666666,15.613809118824141L233.33333333333334,15.297777706458472L238,14.960669549735387L242.66666666666669,14.994408650656435L247.33333333333331,14.985154249346172L252,15.009099470422296" style="fill: none;" fill="none"></path></g><g><path stroke="rgb(0, 153, 136)" stroke-width="2px" d="M23.333333333333332,159.74247425794604L28,97.48135384172203L32.666666666666664,70.81165484627905L37.333333333333336,55.7156877132024L42,45.82466782980053L46.666666666666664,39.17636335300232L51.33333333333333,34.116937827822696L56,30.423366383458085L60.66666666666667,27.74074190814472L65.33333333333333,25.421416909789627L70,23.446682265646878L74.66666666666667,22.111224432493664L79.33333333333333,20.935191364008173L84,19.809849457342118L88.66666666666666,18.884359200670207L93.33333333333333,17.96047408677856L98,17.24404414869045L102.66666666666666,16.61512246264237L107.33333333333334,15.869022386572086L112,15.443526194868559L116.66666666666667,15.011226282102333L121.33333333333334,14.589612028183657L126,13.94576562080128L130.66666666666666,13.62584208431377L135.33333333333334,13.205248203082087L140,13.070905388432347L144.66666666666669,12.916534016109509L149.33333333333334,12.50679853405659L154,12.22407451491966L158.66666666666666,11.98069549914888L163.33333333333334,11.819919191233913L168,11.730817336163147L172.66666666666669,11.46348616892333L177.33333333333331,11.258840682688563L182,10.95904512044001L186.66666666666666,10.786552801953029L191.33333333333334,10.734689220599925L196,10.489679922632181L200.66666666666666,10.423804014757648L205.33333333333331,10.340031677274201L210,10.016902502389927L214.66666666666669,9.764008173828167L219.33333333333334,9.597522645833573L224,9.446020620821933L228.66666666666666,9.35511940583183L233.33333333333334,9.219449006695703L238,9.086414958936501L242.66666666666669,8.866469136413407L247.33333333333331,8.793497366627985L252,8.675969650101216" style="fill: none;" fill="none"></path></g></g></g></g><g opacity="0.2"><g><g><g><path stroke="rgb(187, 187, 187)" stroke-width="2px" d="M23.333333333333332,72.64375984668733L28,54.648745357990286L32.666666666666664,38.57125014066696L37.333333333333336,33.703733682632446L42,31.196257174015045L46.666666666666664,27.729994654655457L51.33333333333333,27.213729321956635L56,24.927486777305603L60.66666666666667,23.96875351667404L65.33333333333333,22.788733541965485L70,22.567499577999115L74.66666666666667,20.207512378692627L79.33333333333333,20.35500168800354L84,21.09250098466873L88.66666666666666,20.428746342658997L93.33333333333333,19.24872636795044L98,19.02749240398407L102.66666666666666,18.58502447605133L107.33333333333334,18.06875914335251L112,18.732513785362244L116.66666666666667,17.25751519203186L121.33333333333334,17.110025882720947L126,16.962483823299408L130.66666666666666,18.06875914335251L135.33333333333334,16.962483823299408L140,18.732513785362244L144.66666666666669,16.003750562667847L149.33333333333334,16.37247383594513L154,17.331259846687317L158.66666666666666,17.995014488697052L163.33333333333334,16.15123987197876L168,16.667505204677582L172.66666666666669,15.266251266002655L177.33333333333331,15.339995920658112L182,15.339995920658112L186.66666666666666,16.37247383594513L191.33333333333334,16.37247383594513L196,15.93000590801239L200.66666666666666,14.971272647380829L205.33333333333331,17.47874915599823L210,15.561229884624481L214.66666666666669,14.455007314682007L219.33333333333334,15.70877194404602L224,14.60249662399292L228.66666666666666,16.298729181289673L233.33333333333334,14.82373058795929L238,14.455007314682007L242.66666666666669,15.045017302036285L247.33333333333331,14.971272647380829L252,15.045017302036285" style="fill: none;" fill="none"></path></g><g><path stroke="rgb(0, 153, 136)" stroke-width="2px" d="M23.333333333333332,159.74247425794604L28,60.12468159198763L32.666666666666664,45.20874381065371L37.333333333333336,37.96283036470413L42,32.910952270030975L46.666666666666664,29.97936487197876L51.33333333333333,26.88187837600708L56,25.038103759288788L60.66666666666667,23.7843918800354L65.33333333333333,21.977489590644836L70,20.502490997314453L74.66666666666667,20.115305185317993L79.33333333333333,19.174981713294983L84,18.124041259288788L88.66666666666666,17.497211694717407L93.33333333333333,16.575298011302948L98,16.169702410697937L102.66666666666666,15.671899616718292L107.33333333333334,14.749985933303833L112,14.805320799350739L116.66666666666667,14.362800121307373L121.33333333333334,13.957204520702362L126,12.980008721351624L130.66666666666666,13.145960569381714L135.33333333333334,12.574360370635986L140,12.869391739368439L144.66666666666669,12.684977352619171L149.33333333333334,11.8921959400177L154,11.799988746643066L158.66666666666666,11.615627110004425L163.33333333333334,11.578754782676697L168,11.597164571285248L172.66666666666669,11.062489449977875L177.33333333333331,10.95187246799469L182,10.509351789951324L186.66666666666666,10.527814328670502L191.33333333333334,10.656893849372864L196,10.122165977954865L200.66666666666666,10.324990153312683L205.33333333333331,10.214373171329498L210,9.532208740711212L214.66666666666669,9.384666681289673L219.33333333333334,9.347794353961945L224,9.218767583370209L228.66666666666666,9.218767583370209L233.33333333333334,9.01594340801239L238,8.886863887310028L242.66666666666669,8.536550402641296L247.33333333333331,8.68403971195221L252,8.499678075313568" style="fill: none;" fill="none"></path></g></g></g></g></g></g><g transform="translate(50, 177)" clip-path="url(#clip_1)"><clipPath id="clip_1"><rect width="280" height="23"></rect></clipPath><g><g><line x1="0" y1="0" x2="0" y2="5" style="visibility: inherit;" fill="rgb(0, 0, 0)" stroke="rgb(204, 204, 204)" stroke-width="1px"></line><line x1="23.333333333333332" y1="0" x2="23.333333333333332" y2="5" style="visibility: inherit;" fill="rgb(0, 0, 0)" stroke="rgb(204, 204, 204)" stroke-width="1px"></line><line x1="46.666666666666664" y1="0" x2="46.666666666666664" y2="5" style="visibility: inherit;" fill="rgb(0, 0, 0)" stroke="rgb(204, 204, 204)" stroke-width="1px"></line><line x1="70" y1="0" x2="70" y2="5" style="visibility: inherit;" fill="rgb(0, 0, 0)" stroke="rgb(204, 204, 204)" stroke-width="1px"></line><line x1="93.33333333333333" y1="0" x2="93.33333333333333" y2="5" style="visibility: inherit;" fill="rgb(0, 0, 0)" stroke="rgb(204, 204, 204)" stroke-width="1px"></line><line x1="116.66666666666667" y1="0" x2="116.66666666666667" y2="5" style="visibility: inherit;" fill="rgb(0, 0, 0)" stroke="rgb(204, 204, 204)" stroke-width="1px"></line><line x1="140" y1="0" x2="140" y2="5" style="visibility: inherit;" fill="rgb(0, 0, 0)" stroke="rgb(204, 204, 204)" stroke-width="1px"></line><line x1="163.33333333333334" y1="0" x2="163.33333333333334" y2="5" style="visibility: inherit;" fill="rgb(0, 0, 0)" stroke="rgb(204, 204, 204)" stroke-width="1px"></line><line x1="186.66666666666666" y1="0" x2="186.66666666666666" y2="5" style="visibility: inherit;" fill="rgb(0, 0, 0)" stroke="rgb(204, 204, 204)" stroke-width="1px"></line><line x1="210" y1="0" x2="210" y2="5" style="visibility: inherit;" fill="rgb(0, 0, 0)" stroke="rgb(204, 204, 204)" stroke-width="1px"></line><line x1="233.33333333333334" y1="0" x2="233.33333333333334" y2="5" style="visibility: inherit;" fill="rgb(0, 0, 0)" stroke="rgb(204, 204, 204)" stroke-width="1px"></line><line x1="256.66666666666663" y1="0" x2="256.66666666666663" y2="5" style="visibility: inherit;" fill="rgb(0, 0, 0)" stroke="rgb(204, 204, 204)" stroke-width="1px"></line><line x1="280" y1="0" x2="280" y2="5" style="visibility: inherit;" fill="rgb(0, 0, 0)" stroke="rgb(204, 204, 204)" stroke-width="1px"></line></g><g transform="translate(0, 8)"><text x="0" y="0" dx="0em" dy="0.95em" style="text-anchor: middle; visibility: hidden; font-family: Roboto, sans-serif; font-size: 12px; font-weight: 200;" fill="rgb(255, 255, 255)" stroke="none" stroke-width="1px">-5</text><text x="23.333333333333332" y="0" dx="0em" dy="0.95em" style="text-anchor: middle; visibility: inherit; font-family: Roboto, sans-serif; font-size: 12px; font-weight: 200;" fill="rgb(255, 255, 255)" stroke="none" stroke-width="1px">0</text><text x="46.666666666666664" y="0" dx="0em" dy="0.95em" style="text-anchor: middle; visibility: inherit; font-family: Roboto, sans-serif; font-size: 12px; font-weight: 200;" fill="rgb(255, 255, 255)" stroke="none" stroke-width="1px">5</text><text x="70" y="0" dx="0em" dy="0.95em" style="text-anchor: middle; visibility: inherit; font-family: Roboto, sans-serif; font-size: 12px; font-weight: 200;" fill="rgb(255, 255, 255)" stroke="none" stroke-width="1px">10</text><text x="93.33333333333333" y="0" dx="0em" dy="0.95em" style="text-anchor: middle; visibility: inherit; font-family: Roboto, sans-serif; font-size: 12px; font-weight: 200;" fill="rgb(255, 255, 255)" stroke="none" stroke-width="1px">15</text><text x="116.66666666666667" y="0" dx="0em" dy="0.95em" style="text-anchor: middle; visibility: inherit; font-family: Roboto, sans-serif; font-size: 12px; font-weight: 200;" fill="rgb(255, 255, 255)" stroke="none" stroke-width="1px">20</text><text x="140" y="0" dx="0em" dy="0.95em" style="text-anchor: middle; visibility: inherit; font-family: Roboto, sans-serif; font-size: 12px; font-weight: 200;" fill="rgb(255, 255, 255)" stroke="none" stroke-width="1px">25</text><text x="163.33333333333334" y="0" dx="0em" dy="0.95em" style="text-anchor: middle; visibility: inherit; font-family: Roboto, sans-serif; font-size: 12px; font-weight: 200;" fill="rgb(255, 255, 255)" stroke="none" stroke-width="1px">30</text><text x="186.66666666666666" y="0" dx="0em" dy="0.95em" style="text-anchor: middle; visibility: inherit; font-family: Roboto, sans-serif; font-size: 12px; font-weight: 200;" fill="rgb(255, 255, 255)" stroke="none" stroke-width="1px">35</text><text x="210" y="0" dx="0em" dy="0.95em" style="text-anchor: middle; visibility: inherit; font-family: Roboto, sans-serif; font-size: 12px; font-weight: 200;" fill="rgb(255, 255, 255)" stroke="none" stroke-width="1px">40</text><text x="233.33333333333334" y="0" dx="0em" dy="0.95em" style="text-anchor: middle; visibility: inherit; font-family: Roboto, sans-serif; font-size: 12px; font-weight: 200;" fill="rgb(255, 255, 255)" stroke="none" stroke-width="1px">45</text><text x="256.66666666666663" y="0" dx="0em" dy="0.95em" style="text-anchor: middle; visibility: inherit; font-family: Roboto, sans-serif; font-size: 12px; font-weight: 200;" fill="rgb(255, 255, 255)" stroke="none" stroke-width="1px">50</text><text x="280" y="0" dx="0em" dy="0.95em" style="text-anchor: middle; visibility: hidden; font-family: Roboto, sans-serif; font-size: 12px; font-weight: 200;" fill="rgb(255, 255, 255)" stroke="none" stroke-width="1px">55</text></g><line x1="0" y1="0" x2="280" y2="0" fill="rgb(0, 0, 0)" stroke="rgb(204, 204, 204)" stroke-width="1px"></line></g></g></g></g></svg>