<svg viewBox="0 0 330 200" xmlns="http://www.w3.org/2000/svg"><g><g><g><g><g><line x1="50" y1="177" x2="45" y2="177" style="visibility: inherit;" fill="rgb(0, 0, 0)" stroke="rgb(204, 204, 204)" stroke-width="1px"></line><line x1="50" y1="151.7142857142793" x2="45" y2="151.7142857142793" style="visibility: inherit;" fill="rgb(0, 0, 0)" stroke="rgb(204, 204, 204)" stroke-width="1px"></line><line x1="50" y1="126.4285714285586" x2="45" y2="126.4285714285586" style="visibility: inherit;" fill="rgb(0, 0, 0)" stroke="rgb(204, 204, 204)" stroke-width="1px"></line><line x1="50" y1="101.14285714286036" x2="45" y2="101.14285714286036" style="visibility: inherit;" fill="rgb(0, 0, 0)" stroke="rgb(204, 204, 204)" stroke-width="1px"></line><line x1="50" y1="75.85714285713964" x2="45" y2="75.85714285713964" style="visibility: inherit;" fill="rgb(0, 0, 0)" stroke="rgb(204, 204, 204)" stroke-width="1px"></line><line x1="50" y1="50.5714285714414" x2="45" y2="50.5714285714414" style="visibility: inherit;" fill="rgb(0, 0, 0)" stroke="rgb(204, 204, 204)" stroke-width="1px"></line><line x1="50" y1="25.2857142857207" x2="45" y2="25.2857142857207" style="visibility: inherit;" fill="rgb(0, 0, 0)" stroke="rgb(204, 204, 204)" stroke-width="1px"></line><line x1="50" y1="0" x2="45" y2="0" style="visibility: inherit;" fill="rgb(0, 0, 0)" stroke="rgb(204, 204, 204)" stroke-width="1px"></line></g><g transform="translate(40, 0)"><text x="0" y="177" dx="0em" dy="0.3em" style="text-anchor: end; visibility: hidden; font-family: Roboto, sans-serif; font-size: 12px; font-weight: 200;" fill="rgb(255, 255, 255)" stroke="none" stroke-width="1px">2.3</text><text x="0" y="151.7142857142793" dx="0em" dy="0.3em" style="text-anchor: end; visibility: inherit; font-family: Roboto, sans-serif; font-size: 12px; font-weight: 200;" fill="rgb(255, 255, 255)" stroke="none" stroke-width="1px">2.3</text><text x="0" y="126.4285714285586" dx="0em" dy="0.3em" style="text-anchor: end; visibility: inherit; font-family: Roboto, sans-serif; font-size: 12px; font-weight: 200;" fill="rgb(255, 255, 255)" stroke="none" stroke-width="1px">2.3</text><text x="0" y="101.14285714286036" dx="0em" dy="0.3em" style="text-anchor: end; visibility: inherit; font-family: Roboto, sans-serif; font-size: 12px; font-weight: 200;" fill="rgb(255, 255, 255)" stroke="none" stroke-width="1px">2.3</text><text x="0" y="75.85714285713964" dx="0em" dy="0.3em" style="text-anchor: end; visibility: inherit; font-family: Roboto, sans-serif; font-size: 12px; font-weight: 200;" fill="rgb(255, 255, 255)" stroke="none" stroke-width="1px">2.3</text><text x="0" y="50.5714285714414" dx="0em" dy="0.3em" style="text-anchor: end; visibility: inherit; font-family: Roboto, sans-serif; font-size: 12px; font-weight: 200;" fill="rgb(255, 255, 255)" stroke="none" stroke-width="1px">2.3</text><text x="0" y="25.2857142857207" dx="0em" dy="0.3em" style="text-anchor: end; visibility: inherit; font-family: Roboto, sans-serif; font-size: 12px; font-weight: 200;" fill="rgb(255, 255, 255)" stroke="none" stroke-width="1px">2.3</text><text x="0" y="0" dx="0em" dy="0.3em" style="text-anchor: end; visibility: hidden; font-family: Roboto, sans-serif; font-size: 12px; font-weight: 200;" fill="rgb(255, 255, 255)" stroke="none" stroke-width="1px">2.31</text></g><line x1="50" y1="0" x2="50" y2="177" fill="rgb(0, 0, 0)" stroke="rgb(204, 204, 204)" stroke-width="1px"></line></g></g><g transform="translate(50, 0)" clip-path="url(#clip_0)"><clipPath id="clip_0"><rect width="280" height="177"></rect></clipPath><g><g><g><line x1="0" y1="0" x2="0" y2="177" fill="rgb(0, 0, 0)" stroke="rgb(189, 189, 189)" stroke-width="1px" opacity="0.25"></line><line x1="23.333333333333332" y1="0" x2="23.333333333333332" y2="177" fill="rgb(0, 0, 0)" stroke="rgb(189, 189, 189)" stroke-width="1px" opacity="0.25"></line><line x1="46.666666666666664" y1="0" x2="46.666666666666664" y2="177" fill="rgb(0, 0, 0)" stroke="rgb(189, 189, 189)" stroke-width="1px" opacity="0.25"></line><line x1="70" y1="0" x2="70" y2="177" fill="rgb(0, 0, 0)" stroke="rgb(189, 189, 189)" stroke-width="1px" opacity="0.25"></line><line x1="93.33333333333333" y1="0" x2="93.33333333333333" y2="177" fill="rgb(0, 0, 0)" stroke="rgb(189, 189, 189)" stroke-width="1px" opacity="0.25"></line><line x1="116.66666666666667" y1="0" x2="116.66666666666667" y2="177" fill="rgb(0, 0, 0)" stroke="rgb(189, 189, 189)" stroke-width="1px" opacity="0.25"></line><line x1="140" y1="0" x2="140" y2="177" fill="rgb(0, 0, 0)" stroke="rgb(189, 189, 189)" stroke-width="1px" opacity="0.25"></line><line x1="163.33333333333334" y1="0" x2="163.33333333333334" y2="177" fill="rgb(0, 0, 0)" stroke="rgb(189, 189, 189)" stroke-width="1px" opacity="0.25"></line><line x1="186.66666666666666" y1="0" x2="186.66666666666666" y2="177" fill="rgb(0, 0, 0)" stroke="rgb(189, 189, 189)" stroke-width="1px" opacity="0.25"></line><line x1="210" y1="0" x2="210" y2="177" fill="rgb(0, 0, 0)" stroke="rgb(189, 189, 189)" stroke-width="1px" opacity="0.25"></line><line x1="233.33333333333334" y1="0" x2="233.33333333333334" y2="177" fill="rgb(0, 0, 0)" stroke="rgb(189, 189, 189)" stroke-width="1px" opacity="0.25"></line><line x1="256.66666666666663" y1="0" x2="256.66666666666663" y2="177" fill="rgb(0, 0, 0)" stroke="rgb(189, 189, 189)" stroke-width="1px" opacity="0.25"></line><line x1="280" y1="0" x2="280" y2="177" fill="rgb(0, 0, 0)" stroke="rgb(189, 189, 189)" stroke-width="1px" opacity="0.25"></line></g><g><line x1="0" y1="177" x2="280" y2="177" fill="rgb(0, 0, 0)" stroke="rgb(189, 189, 189)" stroke-width="1px" opacity="0.25"></line><line x1="0" y1="151.7142857142793" x2="280" y2="151.7142857142793" fill="rgb(0, 0, 0)" stroke="rgb(189, 189, 189)" stroke-width="1px" opacity="0.25"></line><line x1="0" y1="126.4285714285586" x2="280" y2="126.4285714285586" fill="rgb(0, 0, 0)" stroke="rgb(189, 189, 189)" stroke-width="1px" opacity="0.25"></line><line x1="0" y1="101.14285714286036" x2="280" y2="101.14285714286036" fill="rgb(0, 0, 0)" stroke="rgb(189, 189, 189)" stroke-width="1px" opacity="0.25"></line><line x1="0" y1="75.85714285713964" x2="280" y2="75.85714285713964" fill="rgb(0, 0, 0)" stroke="rgb(189, 189, 189)" stroke-width="1px" opacity="0.25"></line><line x1="0" y1="50.5714285714414" x2="280" y2="50.5714285714414" fill="rgb(0, 0, 0)" stroke="rgb(189, 189, 189)" stroke-width="1px" opacity="0.25"></line><line x1="0" y1="25.2857142857207" x2="280" y2="25.2857142857207" fill="rgb(0, 0, 0)" stroke="rgb(189, 189, 189)" stroke-width="1px" opacity="0.25"></line><line x1="0" y1="0" x2="280" y2="0" fill="rgb(0, 0, 0)" stroke="rgb(189, 189, 189)" stroke-width="1px" opacity="0.25"></line></g></g></g><g><g><line x1="0" y1="116567.14285713351" x2="280" y2="116567.14285713351" fill="rgb(0, 0, 0)" stroke="rgb(153, 153, 153)" stroke-width="1.5px"></line></g></g><g><g><line x1="23.333333333333332" y1="0" x2="23.333333333333332" y2="177" fill="rgb(0, 0, 0)" stroke="rgb(153, 153, 153)" stroke-width="1.5px"></line></g></g><g><g><g><g><g><path stroke="rgb(255, 112, 67)" stroke-width="2px" d="M23.333333333333332,138.99165834699053L28,113.17424706050227L32.666666666666664,122.6923355347242L37.333333333333336,93.23559180026565L42,83.52399924376122L46.666666666666664,91.1699556704407L51.33333333333333,94.00434722611888L56,103.47231321578253L60.66666666666667,103.27700134442425L65.33333333333333,114.52009746740589L70,112.24813392653539L74.66666666666667,106.43869178387543L79.33333333333333,119.58797823671503L84,115.05240737990204L88.66666666666666,117.25497934667699L93.33333333333333,114.26299951207432L98,118.38701186388398L102.66666666666666,116.91064299378695L107.33333333333334,87.99752813099032L112,89.1664512004031L116.66666666666667,113.96335108998314L121.33333333333334,105.89363843041052L126,76.39718668811018L130.66666666666666,71.34508259486985L135.33333333333334,85.57010356628668L140,101.62395314601036L144.66666666666669,84.06006906877698L149.33333333333334,84.8940781036866L154,87.1210703111167L158.66666666666666,101.18481461604684L163.33333333333334,105.91909666427593L168,89.85402433824471L172.66666666666669,98.57563828599092L177.33333333333331,81.03502654688081L182,100.81273532328494L186.66666666666666,109.08632422784173L191.33333333333334,117.8557198054761L196,68.73952858986567L200.66666666666666,91.84389006567464L205.33333333333331,72.63610609102031L210,73.94508550449713L214.66666666666669,82.4325921654723L219.33333333333334,61.96872255586515L224,94.10900824087807L228.66666666666666,70.96641638186252L233.33333333333334,78.91398134293951L238,106.72135720801843L242.66666666666669,110.42262406958112L247.33333333333331,96.93048266214235L252,109.80020178522761" style="fill: none;" fill="none"></path></g><g><path stroke="rgb(187, 187, 187)" stroke-width="2px" d="M42,-67.21204773761912L46.666666666666664,26.181060139947288L51.33333333333333,76.20711028900762L56,108.45053185316158L60.66666666666667,127.9921143850409L65.33333333333333,136.8972846072586L70,142.752768103414L74.66666666666667,147.47527997586434L79.33333333333333,148.95485968791974L84,149.70622359822798L88.66666666666666,151.03001454455605L93.33333333333333,149.76876942300257L98,151.47232881808904L102.66666666666666,149.01663940725433L107.33333333333334,147.30705048940985L112,152.23299961008885L116.66666666666667,153.37019297259667L121.33333333333334,155.73569585145827L126,156.34472955414557L130.66666666666666,152.71197079636974L135.33333333333334,150.7107731541177L140,150.85081759467081L144.66666666666669,150.98789570023635L149.33333333333334,151.24376580166253L154,152.0531979506233L158.66666666666666,151.9649357186206L163.33333333333334,151.95538420297933L168,152.07022498544654L172.66666666666669,155.0569642790393L177.33333333333331,155.40697041267364L182,158.6360890413912L186.66666666666666,154.1302094609654L191.33333333333334,153.80435531496758L196,156.88839257578556L200.66666666666666,155.19883035023415L205.33333333333331,151.33960133171752L210,152.2071563162658L214.66666666666669,153.01706134210215L219.33333333333334,156.75843975694218L224,156.82333080451178L228.66666666666666,154.47012327320402L233.33333333333334,155.38764363996953L238,153.27111026663255L242.66666666666669,154.5669556235794L247.33333333333331,154.85735324475138L252,158.21468420728266" style="fill: none;" fill="none"></path></g></g></g></g><g opacity="0.2"><g><g><g><path stroke="rgb(255, 112, 67)" stroke-width="2px" d="M23.333333333333332,138.99165834699053L28,97.68380028860935L32.666666666666664,131.82970046996823L37.333333333333336,58.59446116856505L42,70.84454400199041L46.666666666666664,101.74706595284592L51.33333333333333,98.05757250104654L56,117.27669852120403L60.66666666666667,102.98895427158884L65.33333333333333,131.21478489466833L70,108.86079515729568L74.66666666666667,97.75614329746817L79.33333333333333,139.26897321428262L84,108.25793675013891L88.66666666666666,120.55624825613681L93.33333333333333,109.77713993617394L98,124.57128524780083L102.66666666666666,114.69646453857312L107.33333333333334,44.6322604588145L112,90.91972896031052L116.66666666666667,151.15734100341393L121.33333333333334,93.78933497837669L126,32.15309143066956L130.66666666666666,63.76698630197005L135.33333333333334,106.90753391810776L140,125.70465905325553L144.66666666666669,57.71428789411617L149.33333333333334,86.14509037562897L154,90.46155657087137L158.66666666666666,122.28042330060514L163.33333333333334,113.02051816667732L168,65.75641904558736L172.66666666666669,111.65805816650304L177.33333333333331,54.724110194618646L182,130.47929763793707L186.66666666666666,121.49670737130137L191.33333333333334,131.00981303623502L196,-4.934757777614273L200.66666666666666,126.50043215070247L205.33333333333331,43.82443019322443L210,75.90855462210719L214.66666666666669,95.1638521466941L219.33333333333334,31.272918156220708L224,142.31943675449585L228.66666666666666,36.252528599335534L233.33333333333334,90.83532878330857L238,148.43242100306537L242.66666666666669,115.97452436174544L247.33333333333331,76.69227055141099L252,129.10478046961967" style="fill: none;" fill="none"></path></g><g><path stroke="rgb(187, 187, 187)" stroke-width="2px" d="M23.333333333333332,-3821.583104814488L28,143.87481144496027L32.666666666666664,154.195747375484L37.333333333333336,160.1158169337634L42,157.6561546325638L46.666666666666664,155.37734985351125L51.33333333333333,147.74516241890666L56,155.4617500305132L60.66666666666667,156.81215286254434L65.33333333333333,150.12042454310432L70,151.48288454327857L74.66666666666667,154.5333480834918L79.33333333333333,151.16939817155708L84,150.83179746354926L88.66666666666666,153.01414489745676L93.33333333333333,147.87779126848116L98,154.0269470214801L102.66666666666666,145.33372879027962L107.33333333333334,144.742927551266L112,159.62147303989485L116.66666666666667,155.07592064993287L121.33333333333334,159.28387233188704L126,157.25826808384033L130.66666666666666,147.26287569318126L135.33333333333334,147.70899091447725L140,151.06088365826886L144.66666666666669,151.19351250784334L149.33333333333334,151.6275705609962L154,153.2673454284626L158.66666666666666,151.8325424194295L163.33333333333334,151.94105693271771L168,152.2424861362961L172.66666666666669,159.5370728628929L177.33333333333331,155.93197958809546L182,163.4797668456981L186.66666666666666,147.3713902064695L191.33333333333334,153.31557410103514L196,161.51444843836708L200.66666666666666,152.66448702130583L205.33333333333331,145.55075781685608L210,153.5084887913253L214.66666666666669,154.2319188799134L219.33333333333334,162.37050737652964L224,156.92066737583255L228.66666666666666,150.9403119768375L233.33333333333334,156.7639241899718L238,150.09631020681803L242.66666666666669,156.51072365896596L247.33333333333331,155.29294967650932L252,163.25068065097852" style="fill: none;" fill="none"></path></g></g></g></g></g></g><g transform="translate(50, 177)" clip-path="url(#clip_1)"><clipPath id="clip_1"><rect width="280" height="23"></rect></clipPath><g><g><line x1="0" y1="0" x2="0" y2="5" style="visibility: inherit;" fill="rgb(0, 0, 0)" stroke="rgb(204, 204, 204)" stroke-width="1px"></line><line x1="23.333333333333332" y1="0" x2="23.333333333333332" y2="5" style="visibility: inherit;" fill="rgb(0, 0, 0)" stroke="rgb(204, 204, 204)" stroke-width="1px"></line><line x1="46.666666666666664" y1="0" x2="46.666666666666664" y2="5" style="visibility: inherit;" fill="rgb(0, 0, 0)" stroke="rgb(204, 204, 204)" stroke-width="1px"></line><line x1="70" y1="0" x2="70" y2="5" style="visibility: inherit;" fill="rgb(0, 0, 0)" stroke="rgb(204, 204, 204)" stroke-width="1px"></line><line x1="93.33333333333333" y1="0" x2="93.33333333333333" y2="5" style="visibility: inherit;" fill="rgb(0, 0, 0)" stroke="rgb(204, 204, 204)" stroke-width="1px"></line><line x1="116.66666666666667" y1="0" x2="116.66666666666667" y2="5" style="visibility: inherit;" fill="rgb(0, 0, 0)" stroke="rgb(204, 204, 204)" stroke-width="1px"></line><line x1="140" y1="0" x2="140" y2="5" style="visibility: inherit;" fill="rgb(0, 0, 0)" stroke="rgb(204, 204, 204)" stroke-width="1px"></line><line x1="163.33333333333334" y1="0" x2="163.33333333333334" y2="5" style="visibility: inherit;" fill="rgb(0, 0, 0)" stroke="rgb(204, 204, 204)" stroke-width="1px"></line><line x1="186.66666666666666" y1="0" x2="186.66666666666666" y2="5" style="visibility: inherit;" fill="rgb(0, 0, 0)" stroke="rgb(204, 204, 204)" stroke-width="1px"></line><line x1="210" y1="0" x2="210" y2="5" style="visibility: inherit;" fill="rgb(0, 0, 0)" stroke="rgb(204, 204, 204)" stroke-width="1px"></line><line x1="233.33333333333334" y1="0" x2="233.33333333333334" y2="5" style="visibility: inherit;" fill="rgb(0, 0, 0)" stroke="rgb(204, 204, 204)" stroke-width="1px"></line><line x1="256.66666666666663" y1="0" x2="256.66666666666663" y2="5" style="visibility: inherit;" fill="rgb(0, 0, 0)" stroke="rgb(204, 204, 204)" stroke-width="1px"></line><line x1="280" y1="0" x2="280" y2="5" style="visibility: inherit;" fill="rgb(0, 0, 0)" stroke="rgb(204, 204, 204)" stroke-width="1px"></line></g><g transform="translate(0, 8)"><text x="0" y="0" dx="0em" dy="0.95em" style="text-anchor: middle; visibility: hidden; font-family: Roboto, sans-serif; font-size: 12px; font-weight: 200;" fill="rgb(255, 255, 255)" stroke="none" stroke-width="1px">-5</text><text x="23.333333333333332" y="0" dx="0em" dy="0.95em" style="text-anchor: middle; visibility: inherit; font-family: Roboto, sans-serif; font-size: 12px; font-weight: 200;" fill="rgb(255, 255, 255)" stroke="none" stroke-width="1px">0</text><text x="46.666666666666664" y="0" dx="0em" dy="0.95em" style="text-anchor: middle; visibility: inherit; font-family: Roboto, sans-serif; font-size: 12px; font-weight: 200;" fill="rgb(255, 255, 255)" stroke="none" stroke-width="1px">5</text><text x="70" y="0" dx="0em" dy="0.95em" style="text-anchor: middle; visibility: inherit; font-family: Roboto, sans-serif; font-size: 12px; font-weight: 200;" fill="rgb(255, 255, 255)" stroke="none" stroke-width="1px">10</text><text x="93.33333333333333" y="0" dx="0em" dy="0.95em" style="text-anchor: middle; visibility: inherit; font-family: Roboto, sans-serif; font-size: 12px; font-weight: 200;" fill="rgb(255, 255, 255)" stroke="none" stroke-width="1px">15</text><text x="116.66666666666667" y="0" dx="0em" dy="0.95em" style="text-anchor: middle; visibility: inherit; font-family: Roboto, sans-serif; font-size: 12px; font-weight: 200;" fill="rgb(255, 255, 255)" stroke="none" stroke-width="1px">20</text><text x="140" y="0" dx="0em" dy="0.95em" style="text-anchor: middle; visibility: inherit; font-family: Roboto, sans-serif; font-size: 12px; font-weight: 200;" fill="rgb(255, 255, 255)" stroke="none" stroke-width="1px">25</text><text x="163.33333333333334" y="0" dx="0em" dy="0.95em" style="text-anchor: middle; visibility: inherit; font-family: Roboto, sans-serif; font-size: 12px; font-weight: 200;" fill="rgb(255, 255, 255)" stroke="none" stroke-width="1px">30</text><text x="186.66666666666666" y="0" dx="0em" dy="0.95em" style="text-anchor: middle; visibility: inherit; font-family: Roboto, sans-serif; font-size: 12px; font-weight: 200;" fill="rgb(255, 255, 255)" stroke="none" stroke-width="1px">35</text><text x="210" y="0" dx="0em" dy="0.95em" style="text-anchor: middle; visibility: inherit; font-family: Roboto, sans-serif; font-size: 12px; font-weight: 200;" fill="rgb(255, 255, 255)" stroke="none" stroke-width="1px">40</text><text x="233.33333333333334" y="0" dx="0em" dy="0.95em" style="text-anchor: middle; visibility: inherit; font-family: Roboto, sans-serif; font-size: 12px; font-weight: 200;" fill="rgb(255, 255, 255)" stroke="none" stroke-width="1px">45</text><text x="256.66666666666663" y="0" dx="0em" dy="0.95em" style="text-anchor: middle; visibility: inherit; font-family: Roboto, sans-serif; font-size: 12px; font-weight: 200;" fill="rgb(255, 255, 255)" stroke="none" stroke-width="1px">50</text><text x="280" y="0" dx="0em" dy="0.95em" style="text-anchor: middle; visibility: hidden; font-family: Roboto, sans-serif; font-size: 12px; font-weight: 200;" fill="rgb(255, 255, 255)" stroke="none" stroke-width="1px">55</text></g><line x1="0" y1="0" x2="280" y2="0" fill="rgb(0, 0, 0)" stroke="rgb(204, 204, 204)" stroke-width="1px"></line></g></g></g></g></svg>