<svg viewBox="0 0 330 200" xmlns="http://www.w3.org/2000/svg"><g><g><g><g><g><line x1="50" y1="177" x2="45" y2="177" style="visibility: inherit;" fill="rgb(0, 0, 0)" stroke="rgb(204, 204, 204)" stroke-width="1px"></line><line x1="50" y1="159.29999999999998" x2="45" y2="159.29999999999998" style="visibility: inherit;" fill="rgb(0, 0, 0)" stroke="rgb(204, 204, 204)" stroke-width="1px"></line><line x1="50" y1="141.59999999999997" x2="45" y2="141.59999999999997" style="visibility: inherit;" fill="rgb(0, 0, 0)" stroke="rgb(204, 204, 204)" stroke-width="1px"></line><line x1="50" y1="123.89999999999995" x2="45" y2="123.89999999999995" style="visibility: inherit;" fill="rgb(0, 0, 0)" stroke="rgb(204, 204, 204)" stroke-width="1px"></line><line x1="50" y1="106.20000000000012" x2="45" y2="106.20000000000012" style="visibility: inherit;" fill="rgb(0, 0, 0)" stroke="rgb(204, 204, 204)" stroke-width="1px"></line><line x1="50" y1="88.5000000000001" x2="45" y2="88.5000000000001" style="visibility: inherit;" fill="rgb(0, 0, 0)" stroke="rgb(204, 204, 204)" stroke-width="1px"></line><line x1="50" y1="70.80000000000008" x2="45" y2="70.80000000000008" style="visibility: inherit;" fill="rgb(0, 0, 0)" stroke="rgb(204, 204, 204)" stroke-width="1px"></line><line x1="50" y1="53.100000000000065" x2="45" y2="53.100000000000065" style="visibility: inherit;" fill="rgb(0, 0, 0)" stroke="rgb(204, 204, 204)" stroke-width="1px"></line><line x1="50" y1="35.400000000000034" x2="45" y2="35.400000000000034" style="visibility: inherit;" fill="rgb(0, 0, 0)" stroke="rgb(204, 204, 204)" stroke-width="1px"></line><line x1="50" y1="17.700000000000017" x2="45" y2="17.700000000000017" style="visibility: inherit;" fill="rgb(0, 0, 0)" stroke="rgb(204, 204, 204)" stroke-width="1px"></line><line x1="50" y1="0" x2="45" y2="0" style="visibility: inherit;" fill="rgb(0, 0, 0)" stroke="rgb(204, 204, 204)" stroke-width="1px"></line></g><g transform="translate(40, 0)"><text x="0" y="177" dx="0em" dy="0.3em" style="text-anchor: end; visibility: hidden; font-family: Roboto, sans-serif; font-size: 12px; font-weight: 200;" fill="rgb(255, 255, 255)" stroke="none" stroke-width="1px">0.9</text><text x="0" y="159.29999999999998" dx="0em" dy="0.3em" style="text-anchor: end; visibility: inherit; font-family: Roboto, sans-serif; font-size: 12px; font-weight: 200;" fill="rgb(255, 255, 255)" stroke="none" stroke-width="1px">0.91</text><text x="0" y="141.59999999999997" dx="0em" dy="0.3em" style="text-anchor: end; visibility: hidden; font-family: Roboto, sans-serif; font-size: 12px; font-weight: 200;" fill="rgb(255, 255, 255)" stroke="none" stroke-width="1px">0.92</text><text x="0" y="123.89999999999995" dx="0em" dy="0.3em" style="text-anchor: end; visibility: inherit; font-family: Roboto, sans-serif; font-size: 12px; font-weight: 200;" fill="rgb(255, 255, 255)" stroke="none" stroke-width="1px">0.93</text><text x="0" y="106.20000000000012" dx="0em" dy="0.3em" style="text-anchor: end; visibility: hidden; font-family: Roboto, sans-serif; font-size: 12px; font-weight: 200;" fill="rgb(255, 255, 255)" stroke="none" stroke-width="1px">0.94</text><text x="0" y="88.5000000000001" dx="0em" dy="0.3em" style="text-anchor: end; visibility: inherit; font-family: Roboto, sans-serif; font-size: 12px; font-weight: 200;" fill="rgb(255, 255, 255)" stroke="none" stroke-width="1px">0.95</text><text x="0" y="70.80000000000008" dx="0em" dy="0.3em" style="text-anchor: end; visibility: hidden; font-family: Roboto, sans-serif; font-size: 12px; font-weight: 200;" fill="rgb(255, 255, 255)" stroke="none" stroke-width="1px">0.96</text><text x="0" y="53.100000000000065" dx="0em" dy="0.3em" style="text-anchor: end; visibility: inherit; font-family: Roboto, sans-serif; font-size: 12px; font-weight: 200;" fill="rgb(255, 255, 255)" stroke="none" stroke-width="1px">0.97</text><text x="0" y="35.400000000000034" dx="0em" dy="0.3em" style="text-anchor: end; visibility: hidden; font-family: Roboto, sans-serif; font-size: 12px; font-weight: 200;" fill="rgb(255, 255, 255)" stroke="none" stroke-width="1px">0.98</text><text x="0" y="17.700000000000017" dx="0em" dy="0.3em" style="text-anchor: end; visibility: inherit; font-family: Roboto, sans-serif; font-size: 12px; font-weight: 200;" fill="rgb(255, 255, 255)" stroke="none" stroke-width="1px">0.99</text><text x="0" y="0" dx="0em" dy="0.3em" style="text-anchor: end; visibility: hidden; font-family: Roboto, sans-serif; font-size: 12px; font-weight: 200;" fill="rgb(255, 255, 255)" stroke="none" stroke-width="1px">1</text></g><line x1="50" y1="0" x2="50" y2="177" fill="rgb(0, 0, 0)" stroke="rgb(204, 204, 204)" stroke-width="1px"></line></g></g><g transform="translate(50, 0)" clip-path="url(#clip_0)"><clipPath id="clip_0"><rect width="280" height="177"></rect></clipPath><g><g><g><line x1="0" y1="0" x2="0" y2="177" fill="rgb(0, 0, 0)" stroke="rgb(189, 189, 189)" stroke-width="1px" opacity="0.25"></line><line x1="23.333333333333332" y1="0" x2="23.333333333333332" y2="177" fill="rgb(0, 0, 0)" stroke="rgb(189, 189, 189)" stroke-width="1px" opacity="0.25"></line><line x1="46.666666666666664" y1="0" x2="46.666666666666664" y2="177" fill="rgb(0, 0, 0)" stroke="rgb(189, 189, 189)" stroke-width="1px" opacity="0.25"></line><line x1="70" y1="0" x2="70" y2="177" fill="rgb(0, 0, 0)" stroke="rgb(189, 189, 189)" stroke-width="1px" opacity="0.25"></line><line x1="93.33333333333333" y1="0" x2="93.33333333333333" y2="177" fill="rgb(0, 0, 0)" stroke="rgb(189, 189, 189)" stroke-width="1px" opacity="0.25"></line><line x1="116.66666666666667" y1="0" x2="116.66666666666667" y2="177" fill="rgb(0, 0, 0)" stroke="rgb(189, 189, 189)" stroke-width="1px" opacity="0.25"></line><line x1="140" y1="0" x2="140" y2="177" fill="rgb(0, 0, 0)" stroke="rgb(189, 189, 189)" stroke-width="1px" opacity="0.25"></line><line x1="163.33333333333334" y1="0" x2="163.33333333333334" y2="177" fill="rgb(0, 0, 0)" stroke="rgb(189, 189, 189)" stroke-width="1px" opacity="0.25"></line><line x1="186.66666666666666" y1="0" x2="186.66666666666666" y2="177" fill="rgb(0, 0, 0)" stroke="rgb(189, 189, 189)" stroke-width="1px" opacity="0.25"></line><line x1="210" y1="0" x2="210" y2="177" fill="rgb(0, 0, 0)" stroke="rgb(189, 189, 189)" stroke-width="1px" opacity="0.25"></line><line x1="233.33333333333334" y1="0" x2="233.33333333333334" y2="177" fill="rgb(0, 0, 0)" stroke="rgb(189, 189, 189)" stroke-width="1px" opacity="0.25"></line><line x1="256.66666666666663" y1="0" x2="256.66666666666663" y2="177" fill="rgb(0, 0, 0)" stroke="rgb(189, 189, 189)" stroke-width="1px" opacity="0.25"></line><line x1="280" y1="0" x2="280" y2="177" fill="rgb(0, 0, 0)" stroke="rgb(189, 189, 189)" stroke-width="1px" opacity="0.25"></line></g><g><line x1="0" y1="177" x2="280" y2="177" fill="rgb(0, 0, 0)" stroke="rgb(189, 189, 189)" stroke-width="1px" opacity="0.25"></line><line x1="0" y1="159.29999999999998" x2="280" y2="159.29999999999998" fill="rgb(0, 0, 0)" stroke="rgb(189, 189, 189)" stroke-width="1px" opacity="0.25"></line><line x1="0" y1="141.59999999999997" x2="280" y2="141.59999999999997" fill="rgb(0, 0, 0)" stroke="rgb(189, 189, 189)" stroke-width="1px" opacity="0.25"></line><line x1="0" y1="123.89999999999995" x2="280" y2="123.89999999999995" fill="rgb(0, 0, 0)" stroke="rgb(189, 189, 189)" stroke-width="1px" opacity="0.25"></line><line x1="0" y1="106.20000000000012" x2="280" y2="106.20000000000012" fill="rgb(0, 0, 0)" stroke="rgb(189, 189, 189)" stroke-width="1px" opacity="0.25"></line><line x1="0" y1="88.5000000000001" x2="280" y2="88.5000000000001" fill="rgb(0, 0, 0)" stroke="rgb(189, 189, 189)" stroke-width="1px" opacity="0.25"></line><line x1="0" y1="70.80000000000008" x2="280" y2="70.80000000000008" fill="rgb(0, 0, 0)" stroke="rgb(189, 189, 189)" stroke-width="1px" opacity="0.25"></line><line x1="0" y1="53.100000000000065" x2="280" y2="53.100000000000065" fill="rgb(0, 0, 0)" stroke="rgb(189, 189, 189)" stroke-width="1px" opacity="0.25"></line><line x1="0" y1="35.400000000000034" x2="280" y2="35.400000000000034" fill="rgb(0, 0, 0)" stroke="rgb(189, 189, 189)" stroke-width="1px" opacity="0.25"></line><line x1="0" y1="17.700000000000017" x2="280" y2="17.700000000000017" fill="rgb(0, 0, 0)" stroke="rgb(189, 189, 189)" stroke-width="1px" opacity="0.25"></line><line x1="0" y1="0" x2="280" y2="0" fill="rgb(0, 0, 0)" stroke="rgb(189, 189, 189)" stroke-width="1px" opacity="0.25"></line></g></g></g><g><g><line x1="0" y1="1770.0000000000002" x2="280" y2="1770.0000000000002" fill="rgb(0, 0, 0)" stroke="rgb(153, 153, 153)" stroke-width="1.5px"></line></g></g><g><g><line x1="23.333333333333332" y1="0" x2="23.333333333333332" y2="177" fill="rgb(0, 0, 0)" stroke="rgb(153, 153, 153)" stroke-width="1.5px"></line></g></g><g><g><g><g><g><path stroke="rgb(51, 187, 238)" stroke-width="2px" d="M23.333333333333332,174.64000225067142L28,158.32281053066257L32.666666666666664,144.14664891301376L37.333333333333336,132.06294245360527L42,120.01384254258028L46.666666666666664,113.04202703845094L51.33333333333333,106.34162789873777L56,99.44309058512118L60.66666666666667,92.93525971929847L65.33333333333333,87.41073357935284L70,83.58457990597066L74.66666666666667,79.76042911383288L79.33333333333333,76.99864791464307L84,75.34388953547574L88.66666666666666,72.1678273306328L93.33333333333333,70.6762748272902L98,68.18833184217957L102.66666666666666,65.39771343955222L107.33333333333334,63.66452447577797L112,62.270649206347855L116.66666666666667,61.67038693404041L121.33333333333334,60.307213092761984L126,58.36830826726432L130.66666666666666,57.91296941129487L135.33333333333334,56.9317745809361L140,55.75305902428056L144.66666666666669,55.63583101831086L149.33333333333334,54.621477732035736L154,54.42587857726817L158.66666666666666,54.01354044669838L163.33333333333334,53.35312530575426L168,52.543863978222866L172.66666666666669,52.17629867600699L177.33333333333331,51.60178515342303L182,51.7880807731435L186.66666666666666,50.95584215342218L191.33333333333334,51.04649842806674L196,50.6878799248014L200.66666666666666,50.354717375983036L205.33333333333331,50.33184921866521L210,50.61310694315244L214.66666666666669,50.01487496882632L219.33333333333334,49.5969400606732L224,49.228145468301236L228.66666666666666,49.18389808419873L233.33333333333334,48.803333111283514L238,48.811019222544274L242.66666666666669,48.46161434685791L247.33333333333331,48.66498368761572L252,48.138010131006844" style="fill: none;" fill="none"></path></g><g><path stroke="rgb(204, 51, 17)" stroke-width="2px" d="M32.666666666666664,181.8178303752628L37.333333333333336,157.50588896081774L42,139.52346026856117L46.666666666666664,125.60362997047717L51.33333333333333,114.31052485954764L56,105.20514399876043L60.66666666666667,97.33753211844521L65.33333333333333,90.36787756048666L70,84.85122737131422L74.66666666666667,79.64716359776861L79.33333333333333,74.61198953966259L84,70.25178633982696L88.66666666666666,66.30969736160681L93.33333333333333,62.89809763970247L98,59.332251291546L102.66666666666666,56.558798059360264L107.33333333333334,54.024645345796166L112,51.47170523383282L116.66666666666667,49.113958252092836L121.33333333333334,47.07983771219235L126,44.62037814020921L130.66666666666666,42.967726818049584L135.33333333333334,41.37136984884951L140,39.572804774590296L144.66666666666669,38.154420834896385L149.33333333333334,36.89042108049677L154,35.74850717902947L158.66666666666666,34.41436380289368L163.33333333333334,33.289359242358906L168,32.21611433466382L172.66666666666669,31.159155158831574L177.33333333333331,30.185733164455236L182,29.291931330756796L186.66666666666666,28.283642245619436L191.33333333333334,27.383690180745553L196,26.41597884675158L200.66666666666666,25.584599122223548L205.33333333333331,24.643261160079224L210,24.166951969255567L214.66666666666669,23.24694132461928L219.33333333333334,22.60639915242036L224,21.91232519956884L228.66666666666666,21.259897933012823L233.33333333333334,20.529195061641946L238,19.913786167668963L242.66666666666669,19.559268662186987L247.33333333333331,19.036809509301698L252,18.28082388954999" style="fill: none;" fill="none"></path></g></g></g></g><g opacity="0.2"><g><g><g><path stroke="rgb(51, 187, 238)" stroke-width="2px" d="M23.333333333333332,174.64000225067142L28,148.53249549865725L32.666666666666664,130.53753376007083L37.333333333333336,117.85250365734105L42,104.28253769874574L46.666666666666664,103.39749634265901L51.33333333333333,96.75994992256166L56,89.38495695590974L60.66666666666667,83.3374732732773L65.33333333333333,79.20745611190797L70,77.88005232810976L74.66666666666667,74.04501378536226L79.33333333333333,72.8649938106537L84,72.8649938106537L88.66666666666666,67.4074673652649L93.33333333333333,68.43999803066255L98,64.45747017860414L102.66666666666666,61.212494373321555L107.33333333333334,61.06500506401064L112,60.17996370792391L116.66666666666667,60.770026445388815L121.33333333333334,58.26249718666079L126,55.459989309310934L130.66666666666666,57.229966521263144L135.33333333333334,55.459989309310934L140,53.98499071598055L144.66666666666669,55.459989309310934L149.33333333333334,53.09994935989382L154,54.132480025291464L158.66666666666666,53.3950334787369L163.33333333333334,52.362502813339255L168,51.32997214794161L172.66666666666669,51.62495076656344L177.33333333333331,50.74001491069796L182,52.06752419471743L186.66666666666666,49.707484245300314L191.33333333333334,51.1824828386307L196,50.14995217323305L200.66666666666666,49.85497355461123L205.33333333333331,50.29754698276522L210,51.034993529319784L214.66666666666669,49.11752700805666L219.33333333333334,48.97003769874575L224,48.67495357990267L228.66666666666666,49.11752700805666L233.33333333333334,48.23248565196993L238,48.822548389434836L242.66666666666669,47.937507033348105L247.33333333333331,48.97003769874575L252,47.34754979610445" style="fill: none;" fill="none"></path></g><g><path stroke="rgb(204, 51, 17)" stroke-width="2px" d="M23.333333333333332,305.620003938675L28,169.77253854274753L32.666666666666664,144.4762229919434L37.333333333333336,128.91504585742953L42,116.04560136795048L46.666666666666664,106.34749352931978L51.33333333333333,98.16120386123659L56,91.92941129207613L60.66666666666667,85.73433279991151L65.33333333333333,80.01875281333925L70,76.62628769874574L74.66666666666667,71.86938822269441L79.33333333333333,67.07566916942598L84,63.72002363204958L88.66666666666666,60.40119767189028L93.33333333333333,57.783104181289694L98,53.98499071598055L102.66666666666666,52.39932239055636L107.33333333333334,50.22380232810976L112,47.64252841472628L116.66666666666667,45.57746708393099L121.33333333333334,44.02872383594513L126,40.93123733997345L130.66666666666666,40.48876941204071L135.33333333333334,38.97684574127197L140,36.87496483325958L144.66666666666669,36.026848554611206L149.33333333333334,34.994423389434814L154,34.03563737869263L158.66666666666666,32.41314947605133L163.33333333333334,31.601852774620056L168,30.606247186660767L172.66666666666669,29.573716521263123L177.33333333333331,28.725600242614746L182,27.951228618621826L186.66666666666666,26.77120864391327L191.33333333333334,26.033762097358704L196,24.964411854743958L200.66666666666666,24.33752954006195L205.33333333333331,23.23125422000885L210,23.45248818397522L214.66666666666669,21.866925358772278L219.33333333333334,21.645585894584656L224,20.871214270591736L228.66666666666666,20.281257033348083L233.33333333333334,19.433140754699707L238,18.990672826766968L242.66666666666669,19.02749240398407L247.33333333333331,18.25312077999115L252,17.14684545993805" style="fill: none;" fill="none"></path></g></g></g></g></g></g><g transform="translate(50, 177)" clip-path="url(#clip_1)"><clipPath id="clip_1"><rect width="280" height="23"></rect></clipPath><g><g><line x1="0" y1="0" x2="0" y2="5" style="visibility: inherit;" fill="rgb(0, 0, 0)" stroke="rgb(204, 204, 204)" stroke-width="1px"></line><line x1="23.333333333333332" y1="0" x2="23.333333333333332" y2="5" style="visibility: inherit;" fill="rgb(0, 0, 0)" stroke="rgb(204, 204, 204)" stroke-width="1px"></line><line x1="46.666666666666664" y1="0" x2="46.666666666666664" y2="5" style="visibility: inherit;" fill="rgb(0, 0, 0)" stroke="rgb(204, 204, 204)" stroke-width="1px"></line><line x1="70" y1="0" x2="70" y2="5" style="visibility: inherit;" fill="rgb(0, 0, 0)" stroke="rgb(204, 204, 204)" stroke-width="1px"></line><line x1="93.33333333333333" y1="0" x2="93.33333333333333" y2="5" style="visibility: inherit;" fill="rgb(0, 0, 0)" stroke="rgb(204, 204, 204)" stroke-width="1px"></line><line x1="116.66666666666667" y1="0" x2="116.66666666666667" y2="5" style="visibility: inherit;" fill="rgb(0, 0, 0)" stroke="rgb(204, 204, 204)" stroke-width="1px"></line><line x1="140" y1="0" x2="140" y2="5" style="visibility: inherit;" fill="rgb(0, 0, 0)" stroke="rgb(204, 204, 204)" stroke-width="1px"></line><line x1="163.33333333333334" y1="0" x2="163.33333333333334" y2="5" style="visibility: inherit;" fill="rgb(0, 0, 0)" stroke="rgb(204, 204, 204)" stroke-width="1px"></line><line x1="186.66666666666666" y1="0" x2="186.66666666666666" y2="5" style="visibility: inherit;" fill="rgb(0, 0, 0)" stroke="rgb(204, 204, 204)" stroke-width="1px"></line><line x1="210" y1="0" x2="210" y2="5" style="visibility: inherit;" fill="rgb(0, 0, 0)" stroke="rgb(204, 204, 204)" stroke-width="1px"></line><line x1="233.33333333333334" y1="0" x2="233.33333333333334" y2="5" style="visibility: inherit;" fill="rgb(0, 0, 0)" stroke="rgb(204, 204, 204)" stroke-width="1px"></line><line x1="256.66666666666663" y1="0" x2="256.66666666666663" y2="5" style="visibility: inherit;" fill="rgb(0, 0, 0)" stroke="rgb(204, 204, 204)" stroke-width="1px"></line><line x1="280" y1="0" x2="280" y2="5" style="visibility: inherit;" fill="rgb(0, 0, 0)" stroke="rgb(204, 204, 204)" stroke-width="1px"></line></g><g transform="translate(0, 8)"><text x="0" y="0" dx="0em" dy="0.95em" style="text-anchor: middle; visibility: hidden; font-family: Roboto, sans-serif; font-size: 12px; font-weight: 200;" fill="rgb(255, 255, 255)" stroke="none" stroke-width="1px">-5</text><text x="23.333333333333332" y="0" dx="0em" dy="0.95em" style="text-anchor: middle; visibility: inherit; font-family: Roboto, sans-serif; font-size: 12px; font-weight: 200;" fill="rgb(255, 255, 255)" stroke="none" stroke-width="1px">0</text><text x="46.666666666666664" y="0" dx="0em" dy="0.95em" style="text-anchor: middle; visibility: inherit; font-family: Roboto, sans-serif; font-size: 12px; font-weight: 200;" fill="rgb(255, 255, 255)" stroke="none" stroke-width="1px">5</text><text x="70" y="0" dx="0em" dy="0.95em" style="text-anchor: middle; visibility: inherit; font-family: Roboto, sans-serif; font-size: 12px; font-weight: 200;" fill="rgb(255, 255, 255)" stroke="none" stroke-width="1px">10</text><text x="93.33333333333333" y="0" dx="0em" dy="0.95em" style="text-anchor: middle; visibility: inherit; font-family: Roboto, sans-serif; font-size: 12px; font-weight: 200;" fill="rgb(255, 255, 255)" stroke="none" stroke-width="1px">15</text><text x="116.66666666666667" y="0" dx="0em" dy="0.95em" style="text-anchor: middle; visibility: inherit; font-family: Roboto, sans-serif; font-size: 12px; font-weight: 200;" fill="rgb(255, 255, 255)" stroke="none" stroke-width="1px">20</text><text x="140" y="0" dx="0em" dy="0.95em" style="text-anchor: middle; visibility: inherit; font-family: Roboto, sans-serif; font-size: 12px; font-weight: 200;" fill="rgb(255, 255, 255)" stroke="none" stroke-width="1px">25</text><text x="163.33333333333334" y="0" dx="0em" dy="0.95em" style="text-anchor: middle; visibility: inherit; font-family: Roboto, sans-serif; font-size: 12px; font-weight: 200;" fill="rgb(255, 255, 255)" stroke="none" stroke-width="1px">30</text><text x="186.66666666666666" y="0" dx="0em" dy="0.95em" style="text-anchor: middle; visibility: inherit; font-family: Roboto, sans-serif; font-size: 12px; font-weight: 200;" fill="rgb(255, 255, 255)" stroke="none" stroke-width="1px">35</text><text x="210" y="0" dx="0em" dy="0.95em" style="text-anchor: middle; visibility: inherit; font-family: Roboto, sans-serif; font-size: 12px; font-weight: 200;" fill="rgb(255, 255, 255)" stroke="none" stroke-width="1px">40</text><text x="233.33333333333334" y="0" dx="0em" dy="0.95em" style="text-anchor: middle; visibility: inherit; font-family: Roboto, sans-serif; font-size: 12px; font-weight: 200;" fill="rgb(255, 255, 255)" stroke="none" stroke-width="1px">45</text><text x="256.66666666666663" y="0" dx="0em" dy="0.95em" style="text-anchor: middle; visibility: inherit; font-family: Roboto, sans-serif; font-size: 12px; font-weight: 200;" fill="rgb(255, 255, 255)" stroke="none" stroke-width="1px">50</text><text x="280" y="0" dx="0em" dy="0.95em" style="text-anchor: middle; visibility: hidden; font-family: Roboto, sans-serif; font-size: 12px; font-weight: 200;" fill="rgb(255, 255, 255)" stroke="none" stroke-width="1px">55</text></g><line x1="0" y1="0" x2="280" y2="0" fill="rgb(0, 0, 0)" stroke="rgb(204, 204, 204)" stroke-width="1px"></line></g></g></g></g></svg>